<?xml version="1.0" encoding="UTF-8"?>
<svg width="80px" height="80px" viewBox="0 0 80 80" version="1.1" xmlns="http://www.w3.org/2000/svg" xmlns:xlink="http://www.w3.org/1999/xlink">
    <title>Combined Shape</title>
    <g id="✨Symbols" stroke="none" stroke-width="1" fill="none" fill-rule="evenodd">
        <g id="01-Base-/-Logos-/-EatBxl" fill="#FFFFFF" fill-rule="nonzero">
            <path d="M40.0080945,0 L40.6694028,0.00535808585 C62.45029,0.358538787 80,18.1268989 80,39.9919055 C80,62.0806947 62.0910377,80 40.0080945,80 C17.9193053,80 0,62.0910377 0,40.0080945 C0,18.1376331 17.5551087,0.358751852 39.3464674,0.00536127373 L40.0080945,0 Z M28.0929254,67.0114943 C27.8015218,66.8172252 27.3806055,66.7362797 26.8301765,66.784847 L26.8301765,66.784847 L25.1950785,66.9305488 L25.6159948,71.7710788 L27.2349037,71.6253845 C27.8177109,71.5768172 28.2548163,71.4149263 28.5624089,71.1559009 C28.8700016,70.8806864 29.0318925,70.4597701 28.9509471,70.071232 C28.9509471,69.7960175 28.8376234,69.520803 28.6433544,69.3265339 C28.4652744,69.1484539 28.2224381,69.0351303 27.9796017,68.9865631 C28.1576817,68.8894285 28.3195726,68.7437267 28.4328962,68.5656468 C28.5624089,68.3713777 28.6109762,68.1285414 28.578598,67.9018941 C28.5624089,67.5457342 28.384329,67.2219524 28.0929254,67.0114943 Z M32.4316011,66.3801198 C31.8002266,66.1858507 31.1202849,66.2506071 30.5212887,66.5420107 C30.2622632,66.6877125 30.0194269,66.8819815 29.8413469,67.1248179 C29.663267,67.3838433 29.5337542,67.6590578 29.4528088,67.9666505 C29.3556743,68.3066213 29.3394852,68.6627813 29.3718634,69.0027521 C29.4042415,69.342723 29.485187,69.6826939 29.6308888,70.0064756 C29.7604015,70.2816901 29.9384815,70.5407156 30.1651287,70.7511737 C30.3917759,70.9616319 30.6508014,71.1073337 30.942205,71.2044682 C31.2497976,71.3016027 31.5735794,71.3339809 31.8973612,71.3016027 C32.2211429,71.2854136 32.5449247,71.1882791 32.8363283,71.0425773 C33.0953537,70.8968755 33.3381901,70.7026064 33.51627,70.4597701 C33.69435,70.2007447 33.8238627,69.9255302 33.9048082,69.6179375 C33.9857536,69.2779667 34.0019427,68.9379958 34.0019427,68.5818358 C33.9695645,68.241865 33.8886191,67.9018941 33.7429173,67.5781124 C33.6134046,67.3028978 33.4353246,67.0438724 33.2086774,66.8334143 C32.9820301,66.6229561 32.7230047,66.4772543 32.4316011,66.3801198 Z M36.3683321,65.9309358 L36.1550915,65.9430144 L34.4714263,66.0887162 L34.8923426,70.9292537 L36.0903351,70.8321192 L35.9446333,69.1808321 L36.2684151,69.1484539 L37.4664076,70.7673628 L38.6805893,70.4597701 L37.3692731,68.7599158 C37.6282985,68.6304031 37.8387567,68.436134 37.9844585,68.1771086 C38.1301603,67.9180832 38.1787275,67.6104905 38.1463494,67.3190869 C38.1463494,66.8819815 37.9197021,66.4772543 37.5635422,66.2182289 C37.2073822,65.9753926 36.7378987,65.8944471 36.1550915,65.9430144 Z M27.0082564,69.5046139 C27.2025255,69.4722357 27.4129836,69.520803 27.5910636,69.6179375 C27.7367654,69.715072 27.8339,69.893152 27.850089,70.0874211 C27.8824672,70.249312 27.8177109,70.4273919 27.6881982,70.5569046 C27.5263073,70.6702283 27.3320382,70.7511737 27.1377691,70.7511737 L27.1377691,70.7511737 L26.7006638,70.7835519 L26.5873401,69.5369921 Z M41.546058,65.6677999 C41.189898,65.5706654 40.8013599,65.5544763 40.4290108,65.5868545 L40.4290108,65.5868545 L38.7777238,65.7325563 L39.1986401,70.5730937 L40.8984944,70.4273919 C41.2708435,70.3950138 41.6270034,70.2978792 41.9669743,70.1521774 C42.2421888,70.0226647 42.5012142,69.8283957 42.7116723,69.5855593 C42.9059414,69.342723 43.0516432,69.0675085 43.1325886,68.7761049 C43.2944795,68.1123523 43.2297232,67.4162215 42.9383196,66.8010361 C42.8088069,66.5258216 42.6307269,66.2829853 42.3878906,66.0887162 C42.1450542,65.8944471 41.8536506,65.7487453 41.546058,65.6677999 Z M30.9745831,67.4647887 C31.3954994,67.1086288 32.0268739,67.157196 32.3830338,67.5781124 C32.8363283,68.2580541 32.9172738,69.1160758 32.5773029,69.8769629 C32.5125465,69.9740975 32.4316011,70.0550429 32.3506557,70.1359883 C31.9297394,70.4921483 31.2983649,70.4273919 30.942205,70.0064756 C30.5050996,69.3265339 30.4241541,68.4685122 30.7479359,67.7238141 C30.8126922,67.6266796 30.8936377,67.5457342 30.9745831,67.4647887 Z M46.7265663,65.0364254 L43.7153958,65.2954509 L44.1363121,70.1359883 L47.212239,69.8445847 L47.1312935,68.8894285 L45.2371701,69.0513194 L45.1400356,68.0152177 L46.6941881,67.885705 L46.4513518,66.9143597 L45.0590902,67.0438724 L44.9781447,66.1534726 L46.8075117,65.9915817 L46.7265663,65.0364254 Z M50.1748422,64.7288328 L48.863526,64.8421564 L47.5522098,69.8445847 L48.7178242,69.7474502 L48.9606605,68.7113486 L50.6119475,68.5656468 L51.065242,69.5855593 L52.2632346,69.2941557 L50.1748422,64.7288328 Z M40.4937672,66.5420107 C40.6880363,66.5096325 40.8661162,66.5258216 41.0603853,66.5743889 C41.2384653,66.606767 41.4003562,66.6877125 41.5298689,66.8010361 C41.6755707,66.9143597 41.7727052,67.0762506 41.8536506,67.2381415 C41.9345961,67.4485996 41.9831633,67.6590578 41.9993524,67.9018941 C42.0317306,68.1285414 42.0155415,68.3551886 41.9669743,68.5818358 C41.918407,68.7599158 41.8374616,68.9218067 41.7241379,69.0675085 C41.6108143,69.1970212 41.4813016,69.3103448 41.3194107,69.3751012 C41.1413307,69.4398575 40.9470617,69.4884248 40.7527926,69.5046139 L40.7527926,69.5046139 L40.3156872,69.5369921 L40.0566618,66.5743889 Z M56.2133722,64.2107819 L54.9991905,64.3079165 L55.258216,67.2381415 C55.2905941,67.4809778 55.2420269,67.7400032 55.1125142,67.9666505 C55.0963251,67.9666505 55.0963251,67.9828396 55.0963251,67.9828396 C54.7887324,68.3551886 54.2383034,68.3875668 53.8821434,68.0799741 C53.7040635,67.885705 53.6069289,67.6266796 53.6069289,67.3676542 L53.6069289,67.3676542 L53.3479035,64.4536183 L52.149911,64.5507528 L52.4089364,67.4647887 C52.4251255,67.7723814 52.5060709,68.063785 52.6355836,68.3389995 C52.8460418,68.8084831 53.2669581,69.1322649 53.7688198,69.2455885 C54.0440343,69.3103448 54.3192488,69.3265339 54.5944633,69.2941557 C54.8858669,69.2779667 55.1448923,69.2132103 55.4039178,69.0998867 C55.6467541,69.0027521 55.8410232,68.8570503 56.0191031,68.6789704 C56.1971831,68.4847013 56.3266958,68.2580541 56.3914522,68.0152177 C56.4885867,67.7238141 56.5047758,67.4324106 56.4723976,67.1248179 L56.4723976,67.1248179 L56.2133722,64.2107819 Z M60.9729642,63.7898656 L59.7425935,63.9031893 L59.0302736,65.4573418 L58.6741136,64.9392909 C58.56079,64.8097782 58.4636555,64.6640764 58.366521,64.5183746 C58.2693864,64.3726728 58.188441,64.2593492 58.1236846,64.1622147 L58.1236846,64.1622147 L58.0265501,64.0165129 L56.7638012,64.3241056 L58.366521,66.412498 L57.0552048,69.0027521 L58.2855755,68.8894285 L59.0950299,67.157196 L60.2444552,68.7761049 L61.5072041,68.4685122 C61.3291242,68.241865 61.1834224,68.0475959 61.0539097,67.885705 L61.0539097,67.885705 L60.6329934,67.335276 C60.4711025,67.141007 60.3415898,66.9467379 60.2120771,66.784847 C60.0825644,66.606767 59.9368626,66.412498 59.7587826,66.2020398 L59.7587826,66.2020398 L60.9729642,63.7898656 Z M26.8301765,67.6590578 C27.0082564,67.6266796 27.1863364,67.6590578 27.3482273,67.7561923 C27.47774,67.8371378 27.5424964,67.9828396 27.5586854,68.1285414 C27.5748745,68.2742432 27.5263073,68.436134 27.4129836,68.5494577 C27.2672819,68.6627813 27.0892019,68.7437267 26.9111219,68.7437267 L26.9111219,68.7437267 L26.5063947,68.7761049 L26.4092602,67.691436 Z M36.1065242,66.8819815 C36.3169824,66.8496034 36.5436296,66.8981706 36.7217096,67.0114943 C36.8836005,67.1248179 36.9645459,67.3028978 36.9645459,67.4971669 C36.9969241,67.691436 36.9321677,67.9018941 36.802655,68.0475959 C36.6407641,68.1932977 36.430306,68.2904322 36.2198478,68.2904322 L36.2198478,68.2904322 L35.8474988,68.3228104 L35.7179861,66.9143597 Z M49.5434677,66.0239599 L50.2395985,67.6590578 L49.1387405,67.7561923 L49.5434677,66.0239599 Z M30.942205,53.8983325 L28.756678,54.4487615 L29.0480816,57.7027683 C28.8214344,57.638012 28.5947871,57.6056338 28.3681399,57.5894447 C28.0767363,57.5732556 27.7853327,57.5732556 27.4939291,57.6056338 C27.105391,57.638012 26.7168528,57.7351465 26.3606929,57.9132265 C26.0045329,58.0913065 25.6969403,58.3503319 25.4541039,58.6741136 C25.1788894,59.0464627 24.9846204,59.4835681 24.8874858,59.9368626 C24.6770277,61.0539097 24.7579731,62.219524 25.1303222,63.2880039 C25.276024,63.676542 25.4864821,64.032702 25.7778857,64.3402946 C26.020722,64.583131 26.3121256,64.7935891 26.6520965,64.9069127 C26.9920673,65.0364254 27.3482273,65.0688036 27.7043872,65.0364254 C28.1414926,65.0202364 28.5462198,64.8583455 28.8861907,64.5993201 C29.1937834,64.3564837 29.4689979,64.0812692 29.6956451,63.7736765 L29.6956451,63.7736765 L29.9222924,64.6964546 L31.864983,64.5183746 L30.942205,53.8983325 Z M37.0616804,56.6828558 C36.5760078,56.731423 36.1389024,56.9580703 35.8151206,57.2980411 C35.5075279,57.638012 35.2646916,58.010361 35.0866116,58.4312773 L35.0866116,58.4312773 L34.7304517,57.0228266 L32.787761,57.1847175 L33.4191355,64.3888619 L35.6370406,64.1945928 L35.2808807,60.195888 C35.5560952,59.8721062 35.8636879,59.5807026 36.2360369,59.3702445 C36.6731423,59.1274081 37.1426259,58.9655172 37.6282985,58.91695 L37.6282985,58.91695 Z M40.5909017,56.5047758 L38.3729966,56.6990448 L39.0043711,63.9031893 L41.2222762,63.7089202 L40.5909017,56.5047758 Z M48.1188279,56.2781285 C47.7302898,55.9219686 47.212239,55.7600777 46.5322972,55.8248341 C46.0951918,55.8572122 45.6904646,56.002914 45.3343047,56.2619395 C44.9781447,56.5209649 44.670552,56.8285576 44.3791485,57.1523393 L44.3791485,57.1523393 L44.1363121,56.180994 L42.1774324,56.359074 L42.8088069,63.5632184 L45.026712,63.3689493 L44.6057957,58.6255464 C44.7838757,58.4312773 44.9619556,58.2531973 45.1724138,58.1074955 C45.3504938,57.9779828 45.5609519,57.8970374 45.7875992,57.8808483 C46.0142464,57.8484701 46.2408936,57.9132265 46.3865954,58.0751174 C46.5322972,58.2531973 46.5970536,58.4636555 46.6132427,58.6903027 L46.6132427,58.6903027 L47.0017808,63.2070584 L49.235875,62.9966003 L48.7825805,57.8808483 C48.7178242,57.1685284 48.4911769,56.6342885 48.1188279,56.2781285 Z M28.5138417,59.2623172 L28.7081107,59.2731099 C28.8700016,59.3054881 29.0318925,59.3378663 29.1937834,59.4026226 L29.1937834,59.4026226 L29.4366197,62.1385786 C29.2747288,62.3490367 29.0966489,62.5433058 28.8861907,62.7213858 C28.7081107,62.8670876 28.4814635,62.9642221 28.2548163,62.9804112 C27.9472236,62.9966003 27.6396309,62.8832767 27.4291727,62.6404403 C27.1863364,62.397604 27.0406346,61.9604986 26.9920673,61.3453133 C26.9435001,60.6491825 27.0244455,60.1311316 27.2349037,59.8073498 C27.4291727,59.4997572 27.7529545,59.3054881 28.1253035,59.2731099 C28.3195726,59.2569208 28.5138417,59.2569208 28.7081107,59.2731099 Z M52.0203983,52.0689655 L49.8348713,52.6193945 L50.7252712,62.8832767 L52.9431763,62.6890076 L52.6355836,59.3378663 L55.0315687,62.6080622 L57.2980411,62.0738222 L54.6268415,58.5769791 L56.6180994,55.0963251 L54.2383034,55.3067832 L52.5708273,58.4312773 L52.0203983,52.0689655 Z M60.3577789,60.0663753 L58.5769791,60.6168043 L58.5802803,60.6311143 C58.6061003,60.74306 58.7762294,61.4810525 58.8360045,61.7500405 C58.9007609,62.0090659 59.0788409,62.1709568 59.3378663,62.1223895 C59.7102153,62.0414441 60.3415898,61.847175 60.3415898,61.847175 L60.3415898,61.847175 L60.3577789,60.0663753 Z M59.839728,51.6318601 L57.638012,52.1013437 L58.8521936,59.2083536 L59.8882953,58.91695 L59.839728,51.6318601 Z M40.1376073,53.5097944 C39.5871782,53.1212563 38.8262911,53.1860126 38.3406184,53.6716853 C38.1139712,53.9145216 38.0006476,54.2383034 38.0492148,54.5782742 C38.0654039,54.9182451 38.2272948,55.2258378 38.4863202,55.4201068 C39.0367492,55.808645 39.7976364,55.7438886 40.283309,55.258216 C40.5099563,55.0153796 40.6070908,54.6754088 40.5747126,54.3678161 C40.5585236,54.0278452 40.3966327,53.7202525 40.1376073,53.5097944 Z M40.0080945,2.53521127 L39.3883966,2.54023285 C18.9780154,2.87123231 2.53521127,19.5236279 2.53521127,40.0080945 C2.53521127,43.1539862 2.92351967,46.2094582 3.65481507,49.1292347 C27.274458,46.3688989 60.4734403,57.9747704 77.065576,34.5039221 C74.4391962,16.6181983 59.1704106,2.84090855 40.6274785,2.54022971 L40.0080945,2.53521127 Z M19.2213048,39.1015056 C19.804112,39.3281528 20.1926502,39.8785818 20.2412174,40.5099563 C20.3016567,41.1294587 20.0095336,41.7348587 19.2990364,42.1418836 L19.1403594,42.2259997 L19.1403594,42.2421888 C20.0145702,42.3878906 20.710701,42.9868868 20.7916464,43.9582322 C20.8564028,44.5896066 20.6135665,45.2209811 20.1440829,45.6418974 C19.6422211,46.12757 18.7518213,46.4513518 17.246236,46.5808645 C16.784847,46.6294318 16.3143516,46.6506799 15.8484094,46.644609 L15.3844909,46.6294318 L14.7531164,39.2148292 C15.4816254,39.0529383 16.2101344,38.9396147 16.9548324,38.8748583 C17.9909341,38.7777238 18.6384977,38.8262911 19.2213048,39.1015056 Z M26.2311802,38.6644002 C26.7168528,38.9719929 27.0082564,39.4900437 27.0730128,40.1861745 C27.1334521,40.9567751 26.728509,41.6991708 26.0556185,42.0711409 L25.9073984,42.1450542 L25.9073984,42.1774324 C26.4578274,42.3393233 26.7816092,42.8088069 27.0406346,43.4887486 C27.3262564,44.2704503 27.6118782,45.1638237 27.7938048,45.5078123 L27.8339,45.577141 L26.0854784,45.7228428 C25.9559657,45.4961956 25.7131294,44.9457666 25.4217258,44.0067994 C25.1474636,43.1230656 24.8301798,42.8846547 24.1999356,42.9001551 L24.0780314,42.9059414 L23.5761697,42.9545087 L23.8351951,45.9171119 L22.1515299,46.0628137 L21.4877772,38.632022 C22.2162862,38.453942 22.9771734,38.3406184 23.7380605,38.2758621 C24.8551077,38.1787275 25.648373,38.2758621 26.2311802,38.6644002 Z M34.244779,37.3854622 L34.6171281,41.6270034 C34.8113971,43.9582322 33.7429173,45.1562247 31.7678485,45.3343047 C29.9212131,45.5064487 28.7402011,44.6045186 28.4734127,42.3799141 L28.4490853,42.1450542 L28.0767363,37.9358912 L29.7927797,37.7740003 L30.1651287,42.1126761 C30.2784523,43.4239922 30.8450704,44.0391776 31.7030921,43.9582322 C32.548972,43.881334 32.9857536,43.2784523 32.9301562,42.0663065 L32.9172738,41.8698397 L32.5449247,37.531164 L34.244779,37.3854622 Z M17.5253883,43.1055157 L17.3757487,43.1163995 L16.7929416,43.1649668 L16.9710215,45.3019265 C17.1976688,45.3019265 17.4081269,45.3019265 17.6347742,45.2695483 C18.4118504,45.1886029 19.059414,44.8324429 18.9946576,44.0391776 C18.9337104,43.3230485 18.3134835,43.0658156 17.5253883,43.1055157 Z M40.0774673,37.0860273 L40.3156872,37.158815 L40.0566618,38.5510766 C39.538611,38.3568075 39.0043711,38.2758621 38.453942,38.3244293 C37.709244,38.3891857 37.3854622,38.7615347 37.4178404,39.1500729 C37.4664076,39.6357455 37.8873239,39.7976364 38.9072365,40.08904 C40.283309,40.461389 40.9470617,41.0927635 41.0441962,42.1612433 C41.1413307,43.4239922 40.283309,44.5896066 38.2111057,44.7676866 C37.5736604,44.8385138 36.9238202,44.7729986 36.304967,44.5819864 L36.0417678,44.4924721 L36.3007933,43.0678323 C36.8997895,43.3106686 37.5635422,43.4239922 38.2111057,43.375425 C39.0043711,43.3106686 39.3929092,42.9221305 39.3443419,42.4526469 C39.2957746,41.9831633 38.9234256,41.7565161 37.9844585,41.5136798 C36.6893314,41.1737089 35.7989315,40.5585236 35.701797,39.4576655 C35.5884734,38.1787275 36.5921969,37.1102477 38.3568075,36.9483568 C38.9375911,36.8775295 39.5183746,36.93065 40.0774673,37.0860273 Z M46.1321864,36.5679765 L46.3704063,36.6407641 L46.1113809,38.0330257 C45.5933301,37.8387567 45.0429011,37.7578112 44.5086612,37.8063785 C43.7639631,37.8711349 43.4401813,38.2434839 43.4725595,38.632022 C43.5049377,39.1176947 43.9420431,39.2795856 44.9619556,39.5709892 C46.3218391,39.9433382 47.0017808,40.5747126 47.0989153,41.6431925 C47.212239,42.9059414 46.3380282,44.0715558 44.2658248,44.2496357 C43.614214,44.3062976 42.9626032,44.2390117 42.3435287,44.047778 L42.0802979,43.9582322 L42.3393233,42.5497814 C42.9545087,42.8088069 43.6020722,42.9059414 44.2658248,42.8573741 C45.0590902,42.7926178 45.4314392,42.4040797 45.399061,41.9345961 C45.3504938,41.4651125 44.9781447,41.2384653 44.0391776,40.9956289 C42.7440505,40.6556581 41.8536506,40.0404727 41.7565161,38.9396147 C41.6431925,37.6606767 42.646916,36.5760078 44.4115266,36.430306 C44.9923102,36.3594787 45.5730937,36.4125992 46.1321864,36.5679765 Z M52.4575036,35.8151206 L52.5870164,37.2073822 L49.6406022,37.4664076 L49.7701149,39.0367492 L52.5384491,38.7939129 L52.6355836,40.1861745 L49.8672495,40.4290108 L50.0291404,42.2259997 L53.1374454,41.9507852 L53.2669581,43.3430468 L48.4749879,43.7639631 L47.8112352,36.2198478 L52.4575036,35.8151206 Z M55.4686741,35.5560952 L56.002914,41.6755707 L58.9978954,41.4165452 L59.1274081,42.841185 L54.4325724,43.2459123 L53.7688198,35.701797 L55.4686741,35.5560952 Z M63.8754275,34.9976349 L64.1136474,35.0704225 L63.854622,36.4626842 C63.3365712,36.2684151 62.7861421,36.1874696 62.2519022,36.2360369 C61.5072041,36.3007933 61.1834224,36.6731423 61.2158006,37.0616804 C61.2481787,37.5473531 61.6852841,37.709244 62.7051967,38.0006476 C64.0812692,38.3729966 64.7450219,39.0043711 64.8421564,40.0728509 C64.95548,41.3355998 64.0812692,42.5012142 62.0090659,42.6792942 C61.3574551,42.7501214 60.7058443,42.6846062 60.0867697,42.4935939 L59.8235389,42.4040797 L60.0825644,40.9794399 C60.6977497,41.2222762 61.3453133,41.3355998 62.0090659,41.2870325 C62.8023312,41.2222762 63.1908694,40.8337381 63.1423021,40.3642545 C63.0937348,39.8947709 62.7213858,39.6519346 61.7824186,39.4252874 C60.4872916,39.0853165 59.5968917,38.4701311 59.4997572,37.3692731 C59.3864335,36.0903351 60.390157,35.0218553 62.1547677,34.8599644 C62.7355512,34.7891371 63.3163348,34.8422576 63.8754275,34.9976349 Z M17.2624251,40.08904 C17.1005342,40.0998327 16.9386434,40.1250157 16.7767525,40.1549955 L16.5339161,40.2023636 L16.695807,41.9507852 L17.246236,41.9022179 C18.152825,41.8212725 18.5899304,41.4165452 18.5413631,40.8499271 C18.4927959,40.283309 18.0395014,40.0242836 17.2624251,40.08904 Z M24.2001715,39.5144401 L24.0456532,39.5224219 C23.8729696,39.5332146 23.700286,39.5583976 23.5323992,39.5931742 L23.2847661,39.6519346 L23.462846,41.7241379 L24.1265987,41.6593816 C24.9846204,41.5946252 25.4541039,41.1251417 25.3893476,40.461389 C25.3332254,39.8580757 24.9609483,39.5465976 24.3462858,39.5164163 L24.2001715,39.5144401 Z M28.2710053,28.206249 C28.3228104,28.6206897 28.3435325,29.0247693 28.3248826,29.4267768 L28.3033835,29.7280233 L19.4803303,30.5050996 C19.9498138,32.415412 21.3906427,32.9496519 23.2038206,32.787761 C24.6090335,32.6517727 26.1411689,32.050402 27.6686034,31.141597 L27.9957908,30.942205 L28.8214344,34.5847499 C27.0406346,35.8151206 24.9522422,36.5436296 22.7990934,36.7217096 C17.8937996,37.1426259 14.2836328,34.9409098 13.8141493,29.5013761 C13.3770439,24.4018132 16.2587016,21.0506718 20.5811883,20.6783228 C25.470293,20.2574065 27.8662781,23.640926 28.2710053,28.206249 Z M43.5124203,24.0646964 L43.5373158,24.3208677 L44.4277157,34.5199935 L39.4414764,34.9409098 L38.9719929,33.0953537 C37.7740003,34.5523717 36.4464951,35.523717 34.5361826,35.6856079 C32.1887648,35.8960661 30.3270196,34.6495062 30.0679942,31.7678485 C29.7665533,28.3092116 32.1082726,26.3120868 37.6873966,25.2736517 L38.0330257,25.2112676 L38.0168367,25.0817549 C37.903513,23.9485187 37.2721386,23.446657 35.7665533,23.5761697 C34.2380336,23.7097296 32.8319438,24.1833729 31.3986473,24.8973417 L31.0069613,25.097944 L30.0194269,21.08305 C31.686903,20.2412174 33.7429173,19.5936539 36.3331714,19.3670066 C40.7082726,18.9865631 43.0810913,20.1117117 43.5124203,24.0646964 Z M51.6480492,12.9237494 L52.1175328,18.2175814 L54.902056,17.974745 L55.9867249,22.3943662 L52.52226,22.7019589 L52.9431763,27.4615509 C53.0403108,28.7081107 53.7526307,29.1452161 54.902056,29.0480816 C55.1999352,29.0221791 55.4874535,28.9548324 55.7563218,28.8543306 L55.9543468,28.7728671 L57.0066375,33.2572446 C56.1486158,33.5810264 55.4201068,33.7752955 54.0440343,33.8400518 C50.5582136,34.1411 47.9408139,33.1085014 47.481929,29.042368 L47.4550753,28.7728671 L46.9694026,23.1390643 L45.026712,23.3171442 L44.6381739,18.8489558 L46.5808645,18.6870649 L46.1923264,14.2836328 L51.6480492,12.9237494 Z M63.3365712,28.7242998 L63.2880039,32.4316011 C63.2880039,32.4316011 61.9604986,32.8363283 61.2481787,32.9982192 C60.6977497,33.0953537 60.3415898,32.771572 60.195888,32.2211429 C60.0425177,31.6536728 59.6857299,30.0400557 59.6485981,29.8717732 L59.645459,29.857536 L63.3365712,28.7242998 Z M38.2272948,27.5586854 C36.0255788,28.2548163 35.3132589,29.2099725 35.4265825,30.4565323 C35.5075279,31.3307431 36.0579569,31.7354703 36.7378987,31.6707139 C37.2769953,31.6270034 37.7636393,31.3734823 38.327651,30.8983487 L38.5186984,30.7317468 L38.2272948,27.5586854 Z M20.8561983,24.1043755 L20.7268901,24.1104096 C19.6356256,24.2039465 19.0247484,25.3183066 19.1255562,27.4101214 L19.1403594,27.65582 L22.9286061,27.3320382 C22.6895057,25.2548536 21.9814007,24.1846495 20.9825554,24.1086927 L20.8561983,24.1043755 Z M62.2357131,11.2238951 L62.3490367,26.3445038 L60.1796989,26.9596892 L57.6542011,12.1790513 L62.2357131,11.2238951 Z" id="Combined-Shape"></path>
        </g>
    </g>
</svg>