<?xml version="1.0" encoding="UTF-8"?>
<svg width="80px" height="42px" viewBox="0 0 80 42" version="1.1" xmlns="http://www.w3.org/2000/svg" xmlns:xlink="http://www.w3.org/1999/xlink">
    <title>Combined Shape</title>
    <g id="✨Symbols" stroke="none" stroke-width="1" fill="none" fill-rule="evenodd">
        <g id="01-Base-/-Logos-/-FredSablon" transform="translate(0.000000, -21.000000)" fill="#FFFFFF" fill-rule="nonzero">
            <path d="M36.809855,57.0039552 C37.2147507,57.0039552 37.580812,57.0718523 37.908039,57.2076467 C38.235266,57.343441 38.4918273,57.5326302 38.6777228,57.7752142 C38.8636183,58.0177983 39.0049498,58.3342123 39.1017173,58.7244562 L39.1017173,58.7244562 L38.4332575,58.9143045 L38.3803918,58.7447067 C38.3066448,58.5287014 38.2198596,58.3531971 38.1200363,58.2181938 C37.9952571,58.0494397 37.8170012,57.9143045 37.5852684,57.8127884 C37.3535357,57.7112722 37.0963378,57.6605142 36.8136748,57.6605142 C36.4749885,57.6605142 36.1821394,57.713909 35.9351276,57.8206987 C35.6881157,57.9274885 35.488851,58.0678972 35.3373335,58.2419249 C35.1858159,58.4159525 35.0680397,58.6071193 34.9840047,58.8154252 C34.8413999,59.1740277 34.7700976,59.5629532 34.7700976,59.9822017 C34.7700976,60.4990112 34.8560424,60.9314436 35.0279321,61.279499 C35.1998217,61.6275544 35.4500167,61.8859591 35.778517,62.0547132 C36.1070172,62.2234674 36.4558896,62.3078444 36.8251341,62.3078444 C37.1459948,62.3078444 37.459216,62.2439024 37.7647976,62.1160185 C38.0703793,61.9881345 38.302112,61.8516809 38.4599959,61.7066579 L38.4599959,61.7066579 L38.4599959,60.6268952 L36.8136748,60.6268952 L36.8136748,59.9466051 L39.1857523,59.94265 L39.1857523,62.094265 L38.9658863,62.2656823 C38.6708981,62.4823204 38.368576,62.6512854 38.05892,62.7725775 C37.6718499,62.9241925 37.2745938,63 36.8671516,63 C36.3171046,63 35.8173513,62.8780488 35.3678916,62.6341463 C34.918432,62.3902439 34.579109,62.0375742 34.3499228,61.5761371 C34.1207366,61.1147001 34.0061435,60.599209 34.0061435,60.0296638 C34.0061435,59.4653922 34.1201,58.9386948 34.3480129,58.4495715 C34.5759259,57.9604483 34.9037895,57.5972314 35.3316038,57.3599209 C35.7594181,57.1226104 36.2521685,57.0039552 36.809855,57.0039552 Z M29.2607153,57 C29.7776575,57 30.2436695,57.127884 30.6587513,57.3836519 C31.073833,57.6394199 31.3902373,57.9960448 31.6079642,58.4535267 C31.8256911,58.9110086 31.9345546,59.4297956 31.9345546,60.0098879 C31.9345546,60.5978906 31.8199615,61.1239288 31.5907753,61.5880026 C31.361589,62.0520765 31.0369085,62.4034278 30.6167338,62.6420567 C30.196559,62.8806856 29.7432796,63 29.2568955,63 C28.7297672,63 28.2586621,62.8681608 27.8435804,62.6044825 C27.4284987,62.3408042 27.1140042,61.9808833 26.9000971,61.5247198 C26.6861899,61.0685564 26.5792364,60.586025 26.5792364,60.0771259 C26.5792364,59.1147001 26.8287947,58.3612393 27.3279114,57.8167436 C27.8270281,57.2722479 28.471296,57 29.2607153,57 Z M15.9309895,57 C16.4479318,57 16.9139438,57.127884 17.3290255,57.3836519 C17.7441072,57.6394199 18.0605115,57.9960448 18.2782384,58.4535267 C18.4959654,58.9110086 18.6048288,59.4297956 18.6048288,60.0098879 C18.6048288,60.5978906 18.4902357,61.1239288 18.2610495,61.5880026 C18.0318633,62.0520765 17.7071828,62.4034278 17.287008,62.6420567 C16.8668333,62.8806856 16.4135538,63 15.9271697,63 C15.4000414,63 14.9289364,62.8681608 14.5138546,62.6044825 C14.0987729,62.3408042 13.7842785,61.9808833 13.5703713,61.5247198 C13.3564642,61.0685564 13.2495106,60.586025 13.2495106,60.0771259 C13.2495106,59.1147001 13.4990689,58.3612393 13.9981856,57.8167436 C14.4973023,57.2722479 15.1415702,57 15.9309895,57 Z M77.5477073,57.1028345 L77.7542868,57.1060229 C78.1527902,57.1187763 78.4633609,57.16979 78.6859989,57.2590639 C78.9457433,57.3632169 79.1532842,57.5471325 79.3086215,57.8108108 C79.4639589,58.0744891 79.5416275,58.3658537 79.5416275,58.6849044 C79.5416275,59.0962426 79.4130286,59.4429796 79.1558307,59.7251154 C78.8986328,60.0072512 78.5013767,60.1865524 77.9640623,60.2630191 C78.1601439,60.3605801 78.3091149,60.4568227 78.4109755,60.5517469 C78.6274291,60.757416 78.8324235,61.0145023 79.0259585,61.3230059 L79.0259585,61.3230059 L80,62.9011206 L79.067976,62.9011206 L78.3269405,61.6947924 L78.2218968,61.5275764 C78.0521293,61.2602358 77.9088879,61.0496594 77.7921727,60.8958471 C77.6521144,60.7112722 77.5266986,60.5820699 77.4159253,60.5082399 C77.3051519,60.43441 77.1924687,60.3829927 77.0778756,60.3539881 C76.9938406,60.3355307 76.8563289,60.3263019 76.6653404,60.3263019 L76.6653404,60.3263019 L75.805892,60.3263019 L75.805892,62.9011206 L75.0648565,62.9011206 L75.0648565,57.1028345 L77.5477073,57.1028345 Z M72.5960115,57.1028345 L72.5960115,57.7870798 L69.2880903,57.7870798 L69.2880903,59.5629532 L72.3859241,59.5629532 L72.3859241,60.2432432 L69.2880903,60.2432432 L69.2880903,62.2168754 L72.7258837,62.2168754 L72.7258837,62.9011206 L68.5470548,62.9011206 L68.5470548,57.1028345 L72.5960115,57.1028345 Z M62.3424743,57.1028345 L62.3424743,59.4838497 L65.2531394,59.4838497 L65.2531394,57.1028345 L65.9941748,57.1028345 L65.9941748,62.9011206 L65.2531394,62.9011206 L65.2531394,60.1680949 L62.3424743,60.1680949 L62.3424743,62.9011206 L61.6014388,62.9011206 L61.6014388,57.1028345 L62.3424743,57.1028345 Z M57.1692317,57.1028345 L57.347806,57.1043727 C57.6332278,57.1094997 57.8576393,57.1274445 58.0210406,57.158207 C58.296064,57.2056691 58.5265235,57.2959789 58.712419,57.4291365 C58.8983145,57.562294 59.0479222,57.7488464 59.1612421,57.9887937 C59.2745619,58.2287409 59.3312218,58.4924192 59.3312218,58.7798286 C59.3312218,59.2729071 59.1797043,59.690178 58.8766692,60.0316414 C58.573634,60.3731048 58.0261336,60.5438365 57.2341678,60.5438365 L57.2341678,60.5438365 L55.7979341,60.5438365 L55.7979341,62.9011206 L55.0568987,62.9011206 L55.0568987,57.1028345 L57.1692317,57.1028345 Z M50.8691569,57.1028345 L53.1610192,62.9011206 L52.31685,62.9011206 L51.6636692,61.1450231 L49.3221499,61.1450231 L48.7071668,62.9011206 L47.9202941,62.9011206 L50.0708249,57.1028345 L50.8691569,57.1028345 Z M44.0763317,57.1028345 L44.2829112,57.1060229 C44.6814146,57.1187763 44.9919853,57.16979 45.2146234,57.2590639 C45.4743677,57.3632169 45.6819086,57.5471325 45.8372459,57.8108108 C45.9925833,58.0744891 46.0702519,58.3658537 46.0702519,58.6849044 C46.0702519,59.0962426 45.941653,59.4429796 45.6844551,59.7251154 C45.4272572,60.0072512 45.0300011,60.1865524 44.4926867,60.2630191 C44.6887683,60.3605801 44.8377393,60.4568227 44.9395999,60.5517469 C45.1560535,60.757416 45.3610479,61.0145023 45.5545829,61.3230059 L45.5545829,61.3230059 L46.5286244,62.9011206 L45.5966004,62.9011206 L44.8555649,61.6947924 L44.7505212,61.5275764 C44.5807537,61.2602358 44.4375123,61.0496594 44.3207971,60.8958471 C44.1807388,60.7112722 44.055323,60.5820699 43.9445497,60.5082399 C43.8337763,60.43441 43.7210931,60.3829927 43.6065,60.3539881 C43.522465,60.3355307 43.3849533,60.3263019 43.1939648,60.3263019 L43.1939648,60.3263019 L42.3345164,60.3263019 L42.3345164,62.9011206 L41.5934809,62.9011206 L41.5934809,57.1028345 L44.0763317,57.1028345 Z M24.881985,57.1028345 L24.881985,57.7870798 L23.0293963,57.7870798 L23.0293963,62.9011206 L22.2883608,62.9011206 L22.2883608,57.7870798 L20.4434117,57.7870798 L20.4434117,57.1028345 L24.881985,57.1028345 Z M7.28557559,57.1028345 L7.28557559,59.4838497 L10.1962407,59.4838497 L10.1962407,57.1028345 L10.9372762,57.1028345 L10.9372762,62.9011206 L10.1962407,62.9011206 L10.1962407,60.1680949 L7.28557559,60.1680949 L7.28557559,62.9011206 L6.54454012,62.9011206 L6.54454012,57.1028345 L7.28557559,57.1028345 Z M2.11233308,57.1028345 L2.29090735,57.1043727 C2.57632909,57.1094997 2.80074061,57.1274445 2.9641419,57.158207 C3.23916538,57.2056691 3.46962487,57.2959789 3.65552036,57.4291365 C3.84141586,57.562294 3.99102354,57.7488464 4.1043434,57.9887937 C4.21766326,58.2287409 4.27432318,58.4924192 4.27432318,58.7798286 C4.27432318,59.2729071 4.12280562,59.690178 3.8197705,60.0316414 C3.51673537,60.3731048 2.96923493,60.5438365 2.17726918,60.5438365 L2.17726918,60.5438365 L0.741035476,60.5438365 L0.741035476,62.9011206 L-2.13162821e-13,62.9011206 L-2.13162821e-13,57.1028345 L2.11233308,57.1028345 Z M29.264535,57.6605142 C28.7399532,57.6605142 28.2885837,57.8470666 27.9104264,58.2201714 C27.5322691,58.5932762 27.3431905,59.2162162 27.3431905,60.0889914 C27.3431905,60.787739 27.5246296,61.3381674 27.8875078,61.7402769 C28.250386,62.1423863 28.7055753,62.343441 29.2530757,62.343441 C29.8107622,62.343441 30.2697713,62.1404087 30.630103,61.7343441 C30.9904347,61.3282795 31.1706005,60.7521424 31.1706005,60.0059328 C31.1706005,59.5339486 31.0935685,59.1219512 30.9395044,58.7699407 C30.7854403,58.4179301 30.5600738,58.1450231 30.263405,57.9512195 C29.9667362,57.757416 29.6337795,57.6605142 29.264535,57.6605142 Z M15.9348093,57.6605142 C15.4102274,57.6605142 14.9588579,57.8470666 14.5807006,58.2201714 C14.2025433,58.5932762 14.0134647,59.2162162 14.0134647,60.0889914 C14.0134647,60.787739 14.1949038,61.3381674 14.557782,61.7402769 C14.9206602,62.1423863 15.3758495,62.343441 15.9233499,62.343441 C16.4810364,62.343441 16.9400455,62.1404087 17.3003772,61.7343441 C17.6607089,61.3282795 17.8408747,60.7521424 17.8408747,60.0059328 C17.8408747,59.5339486 17.7638427,59.1219512 17.6097786,58.7699407 C17.4557145,58.4179301 17.2303481,58.1450231 16.9336792,57.9512195 C16.6370104,57.757416 16.3040537,57.6605142 15.9348093,57.6605142 Z M50.452802,57.7119314 C50.3814996,58.0837179 50.2809123,58.4528675 50.1510401,58.8193804 L50.1510401,58.8193804 L49.536057,60.5201055 L51.434483,60.5201055 L50.8500581,58.9143045 L50.7647499,58.6776533 C50.6289358,58.2953197 50.5249532,57.9734124 50.452802,57.7119314 Z M57.2303481,57.7870798 L55.7979341,57.7870798 L55.7979341,59.8595913 L57.2456272,59.8595913 C57.7243717,59.8595913 58.0643313,59.7673039 58.2655059,59.5827291 C58.4666805,59.3981543 58.5672677,59.1384311 58.5672677,58.8035597 C58.5672677,58.5609756 58.5080613,58.3533289 58.3896484,58.1806196 C58.2712355,58.0079103 58.1152616,57.8938695 57.9217265,57.838497 C57.7969474,57.8042189 57.5664879,57.7870798 57.2303481,57.7870798 L57.2303481,57.7870798 Z M2.17344941,57.7870798 L0.741035476,57.7870798 L0.741035476,59.8595913 L2.18872849,59.8595913 C2.66747306,59.8595913 3.00743264,59.7673039 3.20860722,59.5827291 C3.4097818,59.3981543 3.51036909,59.1384311 3.51036909,58.8035597 C3.51036909,58.5609756 3.45116264,58.3533289 3.33274976,58.1806196 C3.21433687,58.0079103 3.05836291,57.8938695 2.86482787,57.838497 C2.7400487,57.8042189 2.50958922,57.7870798 2.17344941,57.7870798 L2.17344941,57.7870798 Z M77.5782655,57.7435728 L75.805892,57.7435728 L75.805892,59.6618326 L77.3987363,59.6618326 C77.7374226,59.6618326 78.00226,59.6255768 78.1932486,59.5530653 C78.3842371,59.4805537 78.5293884,59.3645353 78.6287024,59.2050099 C78.7280164,59.0454845 78.7776734,58.872116 78.7776734,58.6849044 C78.7776734,58.410679 78.6815426,58.185234 78.4892808,58.0085695 C78.297019,57.8319051 77.9933472,57.7435728 77.5782655,57.7435728 L77.5782655,57.7435728 Z M44.1068899,57.7435728 L42.3345164,57.7435728 L42.3345164,59.6618326 L43.9273607,59.6618326 C44.266047,59.6618326 44.5308844,59.6255768 44.721873,59.5530653 C44.9128615,59.4805537 45.0580128,59.3645353 45.1573268,59.2050099 C45.2566408,59.0454845 45.3062978,58.872116 45.3062978,58.6849044 C45.3062978,58.410679 45.210167,58.185234 45.0179052,58.0085695 C44.8256434,57.8319051 44.5219716,57.7435728 44.1068899,57.7435728 L44.1068899,57.7435728 Z M5.02310085,36.2118019 C6.59495554,36.2118019 7.7781179,36.5518089 8.57258794,37.231823 C9.36705797,37.911837 9.78422593,38.8194591 9.82409181,39.9546891 L9.82409181,39.9546891 L7.295456,40.0642782 L7.25479913,39.859202 C7.13414684,39.3299553 6.91562276,38.941693 6.59922689,38.6944152 C6.24328153,38.4162276 5.7093635,38.2771338 4.99747279,38.2771338 C4.26280157,38.2771338 3.68759388,38.4260625 3.27184971,38.7239199 C3.0041788,38.9149982 2.87034334,39.170706 2.87034334,39.4910432 C2.87034334,39.7832806 2.99563611,40.0333685 3.24622164,40.2413066 C3.56514868,40.5054443 4.33968577,40.7808219 5.56983292,41.0674394 C6.79998007,41.3540569 7.7097764,41.6505093 8.2992219,41.9567966 C8.88866741,42.2630839 9.34997259,42.6817703 9.68313744,43.2128556 C10.0163023,43.743941 10.1828847,44.4000702 10.1828847,45.1812434 C10.1828847,45.8893572 9.98355532,46.5525114 9.58489653,47.170706 C9.18623773,47.7889006 8.62242029,48.2483316 7.8934442,48.5489989 C7.16446811,48.8496663 6.25609556,49 5.16832656,49 C3.58508162,49 2.36917228,48.6389182 1.52059856,47.9167545 C0.672024831,47.1945908 0.165158645,46.142255 -2.55795385e-13,44.7597471 L-2.55795385e-13,44.7597471 L2.4602943,44.5237092 L2.50928661,44.761686 C2.66997459,45.4561433 2.95406169,45.9753425 3.36154794,46.3192835 C3.81431043,46.7014401 4.42511266,46.8925184 5.19395462,46.8925184 C6.0083576,46.8925184 6.62200739,46.7225149 7.034904,46.3825079 C7.44780061,46.0425009 7.65424892,45.6448894 7.65424892,45.1896733 C7.65424892,44.8974359 7.56739825,44.6487531 7.39369692,44.4436249 C7.21999559,44.2384967 6.91673014,44.0600632 6.48390059,43.9083246 C6.18775406,43.8071654 5.51288166,43.627327 4.45928341,43.3688093 C3.1038435,43.0372322 2.15275751,42.6297857 1.60602544,42.14647 C0.837183476,41.4664559 0.452762492,40.6375132 0.452762492,39.6596417 C0.452762492,39.0302072 0.633582732,38.4415174 0.995223213,37.8935722 C1.35686369,37.345627 1.87796769,36.9283456 2.55853521,36.6417281 C3.23910273,36.3551106 4.06062461,36.2118019 5.02310085,36.2118019 Z M60.3420208,36.2118019 C62.1872415,36.2118019 63.6637028,36.776607 64.7714048,37.9062171 C65.8791067,39.0358272 66.4329577,40.6066034 66.4329577,42.6185458 C66.4329577,44.6136284 65.8833781,46.1745697 64.7842188,47.3013699 C63.6850595,48.42817 62.2157171,48.9915701 60.3761915,48.9915701 C58.5138854,48.9915701 57.0331528,48.43098 55.9339935,47.3097998 C54.8348342,46.1886196 54.2852546,44.6445381 54.2852546,42.6775553 C54.2852546,41.4186863 54.4760413,40.3621356 54.8576147,39.5079031 C55.142371,38.8784686 55.5310634,38.3136635 56.0236917,37.8134879 C56.5163201,37.3133123 57.0559333,36.9423955 57.6425312,36.7007376 C58.4227634,36.3747805 59.3225933,36.2118019 60.3420208,36.2118019 Z M72.5251475,36.4225501 L77.6507607,44.6754478 L77.6507607,36.4225501 L80,36.4225501 L80,48.7808219 L77.4628215,48.7808219 L72.4140926,40.7218124 L72.4140926,48.7808219 L70.0648532,48.7808219 L70.0648532,36.4225501 L72.5251475,36.4225501 Z M45.0749834,36.5237092 L45.0749834,46.6986301 L51.3624022,46.6986301 L51.3624022,48.7808219 L42.5463476,48.7808219 L42.5463476,36.5237092 L45.0749834,36.5237092 Z M33.2250215,36.4225501 L33.5147468,36.4237724 C34.3612418,36.4311064 35.0036093,36.4714436 35.4418492,36.544784 C35.9287825,36.6262733 36.3644596,36.7962768 36.7488806,37.0547945 C37.1333015,37.3133123 37.4536524,37.6575342 37.709933,38.0874605 C37.9662137,38.5173867 38.094354,38.9992975 38.094354,39.5331928 C38.094354,40.1120478 37.9363143,40.6431331 37.6202348,41.1264489 C37.3041553,41.6097647 36.8755971,41.9722515 36.3345602,42.2139094 C37.097707,42.4330875 37.6843049,42.8068142 38.094354,43.3350896 C38.504403,43.8633649 38.7094276,44.4843695 38.7094276,45.1981033 C38.7094276,45.7600983 38.5770159,46.3066386 38.3121926,46.8377239 C38.0473692,47.3688093 37.6857287,47.7931156 37.2272711,48.1106428 C36.7688135,48.42817 36.2035723,48.6234633 35.5315474,48.6965227 C35.1101081,48.7414823 34.0935282,48.769582 32.4818076,48.7808219 L32.4818076,48.7808219 L28.2190061,48.7808219 L28.2190061,36.4225501 L33.2250215,36.4225501 Z M20.2217967,36.4225501 L25.2363548,48.7808219 L22.4856091,48.7808219 L21.392145,45.9736565 L16.3861295,45.9736565 L15.3524642,48.7808219 L12.67006,48.7808219 L17.5479352,36.4225501 L20.2217967,36.4225501 Z M60.3676488,38.3445732 C59.3254408,38.3445732 58.4854098,38.6972251 57.8475557,39.402529 C57.2097016,40.1078328 56.8907746,41.1714085 56.8907746,42.5932561 C56.8907746,43.9926238 57.2182443,45.0533895 57.8731838,45.7755532 C58.5281232,46.4977169 59.3596116,46.8587987 60.3676488,46.8587987 C61.3756861,46.8587987 62.2029031,46.5005269 62.8492999,45.7839831 C63.4956966,45.0674394 63.818895,43.9926238 63.818895,42.5595364 C63.818895,41.1433087 63.5042393,40.086758 62.8749279,39.3898841 C62.2456165,38.6930102 61.4098568,38.3445732 60.3676488,38.3445732 Z M32.7893444,43.3940991 L30.7476419,43.3940991 L30.7476419,46.6986301 L33.3092026,46.6981033 C34.0935875,46.6942396 34.5980214,46.6691254 34.8225043,46.6227608 C35.1983826,46.5553214 35.5044956,46.3909378 35.7408433,46.1296101 C35.977191,45.8682824 36.0953649,45.5184405 36.0953649,45.0800843 C36.0953649,44.7091675 36.0042429,44.3944503 35.8219988,44.1359326 C35.6397548,43.8774148 35.3763553,43.6891465 35.0318002,43.5711275 C34.6872451,43.4531085 33.9397598,43.3940991 32.7893444,43.3940991 L32.7893444,43.3940991 Z M18.8549665,39.3055848 L17.1635142,43.8914647 L20.5805896,43.8914647 L18.8549665,39.3055848 Z M30.7476419,38.4794521 L30.7476419,41.337197 L32.6434661,41.3369043 L32.8664659,41.3360262 C33.5838936,41.3321235 34.0422721,41.3184639 34.2416015,41.2950474 C34.674431,41.2444679 35.0147148,41.0969442 35.2624527,40.8524763 C35.5101907,40.6080084 35.6340597,40.2862662 35.6340597,39.8872497 C35.6340597,39.5050931 35.5272761,39.1945908 35.3137089,38.9557429 C35.1001417,38.716895 34.7826384,38.5721812 34.3611991,38.5216017 C34.1464115,38.4975162 33.5864296,38.483753 32.6812533,38.4803123 L32.6812533,38.4803123 L30.7476419,38.4794521 Z M59.897801,21 L60.2030312,21.0023604 C61.0964256,21.0165227 61.7891522,21.0944152 62.2812111,21.2360379 C63.0158823,21.4495961 63.6451937,21.8289427 64.1691452,22.374078 C64.6930968,22.9192132 65.0917556,23.5865824 65.3651216,24.3761855 C65.6384877,25.1657885 65.7751707,26.139445 65.7751707,27.2971549 C65.7751707,28.314366 65.6470303,29.1910783 65.3907497,29.9272919 C65.0775178,30.826484 64.6304504,31.5542677 64.0495476,32.1106428 C63.6110229,32.5321391 63.0187298,32.8609062 62.2726684,33.0969442 C61.7145461,33.2711626 60.9684846,33.3582719 60.034484,33.3582719 L60.034484,33.3582719 L55.2762065,33.3582719 L55.2762065,21 L59.897801,21 Z M51.2684326,21 L51.2684326,23.0906217 L44.511166,23.0906217 L44.511166,25.8303477 L50.7985848,25.8303477 L50.7985848,27.9125395 L44.511166,27.9125395 L44.511166,31.2760801 L51.5076279,31.2760801 L51.5076279,33.3582719 L41.9825302,33.3582719 L41.9825302,21 L51.2684326,21 Z M33.0456251,21 L33.3479806,21.0019703 C34.531421,21.0177328 35.4030785,21.12807 35.9629532,21.3329821 C36.5694841,21.5549701 37.0549936,21.9497717 37.4194816,22.5173867 C37.7839696,23.0850018 37.9662137,23.7341061 37.9662137,24.4646997 C37.9662137,25.3919916 37.6900001,26.1577099 37.1375729,26.7618546 C36.5851457,27.3659993 35.7593525,27.746751 34.6601932,27.9041096 C35.2069253,28.2188268 35.658264,28.5644538 36.0142093,28.9409905 C36.3701547,29.3175272 36.849969,29.9863014 37.4536524,30.947313 L37.4536524,30.947313 L38.9827936,33.3582719 L35.9586819,33.3582719 L34.1305465,30.6691254 L33.9843604,30.4536635 C33.4141738,29.6170556 33.0186828,29.0833266 32.7978871,28.8524763 C32.5586918,28.6023885 32.3052587,28.43098 32.0375878,28.3382508 C31.7699169,28.2455216 31.3456301,28.199157 30.7647272,28.199157 L30.7647272,28.199157 L30.2521659,28.199157 L30.2521659,33.3582719 L27.7235301,33.3582719 L27.7235301,21 L33.0456251,21 Z M23.997665,21 L23.997665,23.0906217 L17.9408988,23.0906217 L17.9408988,26.0158061 L23.1690242,26.0158061 L23.1690242,28.1064278 L17.9408988,28.1064278 L17.9408988,33.3582719 L15.412263,33.3582719 L15.412263,21 L23.997665,21 Z M58.9410199,23.0906217 L57.8048423,23.0906217 L57.8048423,31.2760801 L59.6927764,31.2760801 C60.398972,31.2760801 60.9086858,31.2367404 61.2219177,31.1580611 C61.6319667,31.056902 61.9722505,30.8854935 62.242769,30.6438356 C62.5132874,30.4021777 62.7339736,30.0045662 62.9048273,29.4510011 C63.0756811,28.8974359 63.161108,28.1429575 63.161108,27.1875659 C63.161108,26.2321742 63.0756811,25.4987706 62.9048273,24.9873551 C62.7339736,24.4759396 62.4947783,24.0769231 62.1872415,23.7903056 C61.8797047,23.5036881 61.4895886,23.3097998 61.0168932,23.2086407 C60.6637954,23.1299614 59.9718376,23.0906217 58.9410199,23.0906217 L58.9410199,23.0906217 Z M32.4548148,23.0908711 L30.2521659,23.0906217 L30.2521659,26.2265543 L32.1230147,26.2265543 C33.3360765,26.2265543 34.0935282,26.1759747 34.3953699,26.0748156 C34.6972115,25.9736565 34.9335592,25.799438 35.104413,25.5521602 C35.2752668,25.3048823 35.3606937,24.995785 35.3606937,24.6248683 C35.3606937,24.2089919 35.2482149,23.8731999 35.0232575,23.6174921 C34.7983,23.3617843 34.4807967,23.2002107 34.0707477,23.1327713 C33.8814943,23.1068331 33.34285,23.0928664 32.4548148,23.0908711 L32.4548148,23.0908711 Z" id="Combined-Shape"></path>
        </g>
    </g>
</svg>