<?xml version="1.0" encoding="UTF-8"?>
<svg width="80px" height="26px" viewBox="0 0 80 26" version="1.1" xmlns="http://www.w3.org/2000/svg" xmlns:xlink="http://www.w3.org/1999/xlink">
    <title>FredSablon2</title>
    <g id="✨Symbols" stroke="none" stroke-width="1" fill="none" fill-rule="evenodd">
        <g id="FredSablon-2" transform="translate(0.000000, -27.000000)" fill="#FFFFFF" fill-rule="nonzero">
            <path d="M3.76251843,43.006592 C4.47730923,43.006592 5.10768455,43.1219512 5.65364439,43.3526697 C6.19960423,43.5833883 6.61948901,43.9228741 6.91329873,44.3711272 C7.20710844,44.8193804 7.36497635,45.3269611 7.38690245,45.8938695 L7.38690245,45.8938695 L6.16342617,45.9861569 L6.13569372,45.7880726 C6.04625689,45.2746052 5.83295115,44.8791963 5.49577649,44.6018457 C5.11645499,44.2898264 4.55624318,44.1338167 3.81514107,44.1338167 C3.04334241,44.1338167 2.480938,44.2755438 2.12792782,44.558998 C1.77491764,44.8424522 1.59841255,45.1841354 1.59841255,45.5840475 C1.59841255,45.9312239 1.72339131,46.2168754 1.97334883,46.441002 C2.21892113,46.6651285 2.8602595,46.8947484 3.89736393,47.1298616 C4.93446837,47.3649747 5.64597026,47.5704241 6.03186958,47.7462096 C6.59317769,48.0054933 7.00758095,48.3339925 7.27507935,48.7317073 C7.54257774,49.1294221 7.67632694,49.5875632 7.67632694,50.1061305 C7.67632694,50.6203032 7.52942208,51.1048121 7.23561237,51.5596572 C6.94180265,52.0145023 6.51972527,52.3682707 5.9693802,52.6209624 C5.41903514,52.8736541 4.79962287,53 4.11114339,53 C3.23848469,53 2.50724932,52.8725555 1.91743728,52.6176664 C1.32762524,52.3627774 0.86498457,51.9793452 0.529515269,51.4673698 C0.194045968,50.9553944 0.0175408785,50.3764008 0,49.7303889 L0,49.7303889 L1.20374278,49.6249176 L1.23280605,49.8267795 C1.30019524,50.2198754 1.42316038,50.5492043 1.60170147,50.814766 C1.8099994,51.124588 2.13340934,51.3750824 2.57193131,51.5662492 C3.01045327,51.757416 3.50379047,51.8529993 4.05194293,51.8529993 C4.5387023,51.8529993 4.96845383,51.7804878 5.34119749,51.6354647 C5.71394116,51.4904417 5.9913063,51.2915843 6.17329292,51.0388926 C6.35527953,50.7862008 6.44627284,50.5104373 6.44627284,50.2116018 C6.44627284,49.9083718 6.35856845,49.6435948 6.18315966,49.4172709 C6.00775088,49.190947 5.71832638,49.0008789 5.31488618,48.8470666 C5.05615822,48.7459899 4.48388706,48.5888816 3.5980727,48.3757416 C2.71225833,48.1626016 2.09174976,47.9615469 1.73654697,47.7725775 C1.27609891,47.5308723 0.932955474,47.2309383 0.707116663,46.8727752 C0.481277853,46.5146122 0.368358448,46.1136014 0.368358448,45.6697429 C0.368358448,45.181938 0.506492866,44.7259943 0.782761702,44.3019117 C1.05903054,43.877829 1.46247074,43.5559218 1.99308232,43.3361898 C2.52369389,43.1164579 3.11350593,43.006592 3.76251843,43.006592 Z M60.7558145,43 C61.6460141,43 62.4485093,43.21314 63.1633001,43.6394199 C63.8780909,44.0656998 64.4229544,44.6600747 64.7978907,45.4225445 C65.172827,46.1850143 65.3602951,47.0496594 65.3602951,48.0164799 C65.3602951,48.9964843 65.1629602,49.8732147 64.7682905,50.6466711 C64.3736207,51.4201274 63.8145052,52.005713 63.090944,52.4034278 C62.3673827,52.8011426 61.5868136,53 60.7492367,53 C59.8414962,53 59.0302306,52.7802681 58.3154398,52.3408042 C57.600649,51.9013404 57.0590744,51.3014722 56.6907159,50.5411997 C56.3223575,49.7809273 56.1381783,48.9767084 56.1381783,48.1285432 C56.1381783,46.5245001 56.5679298,45.2687321 57.4274328,44.3612393 C58.2869359,43.4537464 59.3963964,43 60.7558145,43 Z M18.8495157,43.1713909 L22.7962134,52.8352011 L21.3425131,52.8352011 L20.2177042,49.9083718 L16.1854948,49.9083718 L15.1264643,52.8352011 L13.7714314,52.8352011 L17.4747494,43.1713909 L18.8495157,43.1713909 Z M32.7919707,43.1713909 L33.0614047,43.1759744 C33.6741364,43.1973639 34.1752334,43.2936168 34.5646957,43.464733 C35.0097955,43.6602944 35.3584204,43.9613272 35.6105706,44.3678312 C35.8627207,44.7743353 35.9887958,45.1995166 35.9887958,45.6433751 C35.9887958,46.0564711 35.8769727,46.4453966 35.6533265,46.8101516 C35.4296803,47.1749066 35.0920184,47.4693474 34.6403407,47.693474 C35.2235749,47.8648649 35.6719636,48.1571083 35.9855068,48.5702044 C36.2990501,48.9833004 36.4558217,49.4711053 36.4558217,50.033619 C36.4558217,50.4862668 36.3604431,50.9070534 36.1696861,51.2959789 C35.978929,51.6849044 35.7432235,51.9848385 35.4625694,52.1957811 C35.1819154,52.4067238 34.8300015,52.5660294 34.4068278,52.6736981 C33.9836541,52.7813667 33.4651019,52.8352011 32.8511711,52.8352011 L32.8511711,52.8352011 L29.1741645,52.8352011 L29.1741645,43.1713909 L32.7919707,43.1713909 Z M44.8465886,43.1713909 L44.8465886,51.6947924 L49.5957814,51.6947924 L49.5957814,52.8352011 L43.5704897,52.8352011 L43.5704897,43.1713909 L44.8465886,43.1713909 Z M73.7115951,43.1713909 L78.7765237,50.7587343 L78.7765237,43.1713909 L80,43.1713909 L80,52.8352011 L78.6910119,52.8352011 L73.6260833,45.2412657 L73.6260833,52.8352011 L72.402607,52.8352011 L72.402607,43.1713909 L73.7115951,43.1713909 Z M60.7623924,44.100857 C59.8590371,44.100857 59.0817569,44.4117776 58.4305518,45.033619 C57.7793467,45.6554603 57.4537442,46.6936937 57.4537442,48.1483191 C57.4537442,49.3128983 57.7661911,50.2302791 58.3910848,50.9004614 C59.0159786,51.5706438 59.7998367,51.905735 60.7426589,51.905735 C61.703022,51.905735 62.4934578,51.5673478 63.1139664,50.8905735 C63.734475,50.2137992 64.0447292,49.2535706 64.0447292,48.0098879 C64.0447292,47.2232476 63.9120763,46.5365854 63.6467706,45.9499011 C63.3814648,45.3632169 62.9933728,44.9083718 62.4824948,44.5853659 C61.9716167,44.2623599 61.3982492,44.100857 60.7623924,44.100857 Z M32.6801476,48.3724456 L30.4502634,48.3724456 L30.4502634,51.6947924 L32.8511711,51.6947924 C33.2633818,51.6947924 33.5528063,51.6794111 33.7194446,51.6486486 C34.0132543,51.595913 34.2588266,51.5080202 34.4561615,51.3849703 C34.6534964,51.2619205 34.8157495,51.0828389 34.9429209,50.8477258 C35.0700923,50.6126126 35.1336779,50.3412437 35.1336779,50.033619 C35.1336779,49.6732586 35.0415883,49.3601406 34.8574091,49.094265 C34.6732299,48.8283894 34.4177908,48.6416172 34.091092,48.5339486 C33.7643931,48.4262799 33.2940783,48.3724456 32.6801476,48.3724456 L32.6801476,48.3724456 Z M18.1325323,44.1865524 C18.0097462,44.8061964 17.83653,45.4214458 17.6128838,46.0323006 L17.6128838,46.0323006 L16.5538532,48.8668425 L19.8230345,48.8668425 L18.8166266,46.1905076 L18.7052146,45.8924275 C18.4538867,45.2127692 18.2629926,44.6441441 18.1325323,44.1865524 Z M32.3775674,44.3117996 L30.4502634,44.3117996 L30.4502634,47.2320369 L32.5354353,47.2320369 C33.1011286,47.2320369 33.5067615,47.1946825 33.7523338,47.1199736 C34.07684,47.0232916 34.321316,46.8628873 34.4857617,46.6387607 C34.6502075,46.4146341 34.7324303,46.1333773 34.7324303,45.7949901 C34.7324303,45.4741815 34.655689,45.191826 34.5022063,44.9479235 C34.3487236,44.7040211 34.1294626,44.5370248 33.8444234,44.4469347 C33.5593841,44.3568446 33.0704321,44.3117996 32.3775674,44.3117996 L32.3775674,44.3117996 Z M21.4949832,27 L21.4949832,28.1800819 L16.2740412,28.1800819 L16.2740412,31.2769441 L20.7922903,31.2769441 L20.7922903,32.4570259 L16.2740412,32.4570259 L16.2740412,37 L15,37 L15,27 L21.4949832,27 Z M32.8406045,27 L33.1190223,27.0033264 C33.8411465,27.0210674 34.4006847,27.1097721 34.7976368,27.2694407 C35.244208,27.4490678 35.6010271,27.7662574 35.8680941,28.2210095 C36.1351612,28.6757617 36.2686947,29.1782628 36.2686947,29.728513 C36.2686947,30.4379263 36.0475982,31.0359254 35.6054052,31.5225102 C35.1632122,32.009095 34.4802211,32.3183265 33.5564318,32.4502046 C33.8935492,32.6184629 34.1496709,32.7844475 34.3247968,32.9481583 C34.6969394,33.3028649 35.0493804,33.7462483 35.3821196,34.2783083 L35.3821196,34.2783083 L37.0567614,37 L35.4543591,37 L34.1803179,34.9195089 L34.0438428,34.7010147 C33.7325838,34.2066138 33.4716051,33.8201455 33.2609067,33.5416098 C33.0201086,33.2232833 32.8044848,33.0004548 32.6140353,32.8731241 C32.4235859,32.7457935 32.2298528,32.6571169 32.0328361,32.6070941 C31.8883572,32.5752615 31.6519372,32.5593452 31.3235761,32.5593452 L31.3235761,32.5593452 L29.845951,32.5593452 L29.845951,37 L28.5719098,37 L28.5719098,27 L32.8406045,27 Z M50.6549401,27 L50.6549401,28.1800819 L44.9677253,28.1800819 L44.9677253,31.2428377 L50.2937429,31.2428377 L50.2937429,32.4160982 L44.9677253,32.4160982 L44.9677253,35.8199181 L50.8782257,35.8199181 L50.8782257,37 L43.6936841,37 L43.6936841,27 L50.6549401,27 Z M61.3569736,27 L61.6294107,27.0022382 C62.2457035,27.0126833 62.7262395,27.0596862 63.0710187,27.1432469 C63.6226654,27.2751251 64.0933164,27.5138699 64.4829716,27.8594816 C64.9908368,28.3051387 65.3706412,28.8747158 65.6223847,29.5682128 C65.8741282,30.2617099 66,31.0541155 66,31.9454297 C66,32.7048658 65.9146261,33.377899 65.7438783,33.9645293 C65.5731305,34.5511596 65.3542231,35.0366075 65.0871561,35.4208731 C64.820089,35.8051387 64.5278476,36.1075489 64.2104318,36.3281037 C63.8930161,36.5486585 63.5099281,36.7157799 63.0611679,36.8294679 C62.6124077,36.943156 62.0968807,37 61.514587,37 L61.514587,37 L58.0405262,37 L58.0405262,27 L61.3569736,27 Z M61.3372719,28.1800819 L59.3145674,28.1800819 L59.3145674,35.8199181 L61.3701081,35.8199181 C62.0049396,35.8199181 62.502954,35.7585266 62.8641512,35.6357435 C63.2253484,35.5129604 63.5132117,35.3401546 63.727741,35.1173261 C64.0298332,34.8035471 64.2651587,34.3817644 64.4337174,33.8519782 C64.6022761,33.3221919 64.6865555,32.6798545 64.6865555,31.9249659 C64.6865555,30.8790359 64.5212804,30.0752615 64.1907302,29.5136426 C63.86018,28.9520236 63.4584849,28.5757162 62.9856448,28.3847203 C62.6441492,28.2482947 62.0946916,28.1800819 61.3372719,28.1800819 L61.3372719,28.1800819 Z M32.8931423,28.1050477 L29.845951,28.1050477 L29.845951,31.4133697 L32.5844828,31.4133697 C33.1667765,31.4133697 33.622104,31.3508413 33.9504651,31.2257844 C34.2788262,31.1007276 34.5283807,30.9006367 34.6991285,30.6255116 C34.8698763,30.3503865 34.9552502,30.051387 34.9552502,29.728513 C34.9552502,29.2555707 34.7899751,28.8667576 34.4594249,28.5620737 C34.1288747,28.2573897 33.6067805,28.1050477 32.8931423,28.1050477 L32.8931423,28.1050477 Z" id="FredSablon2"></path>
        </g>
    </g>
</svg>