<?xml version="1.0" encoding="UTF-8"?>
<svg width="80px" height="79px" viewBox="0 0 80 79" version="1.1" xmlns="http://www.w3.org/2000/svg" xmlns:xlink="http://www.w3.org/1999/xlink">
    <title>GItHub</title>
    <g id="✨Symbols" stroke="none" stroke-width="1" fill="none" fill-rule="evenodd">
        <g id="01-Base-/-Logos-/-GItHub" fill="#FFFFFF" fill-rule="nonzero">
            <path d="M40,0 C17.8995745,0 0,17.8995745 0,40 C0,58.7982979 12.8987234,74.4 30.3012766,78.7982979 C30.1004255,78.2978723 30.0017021,77.5965957 30.0017021,76.8987234 L30.0017021,70.0970213 L25.0008511,70.0970213 C22.3012766,70.0970213 19.7991489,68.8987234 18.6995745,66.6961702 C17.3991489,64.2961702 17.1982979,60.5957447 13.8995745,58.2944681 C12.8987234,57.4944681 13.6987234,56.6944681 14.7982979,56.7931915 C16.8987234,57.3923404 18.5974468,58.7948936 20.1974468,60.8919149 C21.7974468,62.9923404 22.4987234,63.492766 25.4978723,63.492766 C26.8970213,63.492766 29.0961702,63.3940426 31.0978723,63.0910638 C32.1974468,60.2893617 34.0970213,57.7906383 36.3982979,56.5923404 C22.9991489,54.9923404 16.5991489,48.3914894 16.5991489,39.3906383 C16.5991489,35.4893617 18.2978723,31.7889362 21.0995745,28.5889362 C20.2008511,25.4876596 18.9991489,19.0876596 21.5012766,16.5889362 C27.5029787,16.5889362 31.1012766,20.4902128 32,21.4876596 C34.9991489,20.4868085 38.3012766,19.8876596 41.6987234,19.8876596 C45.1982979,19.8876596 48.3982979,20.4868085 51.3974468,21.4876596 C52.2961702,20.4868085 55.8978723,16.5889362 61.8961702,16.5889362 C64.2961702,18.9889362 63.1965957,25.4876596 62.1957447,28.5889362 C64.9974468,31.6902128 66.5974468,35.4893617 66.5974468,39.3906383 C66.5974468,48.3914894 60.2961702,54.9923404 46.9991489,56.3914894 C50.6995745,58.2910638 53.3004255,63.6902128 53.3004255,67.6902128 L53.3004255,76.8 C53.3004255,77.0995745 53.2017021,77.3991489 53.2017021,77.6987234 C68.8,72.2995745 80,57.5012766 80,40 C80,17.8995745 62.1004255,0 40,0 L40,0 Z" id="GItHub"></path>
        </g>
    </g>
</svg>