<?xml version="1.0" encoding="UTF-8"?>
<svg width="80px" height="52px" viewBox="0 0 80 52" version="1.1" xmlns="http://www.w3.org/2000/svg" xmlns:xlink="http://www.w3.org/1999/xlink">
    <title>Hilton</title>
    <g id="✨Symbols" stroke="none" stroke-width="1" fill="none" fill-rule="evenodd">
        <g id="01-Base-/-Logos-/-Hilton" transform="translate(0.000000, -14.000000)" fill="#FFFFFF" fill-rule="nonzero">
            <path d="M54.522467,53.0472024 C57.3478921,53.0472024 61.4537944,54.6468524 61.7797174,59.2847456 C61.8393486,60.1855724 61.746943,61.1682926 61.3932528,62.012249 C60.9485226,63.1605757 59.1031426,66 54.6107757,66 C49.6131371,66 47.0535486,62.7679426 47.0535486,59.4817446 C47.0535486,54.9293845 51.3369787,53.0472024 54.522467,53.0472024 Z M8.65790028,48.6072182 L8.65790028,49.4793823 L6.24761731,49.4793823 L6.24761731,56.2806247 L12.5252778,56.2806247 L12.5252778,49.4793823 L10.1755364,49.4793823 L10.1755364,48.6072182 L18.7442175,48.6072182 L18.7442175,49.4793823 L16.5442369,49.4793823 L16.5442369,64.8202809 L18.7442175,64.8202809 L18.7442175,65.6915351 L10.1755364,65.6915351 L10.1755364,64.8202809 L12.5252778,64.8202809 L12.5252778,57.2924625 L6.24761731,57.2924625 L6.24761731,64.8202809 L8.65790028,64.8202809 L8.65790028,65.6915351 L-3.55271368e-14,65.6915351 L-3.55271368e-14,64.8202809 L2.20225665,64.8202809 L2.20225665,49.4793823 L-3.55271368e-14,49.4793823 L-3.55271368e-14,48.6072182 L8.65790028,48.6072182 Z M26.1430352,53.4434752 L26.1430352,64.8207358 L28.1058567,64.8207358 L28.1058567,65.6915351 L20.1321217,65.6915351 L20.1321217,64.8207358 L22.2442488,64.8207358 L22.2442488,54.3092699 L20.1321217,54.3092699 L20.1321217,53.4434752 L26.1430352,53.4434752 Z M35.0517505,46.3606107 L35.0517505,64.8202809 L37.1047016,64.8202809 L37.1047016,65.6915351 L28.9525284,65.6915351 L28.9525284,64.8202809 L31.1238314,64.8202809 L31.1238314,47.2295901 L28.9525284,47.2295901 L28.9525284,46.3606107 L35.0517505,46.3606107 Z M43.5758221,48.5785555 L43.5758221,53.4434752 L46.6092736,53.4434752 L46.6092736,54.3092699 L43.5758221,54.3092699 L43.5758221,64.8207358 L46.6689047,64.8207358 L46.6689047,65.6915351 L43.218035,65.6915351 C41.0735887,65.6915351 39.9155604,64.6546743 39.9155604,63.0504746 L39.9155604,54.3092699 L37.8038885,54.3092699 L37.8038885,53.4434752 L39.9155604,53.4434752 L39.9155604,48.5785555 C41.1049975,48.5785555 42.3549762,48.6072182 43.5758221,48.5785555 Z M75.3278292,53.2451113 C77.8296073,53.9448445 77.9461385,55.7437683 77.9461385,57.0349534 L77.9461385,64.8202809 L80,64.8202809 L80,65.6910801 L72.2657001,65.6910801 L72.2657001,64.8207358 L73.9895418,64.8207358 L73.9895418,57.5977427 C73.9895418,55.96943 73.9895418,54.3684151 72.0849858,54.3684151 C71.0152663,54.3684151 69.2595606,55.3802529 68.843508,57.0349534 C68.6960233,57.5399624 68.7242456,58.0749989 68.7242456,59.4266941 L68.7242456,64.8202809 L70.6870672,64.8202809 L70.6870672,65.6910801 L62.7146978,65.6910801 L62.7146978,64.8202809 L64.8263697,64.8202809 L64.8263697,54.3092699 L62.7146978,54.3092699 L62.7146978,53.4434752 L68.7237904,53.4434752 L68.7237904,55.2938099 C69.3774574,54.5071788 69.9168691,53.9448445 71.1937046,53.4684982 C71.940561,53.1703233 72.7373893,53.0170006 73.5416252,53.0167199 C73.7815155,53.0167199 74.495724,53.0167199 75.3278292,53.2451113 Z M54.4915134,53.8574916 C51.4271083,53.8574916 51.3683875,56.8420491 51.3683875,59.4266941 C51.3683875,62.9067063 51.6947658,63.5300057 51.9301041,63.9499366 C52.3202103,64.6542193 53.1527707,65.298447 54.522467,65.298447 C57.5859616,65.298447 57.5859616,62.1769456 57.5568289,59.3134083 C57.5240545,56.1914519 57.3196698,55.7983639 57.1398658,55.4052758 C56.6341388,54.3411173 55.7082624,53.8574916 54.4915134,53.8574916 Z M25.9905432,48.6072182 L25.9905432,50.6331686 L22.0662657,50.6331686 L22.0662657,48.6072182 L25.9905432,48.6072182 Z M38.4916954,14 C49.0987613,14 62.6081811,20.7275384 62.6081811,30.160287 C62.6081811,37.9497091 53.2533699,43.4984383 41.0999903,43.4984383 C33.093481,43.4984383 23.9061833,39.6512708 23.9061833,33.4387506 C23.9061833,29.4032285 28.1541079,26.9632617 32.4976244,26.1397786 L32.4976244,26.1397786 L32.4976244,20.4914126 L39.2022623,20.4914126 L39.2022623,26.0783586 C43.0477903,26.5274071 46.8077407,28.7430771 46.8077407,32.5274596 C46.8077407,35.7413185 44.1074954,38.5971215 37.7301462,38.1216851 L37.7301462,38.1216851 L37.7301462,37.815495 C39.9437828,38.1435233 42.5070129,37.2522508 43.8780747,35.7890896 L43.8780747,35.7890896 L42.422801,35.7890896 L42.422801,28.5347041 C41.4407363,27.9161333 40.3461407,27.4974471 39.2018071,27.3026642 L39.2018071,27.3026642 L39.2018071,35.7886347 L32.4980796,35.7886347 L32.4980796,28.3317905 C34.3220652,26.9682663 37.8585125,26.4218557 40.1417947,26.8012949 C39.064792,26.529682 37.6573142,26.1957391 36.1437749,26.1957391 C30.6872948,26.1957391 27.0256676,29.3381688 27.0256676,33.7549499 C27.0256676,38.8573603 32.47623,42.4119865 39.4945006,42.4119865 C53.2042083,42.4119865 59.7290423,34.9069163 59.7290423,29.1357102 C59.7290423,18.0778337 47.1450437,16.5518877 40.1445259,16.5518877 C30.2439302,16.5518877 19.1183918,21.3535675 18.4870297,29.8818496 C18.4870297,33.9069076 20.6460423,36.8359596 23.0403933,38.7149569 L23.0403933,38.7149569 L22.8127934,38.8569054 C19.7875355,36.5020167 17.3899981,33.1202765 17.3899981,29.0870292 C17.3899981,21.2944223 26.3392263,14 38.4916954,14 Z M60.1341701,40.4565554 L60.1341701,40.6808522 L59.49598,40.6808522 L59.49598,42.849206 L59.1955481,42.849206 L59.1955481,40.6808522 L58.5614548,40.6808522 L58.5614548,40.4565554 L60.1341701,40.4565554 Z M61.1205881,40.4565554 L61.922195,42.4119865 L61.9344854,42.4119865 L62.715153,40.4565554 L63.1170945,40.4565554 L63.1170945,42.849206 L62.813021,42.849206 L62.813021,41.0507371 L62.7979994,41.0507371 L62.0555685,42.849206 L61.7774414,42.849206 L61.0117954,41.0507371 L60.999505,41.0507371 L60.999505,42.849206 L60.6945211,42.849206 L60.6945211,40.4565554 L61.1205881,40.4565554 Z M48.8301934,20.4914126 L48.8301934,35.7886347 L46.7344535,35.7886347 C47.4773396,34.8104641 47.7317963,33.7026292 47.7317963,32.7485717 C47.7317963,29.9992301 45.7503115,27.8044884 42.1264659,26.7426047 L42.1264659,26.7426047 L42.1264659,20.4914126 L48.8301934,20.4914126 Z" id="Hilton"></path>
        </g>
    </g>
</svg>