<?xml version="1.0" encoding="UTF-8"?>
<svg width="188px" height="95px" viewBox="0 0 188 95" version="1.1" xmlns="http://www.w3.org/2000/svg" xmlns:xlink="http://www.w3.org/1999/xlink">
    <title>Combined Shape</title>
    <g id="âš›ï¸-2-Atoms" stroke="none" stroke-width="1" fill="none" fill-rule="evenodd">
        <path d="M93.531,-1.27897692e-13 C108.359,-1.27897692e-13 122.39,1.77 134.857,4.925 C165.77,12.672 187.088,28.834 187.086,47.432 C187.086,66.031 165.768,82.192 134.856,89.939 C122.389,93.094 108.358,94.838 93.53,94.838 L93.53,94.838 L93.197,94.838 C79.754,94.838 66.928,93.351 55.333,90.708 C22.78,83.269 0,66.647 0,47.432 C0,28.218 22.78,11.595 55.334,4.155 C66.929,1.513 79.756,0.025 93.198,0.025 C93.325,0.025 93.428,-1.27897692e-13 93.531,-1.27897692e-13 Z M93.531,10.801 L93.198,10.801 C79.653,10.826 66.801,12.186 55.334,14.572 C26.628,20.549 6.824,33.042 6.824,47.433 C6.824,61.824 26.628,74.317 55.334,80.294 C66.801,82.68 79.653,84.04 93.198,84.04 C93.325,84.04 93.428,84.065 93.531,84.065 C108.486,84.065 122.57,82.449 134.857,79.601 C161.869,73.393 180.263,61.284 180.263,47.432 C180.263,33.58 161.869,21.472 134.857,15.264 C122.57,12.417 108.486,10.801 93.531,10.801 L93.531,10.801 Z M62.979,25.062 L73.317,25.139 C74.394,25.139 75.01,26.011 74.497,26.781 L74.497,26.781 L61.106,46.38 C66.2935499,53.7790695 71.5095886,61.1581242 76.754,68.517 C77.01,68.85 77.113,70.133 76.061,70.133 L76.061,70.133 L65.03,70.21 C63.875,70.21 62.772,69.286 62.208,68.619 L62.208,68.619 L55.333,60.153 L48.843,52.124 L48.818,68.465 C48.818,69.158 48.203,70.184 47.484,70.21 L47.484,70.21 L37.326,70.261 C36.607,70.261 35.581,69.133 35.581,68.389 L35.581,68.389 L35.581,29.165 C35.581,28.755 33.735,28.447 33.7597483,26.959 C33.785,25.446 34.529,25.138 35.35,25.138 L35.35,25.138 L47.203,25.138 C47.844,25.138 48.896,25.78 48.896,26.78 L48.896,26.78 L48.845,41.454 L55.335,32.963 L60.003,26.883 C60.67,26.037 62.209,25.062 62.979,25.062 L62.979,25.062 Z M99.174,25.14 C100.072,25.14 100.918,25.781 100.918,26.781 L100.918,26.781 L100.918,68.467 C100.918,69.443 100.611,70.135 99.457,70.135 L99.457,70.135 L93.198,70.186 L88.991,70.212 C88.093,70.212 87.451,69.519 87.451,68.467 L87.451,68.467 L87.451,28.885 C87.451,28.859 85.783,28.423 85.527,26.833 C85.758,25.961 86.066,25.14 87.451,25.14 L87.451,25.14 Z M141.013,25.14 C141.886,25.14 142.554,25.96 142.937,26.833 L142.937,26.833 L157.099,68.57 C157.278,69.083 156.61,70.212 156.046,70.212 L156.046,70.212 L146.349,70.135 C145.709,70.135 144.504,69.186 144.324,68.596 L144.324,68.596 L135.678,42.071 C135.602,41.814 135.217,41.686 134.858,41.686 C134.628,41.686 134.397,41.789 134.319,41.968 C132.858,46.38 131.369,50.792 129.881,55.205 L129.881,55.205 L125.469,68.441 C125.135,69.442 123.98,70.134 123.16,70.134 L123.16,70.134 L113.848,70.211 C113.027,70.211 112.438,68.98 112.668,68.313 L112.668,68.313 L126.033,28.885 C126.162,28.552 123.801,28.628 123.826,26.371 C123.826,25.602 124.596,25.14 125.16,25.14 L125.16,25.14 Z" id="Combined-Shape" fill="#FFFFFF" fill-rule="nonzero"></path>
    </g>
</svg>