<?xml version="1.0" encoding="UTF-8"?>
<svg width="170px" height="66px" viewBox="0 0 170 66" version="1.1" xmlns="http://www.w3.org/2000/svg" xmlns:xlink="http://www.w3.org/1999/xlink">
    <title>Combined Shape</title>
    <g id="âš›ï¸-2-Atoms" stroke="none" stroke-width="1" fill="none" fill-rule="evenodd">
        <path d="M31.955,0.835 C49.603,0.835 63.91,15.248 63.91,33.028 C63.91,33.1374154 63.9094582,33.2467033 63.9083771,33.3558611 C63.9092659,33.4281008 63.91,33.501464 63.91,33.575 C63.91,33.8292038 63.9012246,34.0813431 63.8839622,34.3311271 C63.2056435,51.5068637 49.1698218,65.221 31.955,65.221 C14.307,65.221 -3.55271368e-15,50.808 -3.55271368e-15,33.028 C-3.55271368e-15,15.249 14.307,0.835 31.955,0.835 Z M31.955,22.844 C26.073,22.844 21.303,27.649 21.303,33.574 C21.303,39.501 26.072,44.306 31.955,44.306 C37.837,44.306 42.607,39.501 42.607,33.574 C42.607,27.649 37.838,22.844 31.955,22.844 Z M53.258,22.843 C47.375,22.843 42.608,27.648 42.608,33.575 C42.608,39.501 47.375,44.305 53.258,44.305 C58.7915607,44.305 63.3395301,40.0547482 63.8602889,34.618333 L63.8839622,34.3311271 L63.8839622,34.3311271 L63.8998844,33.8443457 L63.8998844,33.8443457 L63.9083771,33.3558611 L63.9083771,33.3558611 C63.7914911,27.5295089 59.0680099,22.843 53.258,22.843 Z M111.565,24.485 C113.318,24.485 114.724,24.978 115.782,25.964 C116.841,26.95 117.456,28.315 117.63,30.059 L115.442,30.059 C115.254,28.729 114.843,27.767 114.212,27.172 C113.582,26.576 112.699,26.278 111.565,26.278 C110.175,26.278 109.083,26.796 108.294,27.833 C107.504,28.869 107.109,30.343 107.109,32.256 L107.109,33.869 C107.109,35.675 107.484,37.112 108.232,38.179 C108.98,39.246 110.027,39.779 111.372,39.779 C112.581,39.779 113.509,39.503 114.156,38.951 C114.802,38.399 115.231,37.438 115.442,36.067 L117.63,36.067 L117.63,36.066 C117.426,37.826 116.782,39.183 115.697,40.139 C114.613,41.094 113.171,41.572 111.372,41.572 C109.422,41.572 107.859,40.868 106.684,39.459 C105.509,38.051 104.921,36.166 104.921,33.805 L104.921,32.206 C104.921,30.661 105.195,29.301 105.743,28.128 C106.291,26.956 107.068,26.056 108.073,25.428 C109.078,24.799 110.243,24.485 111.565,24.485 Z M137.887,24.485 C139.209,24.485 140.376,24.806 141.384,25.45 C142.394,26.094 143.17,27.026 143.714,28.248 C144.258,29.471 144.53,30.893 144.53,32.514 L144.53,33.565 C144.53,35.195 144.258,36.617 143.714,37.832 C143.17,39.046 142.399,39.972 141.402,40.612 C140.404,41.252 139.24,41.572 137.909,41.572 C136.61,41.572 135.456,41.25 134.451,40.607 C133.446,39.964 132.666,39.047 132.111,37.854 C131.555,36.663 131.27,35.283 131.255,33.714 L131.255,32.514 C131.255,30.915 131.531,29.504 132.082,28.277 C132.634,27.051 133.414,26.112 134.423,25.461 C135.433,24.811 136.587,24.485 137.887,24.485 Z M151.388,24.484 C152.522,24.484 153.532,24.706 154.421,25.147 C155.31,25.589 155.997,26.197 156.485,26.975 C156.972,27.752 157.216,28.601 157.216,29.522 L155.028,29.522 C155.028,28.512 154.71,27.72 154.076,27.142 C153.44,26.566 152.545,26.278 151.388,26.278 C150.316,26.278 149.478,26.516 148.877,26.993 C148.277,27.47 147.976,28.132 147.976,28.978 C147.976,29.658 148.261,30.231 148.831,30.701 C149.403,31.17 150.374,31.599 151.745,31.988 C153.117,32.377 154.19,32.805 154.965,33.274 C155.74,33.742 156.315,34.289 156.689,34.914 C157.063,35.537 157.25,36.273 157.25,37.117 C157.25,38.466 156.728,39.545 155.685,40.355 C154.642,41.167 153.248,41.572 151.502,41.572 C150.409068,41.5804589 149.32682,41.3565104 148.327,40.915 C147.344,40.477 146.587,39.878 146.054,39.116 C145.521,38.356 145.254,37.491 145.254,36.524 L147.444,36.524 C147.444,37.529 147.811,38.323 148.549,38.905 C149.285,39.487 150.27,39.779 151.502,39.779 C152.651,39.779 153.531,39.543 154.144,39.07 C154.756,38.598 155.062,37.955 155.062,37.14 C155.062,36.326 154.778,35.695 154.212,35.25 C153.644,34.805 152.617,34.365 151.128,33.93 L151.128,33.931 C149.261,33.391 147.902,32.726 147.052,31.937 C146.202,31.15 145.776,30.177 145.776,29.019 C145.776,27.71 146.296,26.626 147.336,25.769 C148.374,24.913 149.726,24.484 151.388,24.484 Z M163.63,24.484 C164.765,24.484 165.775,24.706 166.664,25.147 C167.552,25.589 168.239,26.197 168.727,26.975 C169.214,27.752 169.458,28.601 169.458,29.522 L167.27,29.522 C167.27,28.512 166.952,27.72 166.318,27.142 C165.683,26.566 164.787,26.278 163.63,26.278 C162.558,26.278 161.72,26.516 161.12,26.993 C160.519,27.47 160.218,28.132 160.218,28.978 C160.218,29.658 160.503,30.231 161.074,30.701 C161.644,31.17 162.616,31.599 163.988,31.988 C165.359,32.377 166.432,32.805 167.208,33.274 C167.982,33.742 168.557,34.289 168.931,34.914 C169.305,35.537 169.492,36.273 169.492,37.117 C169.492,38.466 168.971,39.545 167.927,40.355 C166.884,41.167 165.49,41.572 163.744,41.572 C162.651068,41.5804589 161.56882,41.3565104 160.569,40.915 C159.587,40.477 158.829,39.878 158.296,39.116 C157.763,38.356 157.496,37.491 157.496,36.524 L159.686,36.524 C159.686,37.529 160.054,38.323 160.791,38.905 C161.527,39.487 162.512,39.779 163.744,39.779 C164.894,39.779 165.773,39.543 166.386,39.07 C166.998,38.598 167.304,37.955 167.304,37.14 C167.304,36.326 167.02,35.695 166.454,35.25 C165.887,34.805 164.859,34.365 163.37,33.93 L163.37,33.931 C161.503,33.391 160.144,32.726 159.294,31.937 C158.444,31.15 158.018,30.177 158.018,29.019 C158.018,27.71 158.538,26.626 159.578,25.769 C160.617,24.913 161.968,24.484 163.63,24.484 Z M84.067,24.713 L77.571,32.058 L84.577,41.344 L81.97,41.344 L76.12,33.611 L74.1,35.724 L74.1,41.344 L71.924,41.344 L71.924,24.714 L74.101,24.714 L74.101,32.937 L81.437,24.713 L84.067,24.713 Z M100.809,24.714 L100.809,26.506 L95.503,26.506 L95.503,41.344 L93.337,41.344 L93.337,26.506 L88.042,26.506 L88.042,24.714 L100.809,24.714 Z M87.285,24.713 L87.285,41.343 L85.109,41.343 L85.109,24.713 L87.285,24.713 Z M124.521,24.713 C126.381,24.713 127.811,25.14 128.813,25.993 C129.814,26.845 130.315,28.087 130.315,29.716 C130.315,30.752 130.037,31.654 129.482,32.423 C128.926,33.193 128.153,33.767 127.163,34.148 L131.041,41.206 L131.041,41.343 L128.705,41.343 L125.122,34.616 L121.245,34.616 L121.245,41.343 L119.056,41.343 L119.056,24.713 L124.521,24.713 Z M137.887,26.369 C136.51,26.369 135.428,26.897 134.639,27.951 C133.849,29.006 133.442,30.47 133.419,32.343 L133.419,33.565 C133.419,35.477 133.818,36.979 134.616,38.071 C135.413,39.164 136.51,39.711 137.909,39.711 C139.315,39.711 140.404,39.194 141.174,38.163 C141.946,37.131 142.343,35.652 142.365,33.725 L142.365,32.492 C142.365,30.52 141.972,29.006 141.185,27.951 C140.4,26.897 139.3,26.369 137.887,26.369 Z M124.578,26.506 L121.245,26.506 L121.245,32.823 L124.589,32.823 C125.671,32.823 126.529,32.54 127.169,31.976 C127.808,31.412 128.127,30.656 128.127,29.71 C128.127,28.68 127.823,27.891 127.214,27.341 C126.606,26.793 125.727,26.514 124.578,26.506 Z" id="Combined-Shape" fill="#FFFFFF" fill-rule="nonzero"></path>
    </g>
</svg>