<?xml version="1.0" encoding="UTF-8"?>
<svg width="193px" height="29px" viewBox="0 0 193 29" version="1.1" xmlns="http://www.w3.org/2000/svg" xmlns:xlink="http://www.w3.org/1999/xlink">
    <title>lovethegarden</title>
    <g id="Page-1" stroke="none" stroke-width="1" fill="none" fill-rule="evenodd">
        <g id="lovethegarden" fill="#FFFFFF" fill-rule="nonzero">
            <path d="M104.290882,5.65234375 C105.091663,5.65234375 105.789905,5.77441406 106.385609,6.0185547 C107.401234,6.4384766 108.221546,7.2099609 108.846546,8.3330078 L108.846546,8.3330078 L108.846546,6.0332031 L112.904163,6.0332031 L112.904163,21.1796875 L112.900101,21.5600891 C112.859474,23.4323425 112.514149,24.8582764 111.864124,25.8378906 C110.672718,27.6347656 108.387562,28.5332031 105.008655,28.5332031 C102.96764,28.5332031 101.302601,28.1328125 100.013538,27.3320312 C98.724476,26.53125 98.011585,25.3349609 97.874866,23.7431641 L97.874866,23.7431641 L102.415882,23.7431641 L102.463261,23.9198608 C102.581821,24.3171997 102.756458,24.6098633 102.987171,24.7978516 C103.43639,25.1787109 104.193226,25.3691406 105.257679,25.3691406 C106.761585,25.3691406 107.767445,24.8662109 108.275257,23.8603516 C108.607288,23.2158203 108.773304,22.1318359 108.773304,20.6083984 L108.773304,20.6083984 L108.773304,19.5830078 L108.621784,19.8313446 C108.265034,20.3921051 107.885853,20.8220215 107.484241,21.1210938 C106.654163,21.7558594 105.575062,22.0732422 104.246937,22.0732422 C102.196155,22.0732422 100.557972,21.3530273 99.332386,19.9125977 C98.1068,18.472168 97.494007,16.5214844 97.494007,14.0605469 C97.494007,11.6875 98.084827,9.6928711 99.266468,8.0766602 C100.448109,6.4604492 102.122913,5.65234375 104.290882,5.65234375 Z M15.0029106,5.52050781 C17.7470512,5.52050781 19.7929497,6.3652344 21.1406059,8.0546875 C22.4882622,9.7441406 23.1620903,11.7412109 23.1620903,14.0458984 C23.1620903,16.3896484 22.4882622,18.394043 21.1406059,20.059082 C19.7929497,21.7241211 17.7470512,22.5566406 15.0029106,22.5566406 C12.25877,22.5566406 10.2128715,21.7241211 8.8652153,20.059082 C7.517559,18.394043 6.8437309,16.3896484 6.8437309,14.0458984 C6.8437309,11.7412109 7.517559,9.7441406 8.8652153,8.0546875 C10.2128715,6.3652344 12.25877,5.52050781 15.0029106,5.52050781 Z M88.767464,5.95996094 C89.880745,5.95996094 90.959846,6.2211914 92.004768,6.7436523 C93.04969,7.2661133 93.845589,7.9423828 94.392464,8.7724609 C94.919807,9.5634766 95.27137,10.4863281 95.447151,11.5410156 C95.603401,12.2636719 95.681526,13.4160156 95.681526,14.9980469 L95.681526,14.9980469 L84.182503,14.9980469 L84.197973,15.3343257 C84.286711,16.7706448 84.657531,17.9354074 85.310432,18.8286133 C86.013557,19.7905273 87.102425,20.2714844 88.577034,20.2714844 C89.953987,20.2714844 91.05262,19.8173828 91.872932,18.9091797 C92.341682,18.3818359 92.673714,17.7714844 92.869026,17.078125 L92.869026,17.078125 L95.4618,17.078125 L95.428726,17.2972794 C95.334198,17.8158493 95.118172,18.3848877 94.780647,19.0043945 C94.394905,19.7124023 93.962776,20.2910156 93.48426,20.7402344 C92.683479,21.5214844 91.692268,22.0488281 90.510628,22.3222656 C89.875862,22.4785156 89.158089,22.5566406 88.357307,22.5566406 C86.404182,22.5566406 84.748909,21.8461914 83.391487,20.425293 C82.034065,19.0043945 81.355354,17.0146484 81.355354,14.4560547 C81.355354,11.9365234 82.038948,9.890625 83.406135,8.3183594 C84.773323,6.7460938 86.560432,5.95996094 88.767464,5.95996094 Z M167.951938,5.60839844 C169.280063,5.60839844 170.476353,5.85742188 171.540806,6.3554688 C172.605259,6.8535156 173.484165,7.6396484 174.177524,8.7138672 C174.802524,9.6611328 175.207798,10.7597656 175.393345,12.0097656 C175.500767,12.7421875 175.544712,13.796875 175.525181,15.1738281 L175.525181,15.1738281 L164.597446,15.1738281 L164.612399,15.4514895 C164.716746,16.905858 165.214691,17.9363511 166.106235,18.5429688 C166.682407,18.9433594 167.375767,19.1435547 168.186313,19.1435547 C169.045688,19.1435547 169.743931,18.8994141 170.28104,18.4111328 C170.574009,18.1474609 170.832798,17.78125 171.057407,17.3125 L171.057407,17.3125 L175.320103,17.3125 L175.288465,17.5313598 C175.134527,18.4078391 174.651908,19.2967999 173.84061,20.1982422 C172.473423,21.7509766 170.55936,22.5273438 168.098423,22.5273438 C166.067173,22.5273438 164.275181,21.8730469 162.722446,20.5644531 C161.169712,19.2558594 160.393345,17.1269531 160.393345,14.1777344 C160.393345,11.4140625 161.094028,9.2949219 162.495396,7.8203125 C163.896763,6.3457031 165.71561,5.60839844 167.951938,5.60839844 Z M48.217716,5.60839844 C49.545841,5.60839844 50.74213,5.85742188 51.806583,6.3554688 C52.871036,6.8535156 53.749943,7.6396484 54.443302,8.7138672 C55.068302,9.6611328 55.473576,10.7597656 55.659122,12.0097656 C55.766544,12.7421875 55.81049,13.796875 55.790958,15.1738281 L55.790958,15.1738281 L44.863224,15.1738281 L44.878177,15.4514895 C44.982523,16.905858 45.480469,17.9363511 46.372013,18.5429688 C46.948185,18.9433594 47.641544,19.1435547 48.452091,19.1435547 C49.311466,19.1435547 50.009708,18.8994141 50.546818,18.4111328 C50.839786,18.1474609 51.098576,17.78125 51.323185,17.3125 L51.323185,17.3125 L55.58588,17.3125 L55.554243,17.5313598 C55.400304,18.4078391 54.917686,19.2967999 54.106388,20.1982422 C52.739201,21.7509766 50.825138,22.5273438 48.364201,22.5273438 C46.332951,22.5273438 44.540958,21.8730469 42.988224,20.5644531 C41.43549,19.2558594 40.659122,17.1269531 40.659122,14.1777344 C40.659122,11.4140625 41.359806,9.2949219 42.761173,7.8203125 C44.16254,6.3457031 45.981388,5.60839844 48.217716,5.60839844 Z M122.6268,5.65234375 C124.374847,5.65234375 125.927582,5.99902344 127.285004,6.6923828 C128.642425,7.3857422 129.321136,8.6943359 129.321136,10.6181641 L129.321136,10.6181641 L129.32195,18.2052409 C129.324663,18.6582574 129.334157,19.1858724 129.350433,19.7880859 C129.37973,20.3349609 129.462738,20.7060547 129.599457,20.9013672 C129.736175,21.0966797 129.941254,21.2578125 130.214691,21.3847656 L130.214691,21.3847656 L130.214691,22 L125.673675,22 L125.585785,21.7619629 C125.505218,21.5275879 125.446625,21.3041992 125.410004,21.0917969 C125.361175,20.8085938 125.322113,20.4863281 125.292816,20.125 C124.716644,20.75 124.052582,21.2822266 123.300629,21.7216797 C122.402191,22.2392578 121.386566,22.4980469 120.253754,22.4980469 C118.808441,22.4980469 117.614593,22.0854492 116.672211,21.2602539 C115.729828,20.4350586 115.258636,19.265625 115.258636,17.7519531 C115.258636,15.7890625 116.015472,14.3681641 117.529144,13.4892578 C118.359222,13.0107422 119.579925,12.6689453 121.191254,12.4638672 L121.191254,12.4638672 L122.612152,12.2880859 L122.861175,12.2546296 C123.503537,12.1630015 123.972287,12.0520833 124.267425,11.921875 C124.863129,11.6679688 125.16098,11.2724609 125.16098,10.7353516 C125.16098,10.0810547 124.933929,9.6293945 124.479828,9.3803711 C124.025726,9.1313477 123.359222,9.0068359 122.480316,9.0068359 C121.493988,9.0068359 120.795746,9.2509766 120.385589,9.7392578 C120.092621,10.1005859 119.897308,10.5888672 119.799652,11.2041016 L119.799652,11.2041016 L115.771332,11.2041016 L115.796988,10.8862565 C115.92111,9.6325582 116.303183,8.5910457 116.943207,7.7617188 C118.046722,6.3554688 119.941254,5.65234375 122.6268,5.65234375 Z M158.317192,0.4375 L158.317192,22 L154.259575,22 L154.259575,19.7880859 L154.078374,20.064502 C153.527299,20.870459 152.908989,21.4667969 152.223442,21.8535156 C151.461723,22.2832031 150.514458,22.4980469 149.381645,22.4980469 C147.516411,22.4980469 145.946586,21.7436523 144.672172,20.2348633 C143.397758,18.7260742 142.760551,16.7900391 142.760551,14.4267578 C142.760551,11.7021484 143.387993,9.5585938 144.642876,7.9960938 C145.897758,6.4335938 147.575004,5.65234375 149.674614,5.65234375 C150.641411,5.65234375 151.500786,5.86474609 152.252739,6.2895508 C153.004692,6.7143555 153.615044,7.3027344 154.083794,8.0546875 L154.083794,8.0546875 L154.083794,0.4375 L158.317192,0.4375 Z M61.324142,1.93164062 L61.324142,6.3115234 L63.829025,6.3115234 L63.829025,8.4648438 L61.324142,8.4648438 L61.324142,18.7041016 L61.329709,18.8627441 C61.363107,19.3224121 61.546799,19.6357422 61.880783,19.8027344 C62.085861,19.9101562 62.427658,19.9638672 62.906174,19.9638672 C63.033127,19.9638672 63.169846,19.9614258 63.31633,19.956543 C63.462814,19.9516602 63.633713,19.9394531 63.829025,19.9199219 L63.829025,19.9199219 L63.829025,22 L63.522222,22.0797526 C63.314974,22.1274957 63.1023,22.164388 62.884201,22.1904297 C62.557053,22.2294922 62.203049,22.2490234 61.822189,22.2490234 C60.591721,22.2490234 59.75676,21.934082 59.317306,21.3041992 C58.877853,20.6743164 58.658127,19.8564453 58.658127,18.8505859 L58.658127,18.8505859 L58.658127,8.4648438 L56.534103,8.4648438 L56.534103,6.3115234 L58.658127,6.3115234 L58.658127,1.93164062 L61.324142,1.93164062 Z M68.644436,0.40820312 L68.644436,8.4355469 L68.850418,8.1805556 C69.393435,7.5237269 69.886298,7.0520833 70.329006,6.765625 C71.178616,6.2089844 72.238186,5.93066406 73.507717,5.93066406 C75.783108,5.93066406 77.326076,6.7265625 78.136623,8.3183594 C78.576076,9.1875 78.795803,10.3935547 78.795803,11.9365234 L78.795803,11.9365234 L78.795803,22 L76.085842,22 L76.085842,12.1123047 L76.08279,11.8306274 C76.060411,10.8213094 75.914944,10.0704753 75.646389,9.578125 C75.167873,8.71875 74.269436,8.2890625 72.951076,8.2890625 C71.857326,8.2890625 70.866116,8.6650391 69.977444,9.4169922 C69.088772,10.1689453 68.644436,11.5898438 68.644436,13.6796875 L68.644436,13.6796875 L68.644436,22 L66.007717,22 L66.007717,0.40820312 L68.644436,0.40820312 Z M4.2109375,0.40820312 L4.2109375,22 L0.0361328,22 L0.0361328,0.40820312 L4.2109375,0.40820312 Z M28.8124618,6.0332031 L32.1376571,17.8105469 L35.5360946,6.0332031 L40.018517,6.0332031 L34.2616806,22 L29.8525009,22 L24.1249618,6.0332031 L28.8124618,6.0332031 Z M141.241039,5.65234375 C141.319164,5.65234375 141.385082,5.65478516 141.438793,5.65966797 C141.492504,5.66455078 141.612133,5.671875 141.79768,5.68164062 L141.79768,5.68164062 L141.79768,9.9589844 L141.543774,9.9329427 C141.381013,9.9177517 141.231274,9.906901 141.094555,9.9003906 C140.889477,9.890625 140.723461,9.8857422 140.596508,9.8857422 C138.91682,9.8857422 137.788891,10.4326172 137.212719,11.5263672 C136.890453,12.1416016 136.72932,13.0888672 136.72932,14.3681641 L136.72932,14.3681641 L136.72932,22 L132.525219,22 L132.525219,6.0332031 L136.509594,6.0332031 L136.509594,8.8164062 L136.668997,8.557312 C137.247136,7.6330363 137.755525,6.991862 138.194164,6.6337891 C138.975414,5.97949219 139.991039,5.65234375 141.241039,5.65234375 Z M186.72731,5.65234375 C188.377701,5.65234375 189.727798,6.0844727 190.777603,6.9487305 C191.827408,7.8129883 192.35231,9.2460938 192.35231,11.2480469 L192.35231,11.2480469 L192.35231,22 L188.074966,22 L188.074966,12.2880859 L188.070807,12.0153718 C188.048623,11.3074243 187.937705,10.7537977 187.738052,10.3544922 C187.327896,9.5341797 186.546646,9.1240234 185.394302,9.1240234 C183.978287,9.1240234 183.006607,9.7246094 182.479263,10.9257812 C182.205826,11.5605469 182.069107,12.3710938 182.069107,13.3574219 L182.069107,13.3574219 L182.069107,22 L177.908951,22 L177.908951,6.0625 L181.937271,6.0625 L181.937271,8.3916016 L182.115222,8.1266638 C182.586866,7.4428289 183.035361,6.9403212 183.460708,6.6191406 C184.320083,5.97460938 185.408951,5.65234375 186.72731,5.65234375 Z M125.146332,14.2363281 L124.94812,14.3548889 C124.749451,14.4674988 124.549408,14.5622559 124.347992,14.6391602 C124.079437,14.7416992 123.710785,14.8369141 123.242035,14.9248047 L123.242035,14.9248047 L122.304535,15.1005859 L122.048334,15.1484863 C121.302142,15.2952637 120.75766,15.4697266 120.414886,15.671875 C119.770355,16.0527344 119.448089,16.6435547 119.448089,17.4443359 C119.448089,18.1572266 119.645843,18.6723633 120.041351,18.9897461 C120.436859,19.3071289 120.917816,19.4658203 121.484222,19.4658203 C122.38266,19.4658203 123.210297,19.2021484 123.967132,18.6748047 C124.723968,18.1474609 125.117035,17.1855469 125.146332,15.7890625 L125.146332,15.7890625 L125.146332,14.2363281 Z M14.9882622,9.0507812 C13.767559,9.0507812 12.8276176,9.4829102 12.1684379,10.347168 C11.5092583,11.2114258 11.1796684,12.4443359 11.1796684,14.0458984 C11.1796684,15.6474609 11.5092583,16.8828125 12.1684379,17.7519531 C12.8276176,18.6210938 13.767559,19.0556641 14.9882622,19.0556641 C16.2089653,19.0556641 17.1464653,18.6210938 17.8007622,17.7519531 C18.455059,16.8828125 18.7822075,15.6474609 18.7822075,14.0458984 C18.7822075,12.4443359 18.455059,11.2114258 17.8007622,10.347168 C17.1464653,9.4829102 16.2089653,9.0507812 14.9882622,9.0507812 Z M150.612114,9.2998047 C149.391411,9.2998047 148.495415,9.7612305 147.924126,10.684082 C147.352836,11.6069336 147.067192,12.7519531 147.067192,14.1191406 C147.067192,15.59375 147.357719,16.7729492 147.938774,17.6567383 C148.519829,18.5405273 149.401176,18.9824219 150.582817,18.9824219 C151.764458,18.9824219 152.662895,18.5429688 153.278129,17.6640625 C153.893364,16.7851562 154.200981,15.6474609 154.200981,14.2509766 C154.200981,12.2978516 153.707817,10.9013672 152.721489,10.0615234 C152.11602,9.5537109 151.412895,9.2998047 150.612114,9.2998047 Z M105.286976,9.2998047 C103.822132,9.2998047 102.81139,9.9882812 102.254749,11.3652344 C101.96178,12.0976562 101.815296,13.0009766 101.815296,14.0751953 C101.815296,15.0029297 101.971546,15.828125 102.284046,16.5507812 C102.850452,17.8984375 103.866077,18.5722656 105.330921,18.5722656 C106.307484,18.5722656 107.132679,18.2036133 107.806507,17.4663086 C108.480335,16.7290039 108.817249,15.5546875 108.817249,13.9433594 C108.817249,12.4296875 108.497425,11.2773438 107.857777,10.4863281 C107.218128,9.6953125 106.361195,9.2998047 105.286976,9.2998047 Z M88.606331,8.2597656 C87.395393,8.2597656 86.379768,8.6967773 85.559456,9.5708008 C84.739143,10.4448242 84.304573,11.5556641 84.255745,12.9033203 L84.255745,12.9033203 L92.971565,12.9033203 C92.864143,11.7607422 92.61512,10.8476562 92.224495,10.1640625 C91.501839,8.8945312 90.295784,8.2597656 88.606331,8.2597656 Z M48.217716,9.0507812 C47.250919,9.0507812 46.501408,9.3535156 45.969181,9.9589844 C45.436954,10.5644531 45.102482,11.3847656 44.965763,12.4199219 L44.965763,12.4199219 L51.455021,12.4199219 C51.386661,11.3164062 51.052189,10.4790039 50.451603,9.9077148 C49.851017,9.3364258 49.106388,9.0507812 48.217716,9.0507812 Z M167.951938,9.0507812 C166.985142,9.0507812 166.23563,9.3535156 165.703403,9.9589844 C165.171177,10.5644531 164.836704,11.3847656 164.699985,12.4199219 L164.699985,12.4199219 L171.189243,12.4199219 C171.120884,11.3164062 170.786411,10.4790039 170.185825,9.9077148 C169.585239,9.3364258 168.84061,9.0507812 167.951938,9.0507812 Z" id="Combined-Shape"></path>
        </g>
    </g>
</svg>