<?xml version="1.0" encoding="UTF-8"?>
<svg width="242px" height="256px" viewBox="0 0 242 256" version="1.1" xmlns="http://www.w3.org/2000/svg" xmlns:xlink="http://www.w3.org/1999/xlink">
    <title>Mazda</title>
    <g id="⚛️-2-Atoms" stroke="none" stroke-width="1" fill="none" fill-rule="evenodd">
        <path d="M96.2995717,220.284083 C108.662788,220.284083 107.627592,231.586392 107.604934,231.819429 L107.604572,247.792083 L141.271572,220.285083 L170.900572,220.285083 C184.219042,220.285083 186.015456,228.240555 186.050053,237.912476 L186.050572,238.206083 C186.050572,245.220083 185.129572,255.739083 171.670572,255.739083 L147.151572,255.739083 L147.131572,228.179083 L113.273572,255.739083 L80.6395717,255.730083 C79.0205717,255.730083 69.9855717,256.310083 69.9855717,244.314083 C69.9855717,233.02749 78.8240695,233.602833 80.5845329,233.616841 L96.7805717,233.617083 L96.7801812,231.977493 C96.7721758,231.781288 96.6000601,229.672083 92.8995717,229.672083 L72.3475717,229.672083 L72.3475717,220.284083 L96.2995717,220.284083 Z M58.3995717,220.283083 C69.4955263,220.283083 69.9635511,229.71623 69.9790935,230.14501 L69.9795717,255.738083 L58.8445717,255.738083 L58.8445717,233.363083 L58.8402945,233.335655 C58.7881977,233.021648 58.2225987,230.117083 55.1255717,230.117083 L49.3285717,230.117083 L49.3285717,255.738083 L38.5055717,255.738083 L38.5055717,230.117083 L28.7275717,230.117083 L28.7275717,255.738083 L17.7845717,255.738083 L17.7845717,220.283083 L58.3995717,220.283083 Z M143.955572,245.904083 L143.955572,255.738083 L117.883572,255.738083 L129.731572,245.904083 L143.955572,245.904083 Z M212.113572,220.284083 C224.461943,220.284083 223.43345,231.586392 223.410932,231.819429 L223.410572,255.730083 L196.445572,255.730083 C194.829572,255.730083 185.794572,256.310083 185.794572,244.314083 C185.794572,233.02749 194.633069,233.602833 196.390631,233.616841 L212.594572,233.617083 L212.59418,231.977493 C212.586159,231.781288 212.413688,229.672083 208.705572,229.672083 L188.154572,229.672083 L188.154572,220.284083 L212.113572,220.284083 Z M96.5955717,241.670083 L83.7643286,241.670646 C82.6859078,241.67938 80.9015717,241.823477 80.9015717,244.201083 C80.9015717,246.690295 82.7963008,246.856936 83.8585117,246.86475 L96.5885717,246.865083 L96.5955717,241.670083 Z M212.404572,241.670083 L199.572436,241.670646 C198.494203,241.67938 196.704571,241.823477 196.704571,244.201083 C196.703602,246.690295 198.603944,246.856936 199.666496,246.86475 L212.390572,246.865083 L212.404572,241.670083 Z M167.808572,230.117083 L158.384572,230.117083 L158.384572,245.904083 L167.808572,245.904083 C173.827572,245.904083 175.097572,243.853083 175.097572,238.283083 C175.097572,232.697083 173.826572,230.117083 167.808572,230.117083 Z M136.625572,220.283083 L124.515572,230.116083 L110.177572,230.116083 L110.177572,220.283083 L136.625572,220.283083 Z M170.247572,4.05108303 C175.690572,5.26008303 192.962572,8.63308303 208.466572,20.367083 C210.282572,21.754083 221.970572,30.646083 229.540572,45.556083 C231.188572,48.801083 238.405572,62.524083 240.632572,83.775083 C240.872572,86.059083 242.102572,98.862083 239.757572,113.065083 C239.452572,114.917083 237.345572,130.973083 228.777572,145.473083 C228.269572,146.334083 218.738572,164.963083 198.363572,175.766083 C195.630572,177.214083 182.691572,184.220083 161.616572,188.272083 C158.222572,188.922083 136.900572,193.200083 111.133572,191.907083 C107.605572,191.737083 82.0135717,190.972083 62.5865717,184.745083 C59.2775717,183.684083 39.6315717,178.411083 23.9585717,161.557083 C20.8965717,158.262083 10.5685717,147.411083 4.99057171,129.036083 C4.24757171,126.576083 -0.113428288,111.892083 0.00657171223,92.932083 L0.00621111964,92.7854704 C-0.0059216211,90.9746019 -0.222261621,77.8874497 3.40757171,65.573083 C3.78157171,64.314083 1.35757171,72.974083 4.17057171,62.992083 C6.99157171,53.011083 14.6195717,32.586083 37.0445717,17.555083 C39.8095717,15.701083 55.0085717,6.04508303 78.4375717,2.64508303 C81.4927117,2.19562303 95.9846386,0.0436885952 122.251016,0.000694852562 L124.260026,0.00110948752 C130.399685,0.0175838514 153.180652,0.271723026 170.247572,4.05108303 Z M211.046572,76.261083 C211.046572,76.261083 210.692572,76.615083 210.107572,76.906083 C209.519572,77.203083 204.792572,79.713083 203.652572,80.250083 C199.191572,82.363083 183.950572,86.627083 182.282572,87.121083 C163.320572,92.756083 156.803572,96.588083 154.511572,97.924083 C140.718572,105.969083 135.337572,114.368083 134.023572,115.945083 C127.271572,124.103083 124.273572,135.676083 122.579572,137.960083 C120.825572,140.314083 119.588572,138.610083 119.114572,137.903083 C118.648572,137.196083 116.322572,131.391083 115.884572,130.387083 C111.777572,120.878083 106.538572,114.848083 104.969572,113.067083 C96.5135717,103.502083 88.7725717,99.359083 85.6555717,97.513083 C79.7235717,93.992083 66.1925717,90.198083 64.1705717,89.701083 C59.8225717,88.648083 51.5165717,86.068083 49.2605717,85.361083 C38.5145717,82.017083 30.5895717,77.138083 30.3565717,76.963083 C30.1165717,76.785083 29.6495717,76.672083 29.4165717,77.025083 C29.1835717,77.378083 28.9425717,78.899083 28.8305717,79.903083 C28.7095717,80.900083 28.2505717,84.357083 28.1235717,86.824083 C27.1835717,105.672083 29.6225717,114.212083 30.2935717,117.295083 C34.5845717,136.842083 42.6655717,147.348083 43.6195717,148.705083 C55.0725717,165.021083 72.0465717,170.571083 75.4965717,171.660083 C92.2875717,176.941083 117.235572,176.843083 119.236572,176.885083 C146.121572,177.352083 160.000572,172.772083 162.381572,172.127083 C177.767572,167.956083 188.752572,158.277083 189.679572,157.450083 C198.783572,149.347083 203.097572,139.748083 203.945572,138.015083 C210.111572,125.453083 211.736572,113.122083 212.224572,110.428083 C214.977572,95.221083 212.333572,79.661083 212.220572,78.551083 C211.986572,76.261083 211.046572,76.261083 211.046572,76.261083 Z M101.800572,13.504083 C79.3115717,15.561083 68.3325717,22.078083 66.6355717,23.068083 C47.2015717,34.345083 39.9185717,47.141083 39.4525717,47.848083 C38.9785717,48.547083 39.0425717,48.901083 39.0985717,49.198083 C39.1555717,49.489083 39.5655717,49.489083 40.0385717,49.786083 C40.5045717,50.075083 44.9735717,52.571083 46.4935717,53.427083 C52.2475717,56.651083 61.3535717,60.454083 63.3405717,61.232083 C77.3735717,66.690083 82.6535717,69.334083 85.7725717,70.918083 C100.448572,78.377083 107.384572,87.786083 109.307572,89.998083 C112.424572,93.576083 119.346572,104.499083 119.876572,105.206083 C120.406572,105.905083 121.071572,105.658083 121.522572,104.909083 C128.741572,92.876083 134.643572,86.393083 135.493572,85.361083 C143.473572,75.675083 158.567572,68.938083 159.911572,68.338083 C165.554572,65.814083 178.731572,60.695083 180.696572,59.883083 C196.370572,53.428083 201.940572,48.613083 201.891892,48.493083 C197.466572,39.498083 186.563572,30.938083 185.037572,29.707083 C169.541572,17.201083 150.183572,14.797083 146.826572,14.211083 C126.684572,10.683083 105.773572,13.136083 101.800572,13.504083 Z" id="Mazda" fill="#FFFFFF" fill-rule="nonzero"></path>
    </g>
</svg>