<?xml version="1.0" encoding="UTF-8"?>
<svg width="80px" height="19px" viewBox="0 0 80 19" version="1.1" xmlns="http://www.w3.org/2000/svg" xmlns:xlink="http://www.w3.org/1999/xlink">
    <title>Combined Shape</title>
    <g id="✨Symbols" stroke="none" stroke-width="1" fill="none" fill-rule="evenodd">
        <g id="01-Base-/-Logos-/-Kia" transform="translate(0.000000, -30.000000)" fill="#FFFFFF" fill-rule="nonzero">
            <path d="M7.84457143,39.4153143 C8.11657143,39.4153143 8.34971429,39.4153143 8.62171429,39.4537143 L8.62171429,39.4537143 C8.62066883,39.4554978 8.62008076,39.4568243 8.61949294,39.458151 C9.84859309,39.5781987 11.00063,39.9267317 12.0388571,40.5042286 C14.7186286,41.9830857 16.5435429,44.8233143 16.5435429,48.0521143 L16.5435429,48.0521143 L8.42742857,48.0521143 C8,47.0016 7.728,45.8738286 7.65028571,44.6674286 L7.653,44.705 C7.64915156,44.6987904 7.64805051,44.6908707 7.64698159,44.6829828 C6.57233578,45.140536 5.42145282,45.3677714 4.23314286,45.3677714 C2.67977143,45.3677714 1.24297143,44.9787429 0,44.2784 C1.4368,41.3993143 4.42742857,39.4153143 7.84457143,39.4153143 Z M60.3108571,36.6532571 C61.0098286,36.6532571 61.5922286,36.8864 62.0580571,37.3924571 C62.5243429,37.8980571 62.7574857,38.5206857 62.7574857,39.3376 C62.7574857,40.1152 62.5243429,40.7766857 62.0580571,41.2822857 C61.5922286,41.7888 61.0098286,42.0603429 60.3108571,42.0603429 C59.8834286,42.0603429 59.5337143,41.9830857 59.2233143,41.7888 C58.9124571,41.5940571 58.6793143,41.3216 58.4854857,41.0102857 L58.4854857,44.4726857 L57.3979429,44.4726857 L57.3979429,36.7309714 L58.4854857,36.7309714 L58.4854857,37.664 C58.6797714,37.3531429 58.9124571,37.12 59.2233143,36.9252571 C59.5341714,36.7309714 59.8834286,36.6532571 60.3108571,36.6532571 Z M71.728,36.6528 C72.3497143,36.6528 72.8155429,36.8082286 73.1652571,37.1195429 C73.5145143,37.4308571 73.7088,37.8198857 73.7476571,38.3648 L72.6212571,38.3648 C72.6212571,38.0923429 72.5046857,37.8976 72.3497143,37.7421714 C72.1942857,37.5867429 71.9611429,37.5090286 71.6891429,37.5090286 C71.4427162,37.5082591 71.2008535,37.5754871 70.9901714,37.7033143 C70.8347429,37.8198857 70.7570286,38.0141714 70.7570286,38.2089143 C70.7570286,38.4036571 70.8736,38.5979429 71.0678857,38.7149714 C71.2621714,38.8315429 71.5341714,38.9092571 71.8450286,38.9869714 C72.1554286,39.0262857 72.4269714,39.104 72.7378286,39.1817143 C73.0486857,39.2594286 73.2818286,39.4148571 73.5149714,39.6489143 C73.7476571,39.8820571 73.8253714,40.1545143 73.8253714,40.5435429 C73.8253714,41.0107429 73.6310857,41.3604571 73.2425143,41.6329143 C72.8539429,41.9049143 72.3885714,42.0608 71.7668571,42.0608 C71.1844571,42.0608 70.6797714,41.9053714 70.3300571,41.6329143 C69.9414857,41.3604571 69.7476571,40.9325714 69.7083429,40.3876571 L70.8347429,40.3876571 C70.8347429,40.6601143 70.9513143,40.8548571 71.1067429,41.0107429 C71.2621714,41.1661714 71.4953143,41.2438857 71.8061714,41.2438857 C72.1165714,41.2438857 72.3497143,41.1661714 72.5046857,41.0491429 C72.6601143,40.9325714 72.7766857,40.7382857 72.7766857,40.5435429 C72.7766857,40.3099429 72.6601143,40.1545143 72.4658286,40.0379429 C72.272,39.9209143 72,39.8436571 71.6891429,39.7654857 C71.3782857,39.6877714 71.1067429,39.6489143 70.7963429,39.5707429 C70.4854857,39.4930286 70.2523429,39.3376 70.0192,39.1428571 C69.8253714,38.8704 69.7083429,38.5590857 69.7083429,38.2477714 C69.7088,37.8198857 69.9030857,37.4308571 70.2528,37.1195429 C70.6409143,36.8086857 71.1067429,36.6528 71.728,36.6528 Z M24.5046857,36.6532571 C24.9321143,36.6532571 25.2818286,36.7309714 25.5926857,36.9252571 C25.9030857,37.12 26.1357714,37.3531429 26.3300571,37.664 L26.3300571,36.7309714 L27.4176,36.7309714 L27.4176,41.9437714 L26.3300571,41.9437714 L26.3300571,40.9714286 C26.1357714,41.2827429 25.9030857,41.5552 25.5922286,41.7499429 C25.2813714,41.9442286 24.9321143,42.0224 24.5046857,42.0224 C23.8057143,42.0224 23.2233143,41.7892571 22.7574857,41.2827429 C22.2912,40.7766857 22.0580571,40.1152 22.0580571,39.3376 C22.0580571,38.5595429 22.2912,37.8976 22.7574857,37.3924571 C23.2237714,36.8859429 23.8057143,36.6532571 24.5046857,36.6532571 Z M77.2818286,36.6528 C78.0585143,36.6528 78.6409143,36.8859429 79.1456,37.3531429 C79.6118857,37.8198857 79.8445714,38.4425143 79.8445714,39.1817143 C79.8445714,39.3764571 79.8445714,39.5318857 79.8061714,39.6873143 L75.7284571,39.6873143 C75.7668571,40.1156571 75.8838857,40.4658286 76.1549714,40.7378286 C76.4269714,41.0102857 76.7766857,41.1268571 77.1652571,41.1268571 C77.7476571,41.1268571 78.1746286,40.8937143 78.4077714,40.3876571 L79.5730286,40.3876571 C79.4210908,40.8586642 79.1213,41.268111 78.7181714,41.5552 C78.3300571,41.8660571 77.7860571,42.0214857 77.2036571,42.0214857 C76.4662857,42.0219429 75.8445714,41.7888 75.3782857,41.2827429 C74.9129143,40.7766857 74.6793143,40.1545143 74.6793143,39.3376 C74.6793143,38.5945351 74.8719943,37.9803013 75.2865484,37.5240926 L75.4176,37.392 C75.8838857,36.8864 76.5051429,36.6528 77.2818286,36.6528 Z M53.8642286,36.6528 C54.6413714,36.6528 55.2233143,36.8859429 55.728,37.3531429 C56.1942857,37.8198857 56.4274286,38.4425143 56.4274286,39.1817143 C56.4274286,39.3764571 56.4274286,39.5318857 56.3885714,39.6873143 L52.3885714,39.6873143 C52.4269714,40.1156571 52.5435429,40.4658286 52.8155429,40.7378286 C53.0875429,41.0102857 53.4368,41.1268571 53.8249143,41.1268571 C54.4077714,41.1268571 54.8352,40.8937143 55.0678857,40.3876571 L56.2326857,40.3876571 C56.0812815,40.8588114 55.7815696,41.2683696 55.3782857,41.5552 C54.9129143,41.8660571 54.3689143,42.0214857 53.7860571,42.0214857 C53.0482286,42.0219429 52.4269714,41.7888 51.9611429,41.2827429 C51.4948571,40.7766857 51.2617143,40.1545143 51.2617143,39.3376 C51.2617143,38.5202286 51.4948571,37.8587429 52.0004571,37.392 C52.4658286,36.8864 53.0875429,36.6528 53.8642286,36.6528 Z M34.7186286,36.6528 C35.4953143,36.6528 36.0777143,36.8859429 36.5824,37.3531429 C37.0486857,37.8198857 37.2818286,38.4425143 37.2818286,39.1817143 C37.2818286,39.3764571 37.2818286,39.5318857 37.2425143,39.6873143 L33.2036571,39.6873143 C33.2425143,40.1156571 33.3590857,40.4658286 33.6310857,40.7378286 C33.9030857,41.0102857 34.2528,41.1268571 34.6409143,41.1268571 C35.2233143,41.1268571 35.6502857,40.8937143 35.8834286,40.3876571 L37.0486857,40.3876571 C36.8968951,40.8587393 36.5970732,41.2682286 36.1938286,41.5552 C35.7668571,41.8660571 35.2621714,42.0214857 34.6409143,42.0214857 C33.9030857,42.0219429 33.2813714,41.7888 32.8155429,41.2827429 C32.3492571,40.7766857 32.1161143,40.1545143 32.1161143,39.3376 C32.1161143,38.5202286 32.3492571,37.8587429 32.8544,37.392 C33.3206857,36.8864 33.9414857,36.6528 34.7186286,36.6528 Z M19.0290286,35.3691429 C19.8061714,35.3691429 20.3885714,35.5634286 20.7766857,35.9136 C21.1652571,36.2637714 21.3984,36.7305143 21.3984,37.3142857 C21.3984,37.8587429 21.2036571,38.3259429 20.8155429,38.7149714 C20.4269714,39.1035429 19.8445714,39.2982857 19.0678857,39.2982857 L17.8642286,39.2982857 L17.8642286,41.9830857 L16.7766857,41.9830857 L16.7766857,35.3691429 L19.0290286,35.3691429 Z M50.5632,36.6139429 L50.5632,37.7421714 L50.2912,37.7421714 C49.8642286,37.7421714 49.5529143,37.8587429 49.3206857,38.0530286 C49.0875429,38.2870857 49.0098286,38.6372571 49.0098286,39.1817143 L49.0098286,41.9442286 L47.9222857,41.9442286 L47.9222857,36.7305143 L49.0098286,36.7305143 L49.0098286,37.6256 C49.3590857,36.9641143 49.8642286,36.6139429 50.5632,36.6139429 Z M41.0486857,36.6528 C41.6310857,36.6528 42.1357714,36.8475429 42.4854857,37.2365714 C42.8740571,37.6251429 43.0678857,38.1700571 43.0678857,38.8704 L43.0678857,41.9442286 L41.9803429,41.9442286 L41.9803429,39.0262857 C41.9803429,38.5590857 41.8642286,38.2089143 41.6310857,37.9369143 C41.3979429,37.7033143 41.0870857,37.5478857 40.6601143,37.5478857 C40.2715429,37.5478857 39.9222857,37.6644571 39.6891429,37.9364571 C39.456,38.1700571 39.3398857,38.5590857 39.3398857,39.0262857 L39.3398857,41.9442286 L38.2523429,41.9442286 L38.2523429,36.7305143 L39.3787429,36.7305143 L39.3782857,37.5478857 C39.728,36.9252571 40.272,36.6528 41.0486857,36.6528 Z M31.4564571,36.6139429 L31.4564571,37.7421714 L31.1844571,37.7421714 C30.7574857,37.7421714 30.4466286,37.8587429 30.2134857,38.0530286 C29.9803429,38.2870857 29.9026286,38.6372571 29.9026286,39.1817143 L29.9026286,41.9442286 L28.8155429,41.9442286 L28.8155429,36.7305143 L29.9030857,36.7305143 L29.9030857,37.6256 C30.2523429,36.9641143 30.7574857,36.6139429 31.4564571,36.6139429 Z M66.4466286,36.6139429 L66.4466286,37.7421714 L66.1750857,37.7421714 C65.7472,37.7421714 65.4368,37.8587429 65.2041143,38.0530286 C64.9709714,38.2870857 64.8932571,38.6372571 64.8932571,39.1817143 L64.8932571,41.9442286 L63.8052571,41.9442286 L63.8052571,36.7305143 L64.8932571,36.7305143 L64.8932571,37.6256 C65.2425143,36.9641143 65.7472,36.6139429 66.4466286,36.6139429 Z M68.544,36.7305143 L68.544,41.9442286 L67.456,41.9442286 L67.456,36.7305143 L68.544,36.7305143 Z M45.6694857,35.4468571 L45.6694857,36.7309714 L46.9517714,36.7309714 L46.9517714,37.6256 L45.6694857,37.6256 L45.6694857,40.5042286 C45.6694857,40.6989714 45.7088,40.8548571 45.8253714,40.9325714 C45.9030857,41.0102857 46.0580571,41.0491429 46.2916571,41.0491429 L46.9517714,41.0491429 L46.9517714,41.9442286 L46.0969143,41.9442286 C45.0870857,41.9442286 44.5824,41.4770286 44.5824,40.5042286 L44.5824,37.6256 L43.9611429,37.6256 L43.9611429,36.7309714 L44.5824,36.7309714 L44.5824,35.4468571 L45.6694857,35.4468571 Z M24.7378286,37.5867429 C24.3108571,37.5867429 23.9222857,37.7421714 23.6118857,38.0530286 C23.3010286,38.3648 23.1456,38.7926857 23.1456,39.3376 C23.1456,39.8820571 23.3010286,40.3099429 23.6118857,40.6212571 C23.9227429,40.9325714 24.3108571,41.1273143 24.7378286,41.1273143 C25.1652571,41.088 25.5533714,40.9325714 25.8642286,40.6212571 C26.1750857,40.3099429 26.3305143,39.8820571 26.3305143,39.3376 C26.3305143,38.7926857 26.1750857,38.3648 25.8642286,38.0530286 C25.5678661,37.7507832 25.1611064,37.5824005 24.7378286,37.5867429 Z M60.0388571,37.5867429 C59.6114286,37.5867429 59.2233143,37.7421714 58.9124571,38.0530286 C58.6016,38.3648 58.4461714,38.7926857 58.4461714,39.3376 C58.4461714,39.8820571 58.6016,40.3099429 58.9124571,40.6212571 C59.2233143,40.9325714 59.6118857,41.0875429 60.0388571,41.0875429 C60.5051429,41.0875429 60.8544,40.9325714 61.1652571,40.6212571 C61.4761143,40.3099429 61.6310857,39.8820571 61.6310857,39.3376 C61.6310857,38.7926857 61.4756571,38.3648 61.1648,38.0530286 C60.8685479,37.7508982 60.4619768,37.5825253 60.0388571,37.5867429 Z M77.2036571,37.5478857 C76.8150857,37.5478857 76.4662857,37.6644571 76.1942857,37.9364571 C75.9222857,38.2089143 75.7668571,38.5202286 75.728,38.9481143 L78.6020571,38.9481143 C78.6409143,38.5595429 78.4850286,38.2089143 78.2134857,37.9369143 C77.9419429,37.6644571 77.5922286,37.5478857 77.2036571,37.5478857 Z M53.7860571,37.5478857 C53.3974857,37.5478857 53.0482286,37.6644571 52.7771429,37.9364571 C52.5051429,38.2089143 52.3492571,38.5202286 52.3108571,38.9481143 L55.1844571,38.9481143 C55.2233143,38.5595429 55.0678857,38.2089143 54.7958857,37.9369143 C54.5243429,37.6644571 54.1741714,37.5478857 53.7860571,37.5478857 Z M34.6797714,37.5478857 C34.2912,37.5478857 33.9414857,37.6644571 33.6694857,37.9364571 C33.3979429,38.2089143 33.2425143,38.5202286 33.2036571,38.9481143 L36.1165714,38.9481143 C36.1165714,38.5595429 35.9611429,38.2089143 35.6891429,37.9369143 C35.4176,37.6644571 35.0678857,37.5478857 34.6797714,37.5478857 Z M8.73782857,30 C9.24251429,30 9.7088,30.0777143 10.1357714,30.2331429 C11.8057143,30.8169143 13.0486857,32.4123429 13.0486857,34.3186286 L13.0486857,34.3186286 L13.0486857,34.5129143 L13.0486857,34.5129143 L13.0359406,34.7227502 C13.0036114,35.0017463 12.9165714,35.2758857 12.8544,35.5245714 C12.3497143,37.2365714 10.8352,38.5202286 9.00982857,38.6368 L9.00982857,38.6368 L8.73782857,38.6368 C6.33005714,38.6368 4.38857143,36.6916571 4.42697143,34.3574857 C4.42697143,31.9451429 6.33005714,30 8.73782857,30 Z M19.0678857,36.1860571 L17.8642286,36.1860571 L17.8642286,38.4425143 L19.0678857,38.4425143 C19.4953143,38.4425143 19.7673143,38.3259429 20,38.1316571 C20.1942857,37.9369143 20.3108571,37.6644571 20.3108571,37.3142857 C20.3108571,36.9641143 20.1942857,36.6916571 20,36.4973714 C19.8057143,36.3026286 19.4953143,36.1860571 19.0678857,36.1860571 Z M67.9611429,34.6688 C68.1554286,34.6688 68.3108571,34.7465143 68.4658286,34.8630857 C68.6212571,34.9801143 68.6601143,35.1744 68.6601143,35.3691429 C68.6601143,35.5634286 68.5824,35.7193143 68.4658286,35.8747429 C68.3497143,35.9913143 68.1549714,36.0694857 67.9611429,36.0694857 C67.7668571,36.0694857 67.6114286,35.9917714 67.4564571,35.8747429 C67.3398857,35.7581714 67.2621714,35.5638857 67.2621714,35.3691429 C67.2621714,35.1744 67.3398857,35.0189714 67.4564571,34.8630857 C67.5730286,34.7465143 67.7673143,34.6688 67.9611429,34.6688 Z" id="Combined-Shape"></path>
        </g>
    </g>
</svg>