<?xml version="1.0" encoding="UTF-8"?>
<svg width="80px" height="67px" viewBox="0 0 80 67" version="1.1" xmlns="http://www.w3.org/2000/svg" xmlns:xlink="http://www.w3.org/1999/xlink">
    <title>Sheraton</title>
    <g id="✨Symbols" stroke="none" stroke-width="1" fill="none" fill-rule="evenodd">
        <g id="01-Base-/-Logos-/-Sheraton" transform="translate(0.000000, -6.000000)" fill="#FFFFFF" fill-rule="nonzero">
            <path d="M4.661,59.252 C5.37533333,59.2346667 6.041,59.369 6.673,59.551 C7.23933333,59.718 8.63766667,60.466 8.87033333,60.466 C9.20233333,60.466 9.30366667,60.301 9.33633333,59.551 L9.818,59.551 L9.818,63.612 L9.33633333,63.612 C8.77,61.3326667 6.923,59.8176667 4.67633333,59.8176667 C2.646,59.8176667 1.631,60.7663333 1.631,61.9143333 C1.631,63.828 4.027,63.5953333 6.15766667,63.7953333 C8.85366667,64.0453333 10.617,65.2263333 10.617,67.9736667 C10.617,70.5193333 8.53633333,72.266 5.42433333,72.266 C4.576,72.266 3.84466667,72.1653333 3.24433333,71.9503333 C2.346,71.634 1.61333333,71.051 1.09733333,71.051 C0.749,71.051 0.531666667,71.334 0.465333333,71.9503333 L3.12638804e-13,71.9503333 L3.12638804e-13,67.4893333 L0.465333333,67.4893333 C1.164,70.2363333 2.81233333,71.684 5.30866667,71.684 C7.722,71.684 8.96966667,70.7683333 8.96966667,69.3033333 C8.96966667,67.823 7.95366667,67.4063333 4.39366667,67.223 C1.597,67.0743333 0.150666667,65.6083333 0.150666667,63.313 C0.150666667,60.9833333 1.99666667,59.252 4.50966667,59.252 L4.661,59.252 Z M63.158,62.7636667 C66.2536667,62.7636667 68.084,64.5933333 68.084,67.6233333 C68.0843333,70.6343333 66.0203333,72.266 63.1753333,72.266 C60.3616667,72.266 58.2316667,70.634 58.2316667,67.6233333 C58.2316667,64.5933333 60.3616667,62.7636667 63.158,62.7636667 Z M55.3223333,59.9846667 L55.3223333,63.063 L56.9686667,63.063 L56.9686667,63.645 L55.3223333,63.645 L55.3223333,70.003 C55.3223333,70.8013333 55.7536667,71.2006667 56.3366667,71.2006667 C56.903,71.2006667 57.3516667,70.5513333 57.3516667,69.288 L57.3516667,69.1036667 L57.8516667,69.1036667 L57.8516667,69.37 C57.8516667,71.683 56.7873333,72.266 55.0723333,72.266 C53.3576667,72.266 52.4756667,71.683 52.4756667,69.37 L52.4756667,63.645 L51.394,63.645 L51.394,63.063 C53.0586667,63.063 54.2726667,61.8643333 54.64,59.9846667 L55.3223333,59.9846667 Z M27.5853333,62.7626667 C30.3663333,62.7626667 31.8623333,64.6106667 31.946,67.4903333 L25.4383333,67.4903333 C25.4383333,70.087 26.4873333,71.4516667 28.2013333,71.4516667 C29.3486667,71.4516667 31.4463333,70.7183333 31.4463333,68.521 L31.4463333,68.472 L31.9463333,68.472 L31.9463333,68.5886667 C31.9463333,70.536 30.332,72.2663333 27.469,72.2663333 C24.623,72.266 22.5433333,70.635 22.5433333,67.6223333 C22.5433333,64.5933333 24.6226667,62.7626667 27.5853333,62.7626667 Z M45.522,62.7626667 C49.084,62.7626667 49.7496667,64.0276667 49.7496667,66.69 L49.7496667,70.0036667 C49.7496667,70.7513333 49.7996667,71.1993333 50.399,71.1993333 C50.981,71.1993333 51.1643333,70.552 51.1643333,69.2866667 L51.1643333,69.1023333 L51.6476667,69.1023333 L51.6476667,69.3696667 C51.6476667,71.9666667 50.566,72.2656667 49.084,72.2656667 C48.0366667,72.2656667 47.321,71.8166667 46.954,70.7853333 C46.4706667,71.7496667 45.2073333,72.2656667 43.958,72.2656667 C41.745,72.2656667 40.8796667,71.151 40.8796667,69.7526667 C40.8796667,67.3063333 43.459,67.323 45.256,66.8396667 C46.2896667,66.5576667 46.7873333,66.0253333 46.7873333,65.1923333 C46.7873333,64.0443333 45.9393333,63.3783333 44.6406667,63.3783333 C43.91,63.3783333 43.226,63.695 42.86,63.9786667 C43.5477134,64.0286818 44.0787828,64.6034847 44.0743333,65.293 C44.0743333,66.0416667 43.476,66.607 42.7436667,66.607 C41.8453333,66.607 41.3956667,65.9256667 41.3956667,65.092 C41.3956667,63.6783333 43.0426667,62.7626667 45.522,62.7626667 Z M75.1083333,62.7636667 C78.0526667,62.7636667 78.9016667,64.2113333 78.9016667,66.0253333 L78.9016667,71.3673333 L80,71.3673333 L80,71.95 L74.924,71.9503333 L74.924,71.3676667 L76.0066667,71.3676667 L76.0066667,65.4263333 C76.0066667,64.245 75.423,63.562 74.3083333,63.562 C73.3926667,63.562 72.3773333,64.5106667 72.3773333,65.4263333 L72.3773333,71.3676667 L73.4763333,71.3676667 L73.4763333,71.9503333 L68.4,71.9503333 L68.4,71.3676667 L69.4816667,71.3676667 L69.4816667,63.645 L68.4,63.645 L68.4,63.063 L72.3776667,63.063 L72.3776667,63.9623333 C72.944,63.313 73.7433333,62.7636667 75.1083333,62.7636667 Z M14.8743333,59.5513333 L14.8743333,63.9623333 C15.4406667,63.313 16.2386667,62.7636667 17.6033333,62.7636667 C20.5493333,62.7636667 21.3986667,64.2113333 21.3986667,66.0253333 L21.3986667,71.3673333 L22.496,71.3673333 L22.496,71.95 L17.42,71.95 L17.42,71.3676667 L18.5026667,71.3676667 L18.5026667,65.4263333 C18.5026667,64.245 17.9196667,63.562 16.8053333,63.562 C15.8886667,63.562 14.8746667,64.5106667 14.8746667,65.4263333 L14.8746667,71.3676667 L15.9726667,71.3676667 L15.9726667,71.9503333 L10.8966667,71.9503333 L10.8966667,71.3676667 L11.9783333,71.3676667 L11.9783333,60.1343333 L10.8966667,60.1343333 L10.8966667,59.5513333 L14.8743333,59.5513333 Z M38.8683333,62.7636667 C39.7666667,62.7636667 40.832,63.3453333 40.832,64.8103333 C40.832,65.5593333 40.2163333,66.1586667 39.4676667,66.1586667 C38.7353333,66.1586667 38.136,65.5593333 38.136,64.8103333 C38.1356667,64.078 38.735,63.4613333 39.4673333,63.4613333 C39.5166667,63.4613333 39.5503333,63.4613333 39.5996667,63.4796667 C39.4336667,63.3783333 39.2346667,63.28 38.9676667,63.28 C36.9383333,63.28 36.255,65.2763333 36.255,67.2236667 L36.255,71.3666667 L37.3523333,71.3666667 L37.3523333,71.9493333 L32.2773333,71.9493333 L32.2773333,71.3666667 L33.36,71.3666667 L33.36,63.645 L32.2773333,63.645 L32.2773333,63.063 L36.255,63.063 L36.255,63.9623333 C36.8213333,63.312 37.5036667,62.7636667 38.8683333,62.7636667 Z M63.1583333,63.279 C61.6943333,63.279 61.1123333,64.8606667 61.1123333,67.6233333 C61.1123333,70.419 61.6943333,71.734 63.1583333,71.734 C64.523,71.734 65.206,70.419 65.206,67.6233333 C65.2056667,64.8606667 64.5226667,63.279 63.1583333,63.279 Z M46.6876667,66.807 C46.4876667,67.024 46.021,67.273 45.44,67.5393333 C44.091,68.155 43.7753333,68.621 43.7753333,69.6853333 C43.7753333,70.602 44.1423333,71.4513333 45.107,71.4513333 C45.8723333,71.4513333 46.6876667,70.7013333 46.6876667,69.9526667 L46.6876667,66.807 Z M27.552,63.28 C26.371,63.28 25.455,65.1093333 25.455,66.9073333 L29.3996667,66.9073333 C29.3996667,65.1093333 29.1333333,63.28 27.552,63.28 Z M39.8733333,50.4486667 C40.6156667,50.4486667 41.218,51.0506667 41.218,51.794 C41.218,52.5373333 40.1206667,53.7046667 39.8733333,54.378 C39.66,53.7046667 38.529666,52.537 38.529666,51.794 C38.5293129,51.4373758 38.6707105,51.0952321 38.9227256,50.8429043 C39.1747408,50.5905766 39.516709,50.4487549 39.8733333,50.4486667 Z M31.5923333,44.9966667 C31.2733333,44.716 31.7683333,44.3976667 32.831,44.821 C34.8476667,45.563 36.5103333,47.1566667 37.8556667,49.0693333 C38.2096667,49.5646667 38.7056667,49.7763333 38.7393333,50.0936667 C38.7393333,50.412 37.749,50.379 37.148,50.66 C34.7043333,51.758 32.6896667,52.218 30.423,51.1216667 C29.9986667,50.909 29.6466667,50.6956667 29.4706667,50.485 C28.795,49.7406667 29.3613333,49.7763333 29.5393333,49.8463333 C30.4613333,50.2713333 31.5923333,49.953 31.981,49.8463333 C32.6896667,49.6696667 33.7523333,49.1376667 35.0593333,49.1376667 C34.5646667,48.9983333 34.105,48.6436667 33.786,48.2903333 C32.759,47.122 32.3703333,45.742 31.5923333,44.9966667 Z M48.1573333,44.9966667 C47.3773333,45.742 47.0236667,47.122 45.9626667,48.2903333 C45.6443333,48.6436667 45.1816667,48.9983333 44.6863333,49.1376667 C45.9953333,49.1376667 47.057,49.6696667 47.8013333,49.8463333 C48.1916667,49.953 49.2873333,50.2713333 50.211,49.8463333 C50.386,49.7763333 50.9536667,49.7406667 50.2783333,50.485 C50.1006667,50.6956667 49.7483333,50.909 49.3253333,51.1216667 C47.057,52.218 45.043,51.758 42.637,50.66 C41.997,50.379 41.0063333,50.412 41.04,50.0936667 C41.04,49.7763333 41.5353333,49.5646667 41.891,49.0693333 C43.2373333,47.1566667 44.901,45.563 46.9186667,44.821 C47.9776667,44.3976667 48.4773333,44.716 48.1573333,44.9966667 Z M39.8733333,45.564 C40.1206667,46.2373333 41.218,47.3683333 41.218,48.1116667 C41.218,48.855 40.6156667,49.458 39.8733333,49.458 C39.5165899,49.457735 39.1745728,49.3157193 38.9225673,49.0632136 C38.6705617,48.8107079 38.5292244,48.4684099 38.5296656,48.1116667 C38.5296656,47.3686667 39.66,46.2373333 39.8733333,45.564 Z M53.1823333,41.4233333 C52.7216667,42.3446667 52.8266667,43.7256667 52.2626667,45.14 C52.0826667,45.5633333 51.768,46.0246667 51.3783333,46.3423333 C52.579,45.919 53.7116667,46.025 54.4546667,45.954 C54.8453333,45.8836667 55.978,45.8473333 56.6503333,45.175 C56.7926667,45.0353333 57.2886667,44.7873333 56.9323333,45.7423333 C56.861,45.954 56.614,46.2383333 56.2983333,46.5903333 C54.5606667,48.36 52.579,48.608 50.0303333,48.3956667 C49.359,48.36 48.2956667,48.608 48.1913333,48.29 C48.1203333,48.007 48.654,47.7243333 48.829,47.1926667 C49.43,44.997 50.387,42.9813333 51.9783333,41.635 C52.7926667,40.9293333 53.392,41.0696667 53.1823333,41.4233333 Z M26.5646667,41.4233333 C26.355,41.0696667 26.9553333,40.9293333 27.7706667,41.635 C29.3613333,42.9813333 30.317,44.997 30.919,47.1926667 C31.0963333,47.7243333 31.628,48.007 31.5566667,48.29 C31.4856667,48.608 30.3893333,48.36 29.7163333,48.3956667 C27.1686667,48.608 25.186,48.36 23.452,46.5903333 C23.1326667,46.2383333 22.8853333,45.954 22.8153333,45.7423333 C22.4613333,44.7873333 22.9566667,45.0353333 23.097,45.175 C23.8063333,45.8473333 24.902,45.8836667 25.2923333,45.954 C26.0356667,46.025 27.1683333,45.919 28.3696667,46.3423333 C27.9803333,46.0246667 27.665,45.5633333 27.486,45.14 C26.9213333,43.7256667 27.0263333,42.3446667 26.5646667,41.4233333 Z M22.6383333,36.364 C22.531,35.938 23.132,35.9736667 23.63,36.894 C24.7263333,38.5566667 25.0453333,40.681 25.01,42.839 C24.9743333,43.4063333 25.433,43.8303333 25.257,44.0436667 C25.1163333,44.292 24.1596667,43.7956667 23.5586667,43.618 C21.1506667,43.1226667 19.382,42.307 18.3203333,40.257 C18.108,39.7953333 17.9663333,39.4433333 17.931,39.228 C17.8963333,38.274 18.2856667,38.628 18.3906667,38.804 C18.7804615,39.4930513 19.5234714,39.8520375 19.979338,40.0544268 L20.1956667,40.1503333 C20.8313333,40.3973333 21.9293333,40.61 22.8853333,41.3533333 C22.6383333,40.9626667 22.4613333,40.4676667 22.425,40.007 C22.319,38.5566667 22.7786667,37.319 22.6383333,36.364 Z M57.1123333,36.364 C56.969,37.319 57.426,38.5566667 57.3223333,40.007 C57.2876667,40.4676667 57.1126667,40.9626667 56.86,41.3533333 C57.8186667,40.61 58.914,40.3973333 59.5543333,40.1503333 C59.941,39.9716667 60.9326667,39.6183333 61.3576667,38.804 C61.4633333,38.628 61.8526667,38.274 61.82,39.228 C61.782,39.4433333 61.6433333,39.7953333 61.4296667,40.257 C60.367,42.307 58.5976667,43.1226667 56.1886667,43.618 C55.5883333,43.7956667 54.6316667,44.292 54.494,44.0436667 C54.3506667,43.8303333 54.775,43.4063333 54.74,42.839 C54.703,40.681 55.022,38.5566667 56.1173333,36.894 C56.6503333,35.9736667 57.2176667,35.938 57.1123333,36.364 Z M43.2,15.0203333 C44.723,15.3383333 45.748,16.152 47.1673333,16.579 C47.9443333,16.86 48.6156667,16.507 48.9003333,15.8693333 C49.0396667,15.5883333 49.109,15.4096667 49.109,15.1276667 L50.139,15.1276667 L50.139,23.445 L49.3963333,23.445 C48.1203333,19.9743333 44.938,16.6123333 41.2176667,15.7996667 C37.539,15.2333333 33.2566667,15.3033333 31.1326667,18.524 C30.5296667,19.4076667 30.848,21.2136667 31.9806667,21.8513333 C35.7676667,24.1523333 39.9076667,23.089 44.938,23.7976667 C47.4816667,24.1523333 50.2783333,25.6026667 51.411,28.4346667 C52.511,31.159 52.2976667,33.9556667 51.2003333,35.796 C48.6153333,40.219 43.8033333,40.6446667 40.722,40.6446667 C37.5013333,40.6446667 34.28,39.158 31.7323333,38.2366667 C30.9553333,37.9566667 30.282,38.3086667 29.9983333,38.9463333 C29.856,39.2283333 29.7856667,39.4426667 29.7856667,39.6896667 L28.7603333,39.6896667 L28.7603333,30.9116667 C29.0433333,30.9116667 29.3606667,30.9116667 29.7856667,30.947 C30.7763333,34.9813333 33.9613333,37.9573333 37.1473333,38.876 C40.8293333,39.9716667 44.5086667,39.7953333 47.3763333,37.778 C48.509,37 48.9343333,35.3016667 48.509,33.815 C47.8716667,31.584 44.4366667,30.983 41.9603333,30.9473333 C36.652,30.807 30.2126667,30.8773333 28.3,25.037 C27.5576667,22.2403333 28.0173333,19.1613333 30.033,17.0743333 C33.3613333,13.8173333 38.9533333,13.7123333 43.2,15.0203333 Z M58.9136667,30.699 C59.0943333,31.6193333 59.9053333,32.6126667 60.1906667,33.9916667 C60.3333333,34.3793333 60.3333333,34.9126667 60.191,35.337 C60.8623333,34.3793333 61.7816667,33.8503333 62.3143333,33.4243333 C62.5963333,33.1763333 63.377,32.5406667 63.552,31.655 C63.586,31.478 63.835,31.0546667 64.081,31.9386667 C64.1203333,32.1503333 64.081,32.505 64.048,32.9656667 C63.695,35.194 62.276,36.4333333 60.2613333,37.6016667 C59.7283333,37.9563333 59.0233333,38.6633333 58.8456667,38.521 C58.633,38.345 58.881,37.8486667 58.7043333,37.3536667 C58.031,35.3726667 57.6753333,33.3193333 58.1696667,31.478 C58.4176667,30.4873333 58.9136667,30.3113333 58.9136667,30.699 Z M20.831,30.699 C20.831,30.3113333 21.3636667,30.4873333 21.577,31.478 C22.0713333,33.3193333 21.753,35.3726667 21.0443333,37.3536667 C20.8676667,37.8486667 21.1503333,38.345 20.9386667,38.521 C20.7243333,38.6633333 20.0193333,37.9563333 19.4866667,37.6016667 C17.471,36.4333333 16.089,35.194 15.736,32.9656667 C15.665,32.505 15.665,32.1503333 15.665,31.9386667 C15.914,31.0546667 16.1613333,31.478 16.2323333,31.655 C16.373,32.5406667 17.1526667,33.1763333 17.471,33.4243333 C17.9673333,33.8503333 18.8856667,34.3793333 19.557,35.337 C19.453,34.9126667 19.453,34.3793333 19.5566667,33.9916667 C19.877,32.6126667 20.656,31.6193333 20.831,30.699 Z M63.5863333,24.2243333 C63.6956667,24.4003333 63.7623333,24.7523333 63.8716667,25.1436667 C64.2956667,27.197 63.4813333,28.754 62.1713333,30.4886667 C61.782,30.9473333 61.4296667,31.8696667 61.2146667,31.762 C60.9666667,31.69 61.0386667,31.16 60.7186667,30.807 C59.4486667,29.284 58.49,27.5853333 58.3143333,25.816 C58.171,24.8956667 58.5623333,24.5043333 58.6663333,24.8603333 C59.129,25.639 60.1913333,26.2383333 60.8626667,27.3383333 C61.1476667,27.6206667 61.324,28.116 61.324,28.5063333 C61.605,27.4793333 62.2426667,26.7003333 62.5253333,26.134 C62.6676667,25.8156667 63.163,25.0003333 62.986,24.153 C62.986,24.01 63.0916667,23.5146667 63.5863333,24.2243333 Z M16.195,24.2243333 C16.6903333,23.5146667 16.7613333,24.01 16.7613333,24.153 C16.5853333,25.0003333 17.0806667,25.8156667 17.223,26.134 C17.5046667,26.7003333 18.177,27.4793333 18.427,28.5063333 C18.427,28.116 18.6386667,27.6206667 18.886,27.3383333 C19.5583333,26.2383333 20.6206667,25.639 21.0823333,24.8603333 C21.1863333,24.5043333 21.5766667,24.8956667 21.4343333,25.816 C21.2913333,27.5853333 20.3016667,29.284 19.062,30.807 C18.7436667,31.16 18.781,31.69 18.533,31.762 C18.3203333,31.8696667 17.9673333,30.9473333 17.6116667,30.4886667 C16.2663333,28.754 15.4506667,27.197 15.8776667,25.1436667 C15.9853333,24.7523333 16.0893333,24.4003333 16.195,24.2243333 Z M18.2853333,17.605 C18.921,17.074 18.8856667,17.5336667 18.851,17.7106667 C18.4953333,18.4176667 18.7106667,19.2676667 18.78,19.6233333 C18.9213333,20.189 19.31,21.0726667 19.31,22.0986667 C19.4176667,21.744 19.7013333,21.3206667 20.0196667,21.145 C20.939,20.2583333 22.0346667,19.9746667 22.6383333,19.3736667 C22.8153333,19.091 23.0963333,19.5516667 22.744,20.366 C22.142,21.9566667 20.8313333,23.2336667 19.31,24.329 C18.9576667,24.6116667 18.851,25.108 18.603,25.108 C18.3906667,25.1436667 18.2856667,24.2233333 18.0713333,23.728 C17.2566667,21.816 16.9036667,20.1516667 17.7893333,18.384 C17.999,18.029 18.177,17.7463333 18.2853333,17.605 Z M61.4633333,17.605 C61.6046667,17.7463333 61.748,18.029 61.9566667,18.384 C62.8803333,20.1516667 62.4913333,21.816 61.7103333,23.728 C61.4996667,24.2233333 61.3573333,25.1436667 61.1483333,25.108 C60.8993333,25.108 60.8273333,24.6116667 60.437,24.329 C58.951,23.2336667 57.6086667,21.9566667 57.0026667,20.366 C56.6843333,19.5516667 56.9316667,19.091 57.146,19.3736667 C57.7123333,19.9746667 58.8453333,20.2583333 59.7653333,21.145 C60.0463333,21.3206667 60.3673333,21.744 60.472,22.0986667 C60.4373333,21.0726667 60.8276667,20.189 60.9663333,19.6233333 C61.0393333,19.2676667 61.2853333,18.4176667 60.9323333,17.7106667 C60.861,17.5336667 60.8276667,17.074 61.4633333,17.605 Z M22.1776667,11.7993333 C22.8853333,11.481 22.744,11.906 22.6373333,12.0136667 C22.1063333,12.613 22.0716667,13.4993333 22.0716667,13.8523333 C22.0343333,14.4533333 22.1776667,15.4093333 21.8583333,16.4016667 C22.0716667,16.0826667 22.4613333,15.7643333 22.8153333,15.6553333 C23.9463333,15.0916667 25.079,15.0916667 25.8216667,14.7023333 C26.106,14.49 26.212,14.985 25.6446667,15.692 C24.6556667,17.0383333 23.026,17.9223333 21.291,18.5243333 C20.8316667,18.7003333 20.6206667,19.1603333 20.3736667,19.0916667 C20.16,19.0563333 20.3013333,18.1703333 20.2293333,17.605 C19.9823333,15.5526667 20.091,13.8526667 21.47,12.4023333 C21.7536667,12.082 22.0006667,11.8693333 22.1776667,11.7993333 Z M57.608,11.7993333 C57.7466667,11.8693333 57.9926667,12.082 58.2803333,12.4023333 C59.6586667,13.8526667 59.767,15.5526667 59.518,17.605 C59.4486667,18.1703333 59.5883333,19.0563333 59.3756667,19.0916667 C59.1286667,19.1603333 58.914,18.7003333 58.49,18.5243333 C56.7223333,17.9223333 55.0936667,17.0383333 54.103,15.692 C53.5366667,14.985 53.678,14.49 53.926,14.7023333 C54.6693333,15.0916667 55.8033333,15.0916667 56.9326667,15.6553333 C57.2876667,15.7643333 57.6753333,16.0826667 57.89,16.4016667 C57.5696667,15.4093333 57.713,14.4533333 57.713,13.8523333 C57.6756667,13.4993333 57.642,12.613 57.1136667,12.0136667 C57.0416667,11.906 56.86,11.481 57.608,11.7993333 Z M27.487,8.19033333 C28.194,8.11933333 27.9456667,8.43766667 27.8053333,8.54433333 C27.1686667,8.826 26.883,9.56933333 26.7426667,9.81766667 C26.565,10.313 26.356,11.1263333 25.7886667,11.8696667 C26.0693333,11.658 26.46,11.5166667 26.8123333,11.5166667 C27.9123333,11.4463333 28.8326667,11.8003333 29.5743333,11.6943333 C29.856,11.6226667 29.7876667,12.0476667 29.1136667,12.437 C27.9123333,13.2516667 26.2833333,13.4633333 24.6213333,13.4286667 C24.231,13.4286667 23.9116667,13.7113333 23.7346667,13.6056667 C23.5586667,13.4996667 23.9473333,12.791 24.054,12.3313333 C24.5143333,10.561 25.1503333,9.21566667 26.708,8.43766667 C27.0263333,8.296 27.3456667,8.19033333 27.487,8.19033333 Z M52.369,8.15433333 C52.5113333,8.15433333 52.794,8.261 53.1453333,8.40333333 C54.7033333,9.18033333 55.3406667,10.5256667 55.7656667,12.295 C55.8703333,12.7903333 56.2983333,13.4633333 56.1176667,13.5683333 C55.942,13.7106667 55.6226667,13.3913333 55.1973333,13.3913333 C53.5693333,13.4633333 51.9446667,13.2153333 50.74,12.4353333 C50.0303333,12.012 49.9973333,11.588 50.244,11.6566667 C51.02,11.7643333 51.945,11.4093333 53.0413333,11.4816667 C53.3593333,11.482 53.7846667,11.6223333 54.031,11.8356667 C53.5016667,11.0913333 53.2883333,10.278 53.1123333,9.78266667 C52.97,9.53433333 52.6506667,8.792 52.049,8.50733333 C51.9076667,8.40333333 51.6593333,8.08233333 52.369,8.15433333 Z M31.6613333,6.10266667 C31.9806667,6.03066667 32.2276667,5.996 32.37,6.03066667 C32.9703333,6.10266667 32.722,6.35 32.5816667,6.38533333 C31.9806667,6.52733333 31.592,7.12766667 31.4516667,7.30466667 C31.1653333,7.695 30.849,8.367 30.246,8.86233333 C30.494,8.75566667 30.8853333,8.721 31.1646667,8.79133333 C32.1563333,8.93366667 32.865,9.39266667 33.5363333,9.46366667 C33.7846667,9.429 33.644,9.782 33.0083333,9.99533333 C31.8033333,10.4916667 30.3523333,10.384 28.9723333,10.031 C28.6176667,9.92433333 28.2636667,10.1366667 28.1596667,10.031 C27.9803333,9.92433333 28.4763333,9.358 28.656,9.004 C29.361,7.51733333 30.1753333,6.45566667 31.6613333,6.10266667 Z M48.1206667,6.10233333 C49.6063333,6.45533333 50.42,7.517 51.1296667,8.97 C51.3063333,9.35766667 51.8026667,9.88833333 51.6256667,9.995 C51.5223333,10.1363333 51.163,9.924 50.8113333,10.0306667 C49.43,10.3836667 47.9763333,10.4556667 46.8096667,9.995 C46.1393333,9.78166667 45.9943333,9.392 46.2443333,9.42866667 C46.9193333,9.35766667 47.6246667,8.898 48.6156667,8.75566667 C48.9003333,8.68533333 49.287,8.75566667 49.5343333,8.86233333 C48.935,8.367 48.6156667,7.695 48.3346667,7.27 C48.1913333,7.092 47.801,6.52733333 47.2003333,6.34966667 C47.058,6.313 46.8096667,6.10233333 47.4146667,6.03033333 C47.5533333,5.99566667 47.8386667,6.03033333 48.1206667,6.10233333 Z M37.1833333,6.491 C36.7246667,7.48166667 35.5533333,7.799 35.2003333,7.90666667 C34.9176667,8.01333333 33.7136667,8.33066667 32.83,7.72966667 C33.2906667,6.73833333 34.457,6.421 34.7763333,6.313 C35.0956667,6.24366667 36.264,5.89 37.1833333,6.491 Z M42.5656667,6.491 C43.485,5.89 44.6516667,6.24366667 44.9706667,6.313 C45.2906667,6.421 46.4563333,6.73833333 46.918,7.72966667 C46.0343333,8.33066667 44.8286667,8.01333333 44.5466667,7.90666667 C44.19,7.799 43.0226667,7.48166667 42.5656667,6.491 Z" id="Sheraton"></path>
        </g>
    </g>
</svg>