<?xml version="1.0" encoding="UTF-8"?>
<svg width="80px" height="80px" viewBox="0 0 80 80" version="1.1" xmlns="http://www.w3.org/2000/svg" xmlns:xlink="http://www.w3.org/1999/xlink">
    <title>Combined Shape</title>
    <g id="âš›ï¸-2-Atoms" stroke="none" stroke-width="1" fill="none" fill-rule="evenodd">
        <path d="M40.5048812,0.500588203 C55.4298272,0.535358025 65.6,2.1 65.6,2.1 C72.1,2.9 77.1,8 77.9,14.5 C77.9,14.5 79.5,26.2 79.5,40 C79.5,53.8 77.9,65.5 77.9,65.5 C77.2,72 72.1,77.1 65.6,77.9 C65.6,77.9 55.2,79.5 40,79.5 C24.8,79.5 14.4,77.9 14.4,77.9 C7.9,77.1 2.9,72 2.1,65.5 C2.1,65.5 0.5,53.8 0.5,40 L0.500588203,39.5407909 C0.535358025,25.9414444 2.1,14.5 2.1,14.5 C2.9,8 7.9,2.9 14.4,2.1 C14.4,2.1 24.8,0.5 40,0.5 Z M40,11.3 C28.9,11.3 21.4,12.5 21.4,12.5 C16.7,13.1 13.1,16.8 12.5,21.5 C12.5,21.5 11.3,30 11.3,40 C11.3,50.1 12.5,58.5 12.5,58.5 C13,63.3 16.7,66.9 21.4,67.5 C21.4,67.5 28.9,68.7 40,68.7 C51.1,68.7 58.6,67.5 58.6,67.5 C63.3,66.9 66.9,63.2 67.5,58.5 C67.5,58.5 68.6,50 68.7,40 C68.7,29.9 67.5,21.5 67.5,21.5 C67,16.7 63.3,13.1 58.6,12.5 C58.6,12.5 51.1,11.3 40,11.3 Z M23.5,45.5 C25.7,46.9 31.9,50.2 40,50.2 C48.1,50.2 54.3,46.7 56.5,45.5 C56.5,45.5 57.3,44.9 57.3,46 L57.3,48.1 C57.3,48.7 56.6,49.4 56.6,49.4 C54.5,51.1 47.9,55.7 40,55.7 C32.1,55.7 25.5,51.1 23.4,49.4 C23.4,49.4 22.7,48.7 22.7,48.1 L22.7,46 C22.7,44.9 23.5,45.5 23.5,45.5 Z M29.9,24.8 C29.9,24.8 36,24.8 36,29.9 C36,35.1 29.9,35 29.9,35 C29.9,35 23.8,35 23.8,29.9 C23.8,24.8 29.9,24.8 29.9,24.8 Z M49.6,26.9 C51.5,27 53.5,27.3 55.5,27.8 C55.5,27.8 56,27.9 56,28.3 L56,28.3 L56,32.4 C56,33 55.4,32.9 55.3,33 C53.5,32.6 51.5,32.4 49.5,32.4 C47.6,32.3 45.8,32.5 44.1,32.7 C44.1,32.7 43.6,32.9 43.6,32.1 L43.6,32.1 L43.6,28.1 C43.6,27.6 44.1,27.5 44.1,27.5 C45.9,27.1 47.7,26.9 49.6,26.9 Z" id="Combined-Shape" fill="#FFFFFF" fill-rule="nonzero"></path>
    </g>
</svg>