<?xml version="1.0" encoding="UTF-8"?>
<svg width="80px" height="80px" viewBox="0 0 80 80" version="1.1" xmlns="http://www.w3.org/2000/svg" xmlns:xlink="http://www.w3.org/1999/xlink">
    <title>01 Base / Ic / 8pt</title>
    <g id="01-Base-/-Ic-/-8pt" stroke="none" stroke-width="1" fill="none" fill-rule="evenodd">
        <path d="M79.9786429,80 L69.1086107,80 L69.1083571,79.999 L10.8913571,79.999 L10.8913893,80 L0.0213570765,80 L0.0213570765,3.19744231e-13 L79.9786429,3.19744231e-13 L79.9786429,80 Z M29.6293571,70.118 L20.7603571,70.118 L20.7603571,79.011 L29.6293571,79.011 L29.6293571,70.118 Z M39.4993571,70.118 L30.6303571,70.118 L30.6303571,79.011 L39.4993571,79.011 L39.4993571,70.118 Z M49.3693571,70.118 L40.4993571,70.118 L40.4993571,79.011 L49.3693571,79.011 L49.3693571,70.118 Z M59.2383571,70.118 L50.3693571,70.118 L50.3693571,79.011 L59.2383571,79.011 L59.2383571,70.118 Z M69.1083571,70.118 L60.2393571,70.118 L60.2393571,79.011 L69.1083571,79.011 L69.1083571,70.118 Z M9.89035708,70.124 L1.00935708,70.124 L1.00954182,79.0118153 L9.89035708,79.011 L9.89035708,70.124 Z M19.7603571,70.118 L10.8913571,70.118 L10.8913571,79.011 L19.7603571,79.011 L19.7603571,70.118 Z M78.9903571,70.124 L70.1083571,70.124 L70.1083571,79.011 L78.9904582,79.0118153 L78.9903571,70.124 Z M69.1083571,10.87 L10.8913571,10.87 L10.8913571,69.129 L69.1083571,69.129 L69.1083571,10.87 Z M78.9903571,60.248 L70.0963571,60.248 L70.0963571,69.129 L78.9903571,69.129 L78.9903571,60.248 Z M9.90235708,60.248 L1.00935708,60.248 L1.00935708,69.129 L9.90235708,69.129 L9.90235708,60.248 Z M78.9903571,50.372 L70.0963571,50.372 L70.0963571,59.254 L78.9903571,59.254 L78.9903571,50.372 Z M9.90235708,50.372 L1.00935708,50.372 L1.00935708,59.254 L9.90235708,59.254 L9.90235708,50.372 Z M78.9903571,40.497 L70.0963571,40.497 L70.0963571,49.378 L78.9903571,49.378 L78.9903571,40.497 Z M9.90235708,40.497 L1.00935708,40.497 L1.00935708,49.378 L9.90235708,49.378 L9.90235708,40.497 Z M78.9903571,30.621 L70.0963571,30.621 L70.0963571,39.502 L78.9903571,39.502 L78.9903571,30.621 Z M9.90235708,30.621 L1.00935708,30.621 L1.00935708,39.502 L9.90235708,39.502 L9.90235708,30.621 Z M78.9903571,20.745 L70.0963571,20.745 L70.0963571,29.627 L78.9903571,29.627 L78.9903571,20.745 Z M9.90235708,20.745 L1.00935708,20.745 L1.00935708,29.627 L9.90235708,29.627 L9.90235708,20.745 Z M78.9903571,10.87 L70.0963571,10.87 L70.0963571,19.751 L78.9903571,19.751 L78.9903571,10.87 Z M9.90235708,10.87 L1.00935708,10.87 L1.00935708,19.751 L9.90235708,19.751 L9.90235708,10.87 Z M19.7603571,0.988 L10.8913571,0.988 L10.8913571,9.881 L19.7603571,9.881 L19.7603571,0.988 Z M29.6293571,0.988 L20.7603571,0.988 L20.7603571,9.881 L29.6293571,9.881 L29.6293571,0.988 Z M39.4993571,0.988 L30.6303571,0.988 L30.6303571,9.881 L39.4993571,9.881 L39.4993571,0.988 Z M49.3693571,0.988 L40.4993571,0.988 L40.4993571,9.881 L49.3693571,9.881 L49.3693571,0.988 Z M59.2383571,0.988 L50.3693571,0.988 L50.3693571,9.881 L59.2383571,9.881 L59.2383571,0.988 Z M69.1083571,0.988 L60.2393571,0.988 L60.2393571,9.881 L69.1083571,9.881 L69.1083571,0.988 Z M78.9904582,0.988184748 L70.1083571,0.988 L70.1083571,9.875 L78.9903571,9.875 L78.9904582,0.988184748 Z M9.89035708,0.988 L1.00954182,0.988184748 L1.00935708,9.875 L9.89035708,9.875 L9.89035708,0.988 Z" id="Combined-Shape" fill="#222222" fill-rule="nonzero"></path>
    </g>
</svg>