<?xml version="1.0" encoding="UTF-8"?>
<svg width="80px" height="80px" viewBox="0 0 80 80" version="1.1" xmlns="http://www.w3.org/2000/svg" xmlns:xlink="http://www.w3.org/1999/xlink">
    <title>01 Base / Ic / CrossBrowser</title>
    <g id="01-Base-/-Ic-/-CrossBrowser" stroke="none" stroke-width="1" fill="none" fill-rule="evenodd">
        <g id="internet-explorer" transform="translate(45.000000, 20.000000)" fill-rule="nonzero">
            <g id="Group" transform="translate(1.813254, 5.124415)" fill="#2196F3">
                <path d="M14.5051688,1.49932496 C14.8628529,1.20305494 14.912678,0.67295393 14.616408,0.315269771 C14.4296428,0.0897955161 14.139049,-0.022310914 13.8492437,0.0192362651 C5.77214092,1.403932 -0.0855383099,8.47609756 0.0580241439,16.6697216 C0.06117763,17.358916 0.109504804,18.0471643 0.202690318,18.7299729 C0.252751909,19.1101256 0.553673319,19.4082878 0.934299088,19.4548805 C0.968987435,19.4574033 1.00383346,19.4574033 1.03860064,19.4548805 C1.38367085,19.4549593 1.69365854,19.2442276 1.82066519,18.9234393 C3.15135748,15.6267061 4.88569598,12.5077507 6.98394678,9.63792067 C9.14400591,6.62381867 11.6705001,3.88998275 14.5051688,1.49932496 Z" id="Path"></path>
                <path d="M31.8047992,14.0207933 C30.9740921,7.98147327 26.8959251,2.88528209 21.1855137,0.750923873 C20.9009904,0.647883715 20.5830402,0.705750185 20.3529933,0.902291205 C18.8037645,2.24709534 17.3483518,3.69635871 15.9970042,5.23983247 C15.6885932,5.58711013 15.7201281,6.1186302 16.0674058,6.42704114 C16.2019019,6.54647943 16.3711653,6.61964031 16.5503622,6.63580192 C19.5541365,6.90826312 22.1727913,9.59416605 23.1651146,13.2993545 L10.1189061,13.2993545 C9.84313378,13.2992757 9.58486327,13.4344026 9.42766199,13.6609805 C8.34956393,15.2150185 7.32870165,16.7724464 6.40031535,18.2894309 L6.40031535,18.2894309 L6.40031535,18.2894309 C4.95523035,20.5664055 3.75659029,22.9907268 2.82465632,25.5213994 C2.74045824,25.7789603 2.78555309,26.061355 2.94575018,26.2798916 C2.95954669,26.3004681 2.97476226,26.3201774 2.99116038,26.338783 C5.87005666,30.7540576 10.7682878,33.434915 16.0390244,33.479931 C22.7314314,33.4066913 28.6639271,29.1568958 30.8865041,22.8438532 C31.0500123,22.4091451 30.8301355,21.9242178 30.3954274,21.7607095 C30.3008229,21.725154 30.200542,21.7068638 30.0993939,21.7068638 L23.1197044,21.7068638 C22.8000985,21.7068638 22.5081646,21.8880315 22.3662577,22.1744469 C21.3108647,24.7884504 18.8520916,26.5674895 16.0391032,26.7524415 C12.8032323,26.7524415 9.99954669,24.0244395 8.93997536,20.0250308 L30.9723577,20.0250308 C31.3939,20.029288 31.7534762,19.7207982 31.8133136,19.3035132 C31.9465484,18.4289727 32.0168712,17.5459177 32.0235723,16.661286 C32.0141907,15.7770485 31.9411086,14.8945455 31.8047992,14.0207933 Z" id="Path"></path>
            </g>
            <path d="M28.9743878,0.812968712 C26.2144568,-1.17837891 20.9553092,0.55059867 15.2471052,5.3203252 C12.3019857,7.80306479 9.67718157,10.6425425 7.43316088,13.7733235 C5.25355014,16.7574674 3.45204237,20.0001183 2.06971175,23.4271693 C2.05843804,23.4551564 2.04889874,23.4837743 2.04109387,23.5129441 C-0.649854644,30.2572259 -0.585996551,35.8947918 2.20925351,37.887795 C3.12542005,38.524405 4.20146834,38.8920227 5.31567381,38.9491083 C5.50425228,38.9505198 5.6925154,38.932545 5.87738852,38.8951762 C6.38234048,38.8114511 6.82603597,38.5125795 7.09337275,38.076137 C7.3296477,37.6800591 7.20287756,37.1676176 6.80916482,36.9274008 C6.29112589,36.611185 4.71525006,35.6458241 6.22553338,31.187189 C7.12080808,28.7756393 8.26623306,26.4644494 9.64304508,24.2915398 C10.5629958,22.7980488 11.5670658,21.2641932 12.6249815,19.7404287 L13.8140823,18.0686869 C15.4545257,15.7835132 17.2098349,13.5830894 19.0732299,11.4757724 C20.3729391,9.98984972 21.7726928,8.5945898 23.262715,7.29968958 C26.4397733,4.57673319 27.839054,4.63396896 28.2915004,4.77690071 C28.7439468,4.91983247 29.0584282,5.41603351 29.2451146,6.23846268 C29.3338852,6.6525154 29.7203449,6.93309682 30.1415718,6.8893422 C30.5580685,6.85055432 30.882641,6.51155457 30.9034541,6.0937965 C31.0262823,2.98083272 29.9229564,1.50752402 28.9743878,0.812968712 Z" id="Path" fill="#FFC107"></path>
        </g>
        <g id="safari-(1)" transform="translate(30.000000, 21.000000)" fill-rule="nonzero">
            <path d="M20,0 C8.95429687,0 0,8.95429687 0,20 C0,31.0457031 8.95429687,40 20,40 C31.0457031,40 40,31.0457031 40,20 C39.9880469,8.95921875 31.0407813,0.011953125 20,0 Z" id="Path" fill="#ECEFF1"></path>
            <path d="M20,3.33335937 C10.7952344,3.33335937 3.33335937,10.7952344 3.33335937,20 C3.33335937,29.2047656 10.7952344,36.6666406 20,36.6666406 C29.2047656,36.6666406 36.6666406,29.2047656 36.6666406,20 C36.6565625,10.7994531 29.2005469,3.3434375 20,3.33335937 Z" id="Path" fill="#2196F3"></path>
            <path d="M29.3333594,19.1833594 L26.5,18.615 C26.3349219,17.8738281 26.0452344,17.1659375 25.6433594,16.5216406 C25.609375,16.4665625 25.5691406,16.4157031 25.5233594,16.37 L23.63,14.485 C23.5842969,14.4392187 23.5333594,14.3989844 23.4783594,14.365 C22.8339063,13.9633594 22.1261719,13.67375 21.385,13.5083594 L20.8166406,10.6667187 C20.7250781,10.2157031 20.2851563,9.92429687 19.8341406,10.0158594 C19.5061719,10.0824219 19.2499219,10.33875 19.1832813,10.6667187 L18.6149219,13.5000781 C16.0452344,14.0377344 14.0375781,16.0453906 13.4999219,18.6150781 L10.6665625,19.1817187 C10.2155469,19.2732812 9.92414063,19.7132031 10.0157031,20.1642187 C10.0822656,20.4921875 10.3385938,20.7484375 10.6665625,20.8150781 L13.4999219,21.3834375 C13.6648438,22.1246875 13.9545313,22.8325781 14.3565625,23.4767969 C14.3905469,23.531875 14.4307813,23.5827344 14.4765625,23.6284375 L16.3615625,25.5134375 C16.4072656,25.5592187 16.4582031,25.5994531 16.5132031,25.6334375 C17.1574219,26.0354687 17.8653125,26.3251562 18.6065625,26.4900781 L19.1749219,29.3234375 C19.2664844,29.7744531 19.7064063,30.0658594 20.1574219,29.9742969 C20.4853906,29.9077344 20.7416406,29.6514062 20.8082813,29.3234375 L21.3766406,26.4900781 C23.9471094,25.9576562 25.9583594,23.9536719 26.5,21.3850781 L29.3333594,20.8184375 C29.784375,20.726875 30.0757813,20.2869531 29.9842188,19.8359375 C29.9176563,19.5079687 29.6613281,19.2517187 29.3333594,19.1850781 L29.3333594,19.1833594 L29.3333594,19.1833594 Z" id="Path" fill="#FAFAFA"></path>
            <path d="M29.85,11.3 L22.35,22.1333594 C22.3269531,22.18 22.2925781,22.2200781 22.25,22.25 L17.75,17.75 C17.78,17.7075 17.8200781,17.673125 17.8666406,17.65 L28.7,10.15 C29.08875,9.90359375 29.6035937,10.0189063 29.85,10.4076563 C30.0226563,10.6800781 30.0226563,11.0275781 29.85,11.3 Z" id="Path" fill="#F44336"></path>
            <path d="M22.25,22.25 C22.2200781,22.2925781 22.1799219,22.3269531 22.1333594,22.35 L11.3,29.85 C10.9740625,30.0832812 10.5260156,30.040625 10.25,29.75 C9.96351562,29.4719531 9.92109375,29.0271094 10.15,28.7 L17.65,17.8666406 C17.6730469,17.82 17.7074219,17.7799219 17.75,17.75 L22.25,22.25 Z" id="Path" fill="#CFD8DC"></path>
        </g>
        <g id="firefox" transform="translate(15.000000, 22.000000)" fill="#FF5722" fill-rule="nonzero">
            <path d="M27.6930214,0.0911500975 C27.2535673,-0.0426510721 26.7889279,0.205068226 26.6551267,0.644522417 C26.548694,0.994152047 26.682963,1.37239766 26.9861209,1.57660819 C30.2962963,3.82721248 32.3173489,9.85380117 32.4438207,14.5812086 C31.6892788,13.1430799 30.6217544,11.8925536 29.319922,10.9217154 C28.9524366,10.6460819 28.4311111,10.7205458 28.1555556,11.0880312 C27.9338012,11.3837817 27.9338012,11.7903314 28.1555556,12.0860819 C31.1578168,16.1501754 30.2969981,21.8785185 26.2329825,24.8807797 C24.659883,26.042885 22.7557895,26.6702534 20.8,26.6709552 C19.8712671,26.7139181 18.9435478,26.5667057 18.0736842,26.2384405 C19.0218324,25.84577 19.9261598,25.3545419 20.7717739,24.7729435 C21.7369201,23.9962573 22.8980897,23.5017544 24.1268616,23.3440936 C24.5861988,23.3439376 24.9584405,22.971462 24.9583626,22.5121248 C24.9583626,22.4443665 24.9500195,22.3768421 24.9336452,22.3111111 C24.4905263,20.8788304 23.128577,19.9327096 21.6317349,20.017232 C20.8267446,19.9819883 20.0449123,20.2917739 19.4825731,20.8689279 C19.0350877,21.2681481 18.5727096,21.6807018 16.6414815,21.6807018 C13.2381287,21.6807018 11.6512281,19.6962183 11.6512281,18.3538402 C11.702924,17.8559844 11.9681092,17.4050682 12.3781676,17.1178947 C12.7473684,16.8562183 13.1426121,16.6332164 13.5575049,16.4525536 C13.8876413,16.7641326 14.4034308,16.7641326 14.7335673,16.4525536 C15.2060819,15.931306 15.362885,15.1967251 15.1444055,14.5279532 L19.5957115,11.5603899 C19.9778558,11.305575 20.0810916,10.7891618 19.8262768,10.4070175 C19.6724366,10.1763743 19.4138012,10.0375049 19.1366082,10.0367251 L17.4732164,10.0367251 C15.6218324,10.0367251 14.4108382,9.6774269 14.1463548,9.0502924 C13.7654581,8.13208577 15.0196491,6.17590643 16.3936062,4.80358674 C16.7188304,4.47922027 16.7195322,3.95259259 16.3950877,3.62736842 C16.239922,3.47181287 16.0294737,3.38393762 15.8097466,3.38300195 C13.6215984,3.57957115 11.6482651,4.7794152 10.4668226,6.63165692 C9.21356725,6.51805068 7.95181287,6.53699805 6.70253411,6.68818713 C6.4357115,6.38783626 6.21185185,6.05192982 6.03719298,5.69013645 C5.49263158,4.72015595 5.13964912,3.65450292 4.99758285,2.55126706 C4.99844055,2.09192982 4.62666667,1.71890838 4.16732943,1.71805068 C3.94588694,1.71766082 3.73341131,1.80561404 3.57699805,1.96241715 C1.76998051,3.86253411 1.26651072,6.65536062 2.29614035,9.06690058 C-2.83282651,18.8252632 0.92,30.8938791 10.6783626,36.022846 C13.5433918,37.5287329 16.7316179,38.3152437 19.9682651,38.314776 C31.1614035,38.314776 39.9292788,29.9111891 39.9292788,19.1854971 L39.9292788,17.5221053 C39.9292788,7.37528265 33.6081871,1.86604288 27.6930214,0.0911500975 Z" id="Path"></path>
        </g>
        <g id="chrome" transform="translate(0.000000, 21.000000)" fill-rule="nonzero">
            <path d="M38.459883,12.477271 L19.9626511,12.477271 C15.828616,12.4732164 12.4739961,15.8212086 12.4698635,19.9552437 C12.468616,21.2392982 12.7976608,22.5020663 13.4254191,23.6221442 L4.17684211,7.7531384 C10.9131384,-0.965380117 23.4417934,-2.57224172 32.1603119,4.16405458 C34.9602339,6.32740741 37.134425,9.1965692 38.459883,12.477271 Z" id="Path" fill="#F44336"></path>
            <path d="M39.9236996,19.9626511 C39.9144639,30.9830019 30.9830019,39.9144639 19.9626511,39.923789 C19.1280312,39.9267836 18.294269,39.8711891 17.4675244,39.7573489 L26.4499805,23.7053411 C28.508694,20.1214035 27.2814815,15.5474464 23.7053411,13.4753216 C22.5730994,12.8198051 21.2875634,12.4753996 19.9792593,12.4772634 L38.4598051,12.4772634 C39.4311891,14.8530994 39.928499,17.3959454 39.9236996,19.9626511 Z" id="Path" fill="#FFC107"></path>
            <path d="M26.4499805,23.7053411 L17.4675244,39.7573489 L17.4509162,39.7573489 C6.52007797,38.3762963 -1.22152047,28.3954776 0.159532164,17.4646394 C0.606549708,13.9266277 1.99376218,10.5730994 4.17684211,7.7531384 L13.4254191,23.6221442 L13.4753216,23.7053411 C15.5377778,27.2881871 20.114152,28.5207018 23.6969981,26.4583236 C24.8414815,25.7995322 25.7912671,24.8497466 26.4499805,23.7053411 Z" id="Path" fill="#4CAF50"></path>
            <path d="M26.4499805,23.7053411 C24.3875244,27.2881871 19.8111501,28.5207018 16.2283041,26.4583236 C15.0838986,25.7995322 14.1341131,24.8497466 13.4753216,23.7053411 L13.4254191,23.6221442 C11.4042885,20.0158285 12.6894347,15.4538791 16.2957505,13.4327485 C17.4159064,12.8049903 18.6786745,12.4759454 19.9626511,12.4771854 L19.9792593,12.4771854 C21.2875634,12.4753216 22.5730994,12.8197271 23.7053411,13.4752437 C27.2815595,15.5474464 28.508694,20.1214035 26.4499805,23.7053411 Z" id="Path" fill="#F44336"></path>
            <path d="M26.4499805,23.7053411 C24.3875244,27.2881871 19.8111501,28.5207018 16.2283041,26.4583236 C15.0838986,25.7995322 14.1341131,24.8497466 13.4753216,23.7053411 L13.4254191,23.6221442 C11.4042885,20.0158285 12.6894347,15.4538791 16.2957505,13.4327485 C17.4159064,12.8049903 18.6786745,12.4759454 19.9626511,12.4771854 L19.9792593,12.4771854 C21.2875634,12.4753216 22.5730994,12.8197271 23.7053411,13.4752437 C27.2815595,15.5474464 28.508694,20.1214035 26.4499805,23.7053411 Z" id="Path" fill="#2196F3"></path>
            <path d="M19.934425,28.2797698 C18.4842885,28.2797698 17.0597271,27.8974659 15.8041326,27.1719298 C14.5380897,26.4396881 13.4866277,25.3876803 12.7550877,24.1212476 C10.4584016,20.1432359 11.8213645,15.0566082 15.7993762,12.759922 C17.0651072,12.0291618 18.5011306,11.6448343 19.962729,11.6456114 C24.5561014,11.6420273 28.282729,15.362885 28.2862405,19.9562573 C28.2874074,21.4184016 27.9030019,22.8549708 27.1719298,24.1212476 L27.1719298,24.1212476 C25.6729825,26.6982456 22.9156335,28.2825731 19.934425,28.2797698 Z M19.9776218,13.3089114 C17.5906433,13.2962963 15.3807407,14.5667057 14.1905653,16.6358674 C12.3532164,19.8218324 13.4464717,23.8941131 16.6324366,25.731462 C19.8184016,27.5688109 23.8906823,26.4755556 25.7280312,23.2895906 L25.7280312,23.2895906 C27.5653801,20.1072125 26.4750097,16.0378947 23.2926316,14.2004678 C22.2850682,13.6187914 21.1426121,13.311423 19.9792593,13.3090838 L19.9776218,13.3090838 L19.9776218,13.3089114 Z" id="Shape" fill="#FAFAFA"></path>
        </g>
    </g>
</svg>