<?xml version="1.0" encoding="UTF-8"?>
<svg width="80px" height="80px" viewBox="0 0 80 80" version="1.1" xmlns="http://www.w3.org/2000/svg" xmlns:xlink="http://www.w3.org/1999/xlink">
    <title>01 Base / Ic / git</title>
    <g id="01-Base-/-Ic-/-git" stroke="none" stroke-width="1" fill="none" fill-rule="evenodd">
        <g id="git-icon" fill="#DE4C36" fill-rule="nonzero">
            <path d="M78.49125,36.435625 L43.5625,1.50875 C41.5521875,-0.5028125 38.2896875,-0.5028125 36.276875,1.50875 L29.02375,8.761875 L38.2246875,17.9628125 C40.3628125,17.2403125 42.8146875,17.725 44.5190625,19.429375 C46.2315625,21.1446875 46.7128125,23.6175 45.9728125,25.7625 L54.84,34.63 C56.9853125,33.8909375 59.460625,34.3690625 61.1740625,36.0853125 C63.56875,38.4790625 63.56875,42.35875 61.1740625,44.7540625 C58.77875,47.1496875 54.8990625,47.1496875 52.5025,44.7540625 C50.70125,42.9509375 50.25625,40.305625 51.168125,38.0865625 L42.89875,29.8171875 L42.8978125,51.57875 C43.4972741,51.8751514 44.0447781,52.266678 44.5190625,52.738125 C46.91375,55.131875 46.91375,59.011875 44.5190625,61.4090625 C42.12375,63.8034375 38.2421875,63.8034375 35.8503125,61.4090625 C33.455625,59.011875 33.455625,55.1321875 35.8503125,52.7384375 C36.4241838,52.1642767 37.1061829,51.7095752 37.856875,51.400625 L37.856875,29.43625 C37.1050906,29.129355 36.4227066,28.674397 35.8503125,28.0984375 C34.0359375,26.2865625 33.5996875,23.624375 34.529375,21.3965625 L25.459375,12.325625 L1.509375,36.2740625 C-0.503125,38.2875 -0.503125,41.5503125 1.509375,43.5621875 L36.43875,78.4896875 C38.4496875,80.5015625 41.7115625,80.5015625 43.725,78.4896875 L78.4909375,43.724375 C80.5028125,41.711875 80.5028125,38.4471875 78.4909375,36.435625" id="Path"></path>
        </g>
    </g>
</svg>