<?xml version="1.0" encoding="UTF-8"?>
<svg width="80px" height="80px" viewBox="0 0 80 80" version="1.1" xmlns="http://www.w3.org/2000/svg" xmlns:xlink="http://www.w3.org/1999/xlink">
    <title>01 Base / Ic / Html5</title>
    <g id="01-Base-/-Ic-/-Html5" stroke="none" stroke-width="1" fill="none" fill-rule="evenodd">
        <g id="html-5" transform="translate(11.000000, 0.000000)" fill-rule="nonzero">
            <polygon id="Path" fill="#E44D26" points="56.6774026 15.7212457 51.5142244 73.5623494 28.3053594 79.9964946 5.16047589 73.5712357 0.00262943565 15.7212457"></polygon>
            <polygon id="Path" fill="#F16529" points="28.340016 75.0783568 47.0939431 69.8791889 51.5060045 20.4512155 28.340016 20.4512155"></polygon>
            <path d="M18.3029095,34.6415693 L28.340016,34.6415693 L28.340016,27.5465035 L10.5489225,27.5465035 L10.7186514,29.4499548 L12.4625931,49.0020962 L28.340016,49.0020962 L28.340016,41.9070304 L18.9513892,41.9070304 L18.3029095,34.6415693 L18.3029095,34.6415693 Z M19.9020041,52.5497401 L12.7796128,52.5497401 L13.7735485,63.6900842 L28.3073588,67.7244767 L28.340016,67.7155904 L28.340016,60.3337184 L28.3089139,60.3419383 L20.4071918,58.2083311 L19.9020041,52.5497401 L19.9020041,52.5497401 Z" id="Shape" fill="#EBEBEB"></path>
            <path d="M5.27555383,0 L8.88118108,0 L8.88118108,3.56230641 L12.1795636,3.56230641 L12.1795636,0 L15.785413,0 L15.785413,10.7875569 L12.1797857,10.7875569 L12.1797857,7.17526489 L8.88140324,7.17526489 L8.88140324,10.7875569 L5.27577599,10.7875569 L5.27577599,0 L5.27555383,0 Z M20.5267129,3.57741317 L17.3529611,3.57741317 L17.3529611,0 L27.3087578,0 L27.3087578,3.57741317 L24.1330066,3.57741317 L24.1330066,10.7875569 L20.5273793,10.7875569 L20.5273793,3.57741317 L20.5271572,3.57741317 L20.5267129,3.57741317 Z M28.8887467,0 L32.6483296,0 L34.9609963,3.79046286 L37.2714413,0 L41.0325793,0 L41.0325793,10.7875569 L37.4416145,10.7875569 L37.4416145,5.44065382 L34.9609963,9.27621479 L34.898792,9.27621479 L32.4166186,5.44065382 L32.4166186,10.7875569 L28.8887467,10.7875569 L28.8887467,0 Z M42.8269509,0 L46.433689,0 L46.433689,7.2219181 L51.5042273,7.2219181 L51.5042273,10.7875569 L42.8267288,10.7875569 L42.8267288,0 L42.8269509,0 Z" id="Shape" fill="#000000"></path>
            <path d="M28.3155786,49.0020962 L37.0523934,49.0020962 L36.2286308,58.203888 L28.3153565,60.3397167 L28.3153565,67.7211444 L42.860719,63.6900842 L42.9673549,62.4913187 L44.6348742,43.8122589 L44.8079354,41.9070304 L28.3155786,41.9070304 L28.3155786,49.0020962 Z M28.3155786,34.6242409 L28.3155786,34.6415693 L45.4535271,34.6415693 L45.5957083,33.0469179 L45.9191706,29.4499548 L46.0886773,27.5465035 L28.3155786,27.5465035 L28.3155786,34.6244631 L28.3155786,34.6242409 Z" id="Shape" fill="#FFFFFF"></path>
        </g>
    </g>
</svg>