<?xml version="1.0" encoding="UTF-8"?>
<svg width="80px" height="80px" viewBox="0 0 80 80" version="1.1" xmlns="http://www.w3.org/2000/svg" xmlns:xlink="http://www.w3.org/1999/xlink">
    <title>javascript</title>
    <g id="✨Symbols" stroke="none" stroke-width="1" fill="none" fill-rule="evenodd">
        <g id="01-Base-/-Ic-/-CSS3" fill-rule="nonzero">
            <g id="javascript">
                <polygon id="Path" fill="#F7DF1E" points="0 0 80 0 80 80 0 80"></polygon>
                <path d="M21.035,66.85375 L27.156875,63.14875 C28.338125,65.2428125 29.4125,67.0146875 31.9896875,67.0146875 C34.46,67.0146875 36.0178125,66.0484375 36.0178125,62.2896875 L36.0178125,36.7278125 L43.535625,36.7278125 L43.535625,62.3959375 C43.535625,70.1825 38.97125,73.726875 32.311875,73.726875 C26.2978125,73.726875 22.806875,70.6121875 21.0346875,66.853125 M47.6190625,66.048125 L53.7403125,62.5040625 C55.351875,65.135625 57.44625,67.06875 61.15125,67.06875 C64.2665625,67.06875 66.2528125,65.51125 66.2528125,63.363125 C66.2528125,60.785625 64.2121875,59.8725 60.7753125,58.369375 L58.89625,57.563125 C53.4721875,55.2546875 49.874375,52.3546875 49.874375,46.2328125 C49.874375,40.5940625 54.1703125,36.2978125 60.883125,36.2978125 C65.6625,36.2978125 69.099375,37.9628125 71.569375,42.3125 L65.715625,46.071875 C64.4265625,43.7628125 63.0309375,42.85 60.8828125,42.85 C58.6809375,42.85 57.2846875,44.24625 57.2846875,46.071875 C57.2846875,48.3271875 58.6809375,49.240625 61.9028125,50.636875 L63.7821875,51.4421875 C70.1728125,54.18125 73.770625,56.9734375 73.770625,63.2559375 C73.770625,70.0228125 68.454375,73.7278125 61.3121875,73.7278125 C54.33125,73.7278125 49.8203125,70.3984375 47.61875,66.0484375" id="Shape" fill="#000000"></path>
            </g>
        </g>
    </g>
</svg>