<?xml version="1.0" encoding="UTF-8"?>
<svg width="80px" height="80px" viewBox="0 0 80 80" version="1.1" xmlns="http://www.w3.org/2000/svg" xmlns:xlink="http://www.w3.org/1999/xlink">
    <title>01 Base / Ic / Photoshop</title>
    <g id="01-Base-/-Ic-/-Photoshop" stroke="none" stroke-width="1" fill="none" fill-rule="evenodd">
        <g id="Adobe_Photoshop_CC_icon" transform="translate(0.000000, 1.000000)" fill-rule="nonzero">
            <g id="Surfaces" fill="#001E36">
                <g id="Photo_Surface">
                    <g id="Outline_no_shadow">
                        <path d="M14.1666667,0 L65.8333333,0 C73.6666667,0 80,6.33333333 80,14.1666667 L80,63.8333333 C80,71.6666667 73.6666667,78 65.8333333,78 L14.1666667,78 C6.33333333,78 0,71.6666667 0,63.8333333 L0,14.1666667 C0,6.33333333 6.33333333,0 14.1666667,0 Z" id="Path"></path>
                    </g>
                </g>
            </g>
            <g id="Outlined_Mnemonics_Logos" transform="translate(18.000000, 19.666667)" fill="#31A8FF">
                <g id="Ps">
                    <path d="M0,35.0333333 L0,0.733333333 C0,0.5 0.1,0.366666667 0.333333333,0.366666667 C0.9,0.366666667 1.43333333,0.366666667 2.2,0.333333333 C3,0.3 3.83333333,0.3 4.73333333,0.266666667 C5.63333333,0.233333333 6.6,0.233333333 7.63333333,0.2 C8.66666667,0.166666667 9.66666667,0.166666667 10.6666667,0.166666667 C13.4,0.166666667 15.6666667,0.5 17.5333333,1.2 C19.2,1.76666667 20.7333333,2.7 22,3.93333333 C23.0666667,5 23.9,6.3 24.4333333,7.73333333 C24.9333333,9.13333333 25.2,10.5666667 25.2,12.0666667 C25.2,14.9333333 24.5333333,17.3 23.2,19.1666667 C21.8666667,21.0333333 20,22.4333333 17.8333333,23.2333333 C15.5666667,24.0666667 13.0666667,24.3666667 10.3333333,24.3666667 C9.53333333,24.3666667 9,24.3666667 8.66666667,24.3333333 C8.33333333,24.3 7.86666667,24.3 7.23333333,24.3 L7.23333333,35 C7.26666667,35.2333333 7.1,35.4333333 6.86666667,35.4666667 C6.83333333,35.4666667 6.8,35.4666667 6.73333333,35.4666667 L0.4,35.4666667 C0.133333333,35.4666667 0,35.3333333 0,35.0333333 Z M7.26666667,6.8 L7.26666667,18 C7.73333333,18.0333333 8.16666667,18.0666667 8.56666667,18.0666667 L10.3333333,18.0666667 C11.6333333,18.0666667 12.9333333,17.8666667 14.1666667,17.4666667 C15.2333333,17.1666667 16.1666667,16.5333333 16.9,15.7 C17.6,14.8666667 17.9333333,13.7333333 17.9333333,12.2666667 C17.9666667,11.2333333 17.7,10.2 17.1666667,9.3 C16.6,8.43333333 15.8,7.76666667 14.8333333,7.4 C13.6,6.9 12.2666667,6.7 10.9,6.73333333 C10.0333333,6.73333333 9.26666667,6.73333333 8.63333333,6.76666667 C7.96666667,6.73333333 7.5,6.76666667 7.26666667,6.8 L7.26666667,6.8 Z" id="Shape"></path>
                    <path d="M46,15.9666667 C45,15.4333333 43.9333333,15.0666667 42.8,14.8333333 C41.5666667,14.5666667 40.3333333,14.4 39.0666667,14.4 C38.4,14.3666667 37.7,14.4666667 37.0666667,14.6333333 C36.6333333,14.7333333 36.2666667,14.9666667 36.0333333,15.3 C35.8666667,15.5666667 35.7666667,15.9 35.7666667,16.2 C35.7666667,16.5 35.9,16.8 36.1,17.0666667 C36.4,17.4333333 36.8,17.7333333 37.2333333,17.9666667 C38,18.3666667 38.8,18.7333333 39.6,19.0666667 C41.4,19.6666667 43.1333333,20.5 44.7333333,21.5 C45.8333333,22.2 46.7333333,23.1333333 47.3666667,24.2666667 C47.9,25.3333333 48.1666667,26.5 48.1333333,27.7 C48.1666667,29.2666667 47.7,30.8333333 46.8333333,32.1333333 C45.9,33.4666667 44.6,34.5 43.1,35.1 C41.4666667,35.8 39.4666667,36.1666667 37.0666667,36.1666667 C35.5333333,36.1666667 34.0333333,36.0333333 32.5333333,35.7333333 C31.3666667,35.5333333 30.2,35.1666667 29.1333333,34.6666667 C28.9,34.5333333 28.7333333,34.3 28.7666667,34.0333333 L28.7666667,28.2333333 C28.7666667,28.1333333 28.8,28 28.9,27.9333333 C29,27.8666667 29.1,27.9 29.2,27.9666667 C30.5,28.7333333 31.8666667,29.2666667 33.3333333,29.6 C34.6,29.9333333 35.9333333,30.1 37.2666667,30.1 C38.5333333,30.1 39.4333333,29.9333333 40.0333333,29.6333333 C40.5666667,29.4 40.9333333,28.8333333 40.9333333,28.2333333 C40.9333333,27.7666667 40.6666667,27.3333333 40.1333333,26.9 C39.6,26.4666667 38.5,25.9666667 36.8666667,25.3333333 C35.1666667,24.7333333 33.6,23.9333333 32.1333333,22.9333333 C31.1,22.2 30.2333333,21.2333333 29.6,20.1 C29.0666667,19.0333333 28.8,17.8666667 28.8333333,16.7 C28.8333333,15.2666667 29.2333333,13.9 29.9666667,12.6666667 C30.8,11.3333333 32.0333333,10.2666667 33.4666667,9.6 C35.0333333,8.8 37,8.43333333 39.3666667,8.43333333 C40.7333333,8.43333333 42.1333333,8.53333333 43.5,8.73333333 C44.5,8.86666667 45.4666667,9.13333333 46.3666667,9.5 C46.5,9.53333333 46.6333333,9.66666667 46.7,9.8 C46.7333333,9.93333333 46.7666667,10.0666667 46.7666667,10.2 L46.7666667,15.6333333 C46.7666667,15.7666667 46.7,15.9 46.6,15.9666667 C46.3,16.0333333 46.1333333,16.0333333 46,15.9666667 Z" id="Path"></path>
                </g>
            </g>
        </g>
    </g>
</svg>