<?xml version="1.0" encoding="UTF-8"?>
<svg width="80px" height="80px" viewBox="0 0 80 80" version="1.1" xmlns="http://www.w3.org/2000/svg" xmlns:xlink="http://www.w3.org/1999/xlink">
    <title>01 Base / Ic / Principle</title>
    <defs>
        <linearGradient x1="50%" y1="0%" x2="50%" y2="62.618%" id="linearGradient-1">
            <stop stop-color="#D378E5" offset="0%"></stop>
            <stop stop-color="#7526C2" offset="100%"></stop>
        </linearGradient>
    </defs>
    <g id="01-Base-/-Ic-/-Principle" stroke="none" stroke-width="1" fill="none" fill-rule="evenodd">
        <g id="principle-app-2" transform="translate(11.000000, 0.000000)" fill="url(#linearGradient-1)">
            <path d="M0,67.6119652 L0,29.2 C0,13.0732209 13.0732209,0 29.2,0 C45.3267791,0 58.4,13.0732209 58.4,29.2 C58.4,45.1145078 45.6682922,58.05544 29.8347826,58.3931443 L29.8347826,58.4 C25.2770435,58.4 21.5826087,54.7055652 21.5826087,50.1478261 C21.5826087,45.6327443 25.2087409,41.9644626 29.7078261,41.8966678 L29.7078261,41.8857496 C36.4840035,41.6191409 41.8956522,36.041433 41.8956522,29.2 C41.8956522,22.1884452 36.2115548,16.5043478 29.2,16.5043478 C22.1884452,16.5043478 16.5043478,22.1884452 16.5043478,29.2 L16.5043478,71.7304348 C16.5043478,76.2881739 12.809913,79.9826192 8.25217391,79.9826192 C6.55448646,79.9853289 4.89765811,79.4619705 3.50958609,78.4845217 C5.88316522,77.7908313 7.6173913,75.5980383 7.6173913,73 C7.6173913,69.8448765 5.0594713,67.2869565 1.90434783,67.2869565 C1.23655652,67.2869565 0.59568,67.4014713 0,67.6119652 Z M29.8347826,55.8608696 C32.9899061,55.8608696 35.5478261,53.3029496 35.5478261,50.1478261 C35.5478261,46.9927026 32.9899061,44.4347826 29.8347826,44.4347826 C26.6796591,44.4347826 24.1217391,46.9927026 24.1217391,50.1478261 C24.1217391,53.3029496 26.6796591,55.8608696 29.8347826,55.8608696 Z" id="Shape"></path>
        </g>
    </g>
</svg>