<?xml version="1.0" encoding="UTF-8"?>
<svg width="80px" height="80px" viewBox="0 0 80 80" version="1.1" xmlns="http://www.w3.org/2000/svg" xmlns:xlink="http://www.w3.org/1999/xlink">
    <title>01 Base / Ic / rawSketch</title>
    <g id="01-Base-/-Ic-/-rawSketch" stroke="none" stroke-width="1" fill="none" fill-rule="evenodd">
        <g id="draw" transform="translate(1.500000, 0.000000)">
            <path d="M76.8127441,18.5192872 L76.8127441,74.1125488 C76.8127441,77.3651123 74.1772461,80 70.925293,80 L18.046875,80 C14.7943116,80 12.1594238,77.3651123 12.1594238,74.1125488 L12.1594238,5.88745125 C12.1594238,2.63488766 14.7943116,0 18.046875,0 L58.293457,0 L76.8127441,18.5192872 Z" id="Path" fill="#E6E6E6" fill-rule="nonzero"></path>
            <path d="M56.5393066,67.9949952 C55.9802247,67.9949952 55.4748534,67.6086425 55.3460694,67.0404053 C55.1971436,66.3806153 55.6109619,65.7250977 56.2707519,65.5755616 C61.7382813,64.3389892 66.0327148,61.3061523 68.6901856,56.8035889 C71.0290528,52.8411866 71.9195556,47.9138184 71.1328125,43.2855225 C69.3249513,32.644043 61.0876466,29.7393798 54.5849609,30.4852295 C48.2446289,31.2127686 42.7563477,30.4278564 38.7145997,28.2165528 C35.1342773,26.2573242 32.8491211,23.2214356 32.4438477,19.8858642 C31.9000244,15.4119873 34.9285889,10.1324463 42.8613281,9.11560063 C43.5314941,9.02954094 44.1455078,9.50317375 44.2321778,10.1739502 C44.3176269,10.8447266 43.8439941,11.4587403 43.1732178,11.5441894 C40.3149414,11.9110108 38.0200195,12.9589844 36.5362548,14.5751953 C35.2435303,15.9838867 34.6533203,17.7648925 34.8754883,19.5904541 C35.1837158,22.131958 37.0117188,24.4927978 39.8901367,26.0681153 C42.3974609,27.4401856 46.9329834,28.8983155 54.3066406,28.0523681 C59.4519044,27.4621581 64.0240478,28.7347412 67.5286866,31.7327881 C70.6414795,34.3963623 72.7795409,38.3532716 73.5479736,42.8753662 C74.4293213,48.0651856 73.4277344,53.5955811 70.7995606,58.0487061 C67.7905273,63.1463623 62.9534913,66.5753173 56.8109131,67.9644775 C56.7199706,67.9846191 56.6290283,67.9949952 56.5393066,67.9949952 Z" id="Path" fill="#7D7D7D"></path>
            <path d="M76.8127441,18.5192872 L64.1809081,18.5192872 C60.9283447,18.5192872 58.293457,15.8837891 58.293457,12.6318359 L58.293457,0" id="Path" fill="#CCCCCC" fill-rule="nonzero"></path>
            <polygon id="Path" fill="#FFD061" fill-rule="nonzero" points="0.078125 28.1182861 33.7670898 61.8072509 42.3474122 64.1693116 56.5405273 68.0761719 52.6330566 53.883667 50.2709961 45.3033447 16.5820312 11.6143798"></polygon>
            <polygon id="Path" fill="#EF8930" fill-rule="nonzero" points="56.5405273 68.0761719 52.6330566 53.883667 50.2709961 45.3033447 16.5820312 11.6143798 12.4383545 15.7580566 47.0672608 50.3869628"></polygon>
            <path d="M0.078125,28.1182861 L32.2644044,60.3045655 C34.0368653,58.6102295 36.9470216,58.5736084 38.7310791,59.1760253 C39.0692139,59.2913819 39.3963623,58.9654541 39.2828369,58.6260986 C38.6706544,56.8188477 38.7158203,53.8513184 40.4803467,52.086792 C42.2436523,50.3234863 45.211792,50.27771 47.0196533,50.8892822 C47.1295166,50.9259033 47.2369384,50.9179688 47.3297119,50.8770752 C47.522583,50.7916259 47.647705,50.5676269 47.5701905,50.3387452 C46.9586181,48.5314941 47.0037842,45.5627441 48.7677002,43.7994384 L16.5820312,11.6143798 L0.078125,28.1182861 Z" id="Path" fill="#7A70FA" fill-rule="nonzero"></path>
            <path d="M47.3297119,50.8770752 C47.522583,50.7916259 47.647705,50.5676269 47.5701905,50.3387452 C46.9580078,48.5314941 47.0037842,45.5627441 48.7677002,43.7994384 L16.5820312,11.6143798 L12.4383545,15.7580566 L47.0672608,50.3869628 L47.3297119,50.8770752 Z" id="Path" fill="#6349C4" fill-rule="nonzero"></path>
            <path d="M0.078125,28.1182861 L32.2644044,60.3045655 C34.0368653,58.6102295 36.9470216,58.5736084 38.7310791,59.1760253 C38.9007569,59.2333984 39.0667725,59.1809081 39.1766358,59.071045 L4.15100094,24.0454102 L0.078125,28.1182861 Z" id="Path" fill="#9BA6FF" fill-rule="nonzero"></path>
            <path d="M46.9067383,65.4248047 L56.5405273,68.0761719 L53.8885498,58.4429931 C53.1774903,58.6376953 52.4841309,58.9123534 51.8225097,59.265747 C50.9790039,59.718628 50.187378,60.300293 49.475708,61.0113525 C48.2061767,62.2814941 47.3492431,63.8073731 46.9067383,65.4248047 Z" id="Path" fill="#222222"></path>
            <path d="M56.5405273,68.0761719 L53.8885498,58.4429931 C53.1774903,58.6376953 52.4841309,58.9123534 51.8225097,59.265747 L56.5405273,68.0761719 Z" id="Path" fill="#243142" fill-rule="nonzero"></path>
        </g>
    </g>
</svg>