<?xml version="1.0" encoding="UTF-8"?>
<svg width="80px" height="80px" viewBox="0 0 80 80" version="1.1" xmlns="http://www.w3.org/2000/svg" xmlns:xlink="http://www.w3.org/1999/xlink">
    <title>01 Base / Ic / ReactRouter</title>
    <g id="01-Base-/-Ic-/-ReactRouter" stroke="none" stroke-width="1" fill="none" fill-rule="evenodd">
        <g id="react-router" transform="translate(0.000000, 18.000000)" fill-rule="nonzero">
            <path d="M59.474375,28.504375 C57.96625,28.9965625 56.3446875,29.1478125 54.769375,29.42375 C54.340625,29.49875 53.888125,29.431875 53.4553125,29.491875 C50.095,29.958125 48.8253125,31.3040625 48.350625,34.8821875 C48.098125,36.786875 47.596875,38.5971875 46.50375,40.2178125 C44.656875,42.955 41.0690625,44.1971875 37.9984375,43.1278125 C34.7115625,41.983125 32.7203125,38.9871875 32.9859375,35.585625 C33.2253125,32.5209375 35.6459375,29.8134375 39.0453125,29.0265625 C40.6371875,28.658125 42.28875,28.5140625 43.921875,28.3653125 C46.9703125,28.088125 48.316875,26.7515625 48.8246875,23.7540625 C49.116875,22.029375 48.8565625,20.4021875 48.4740625,18.7753125 C47.8896875,16.28875 46.079375,15.1334375 43.0396875,14.9121875 C41.3809375,14.79125 39.6934375,14.550625 38.10625,14.07375 C34.765,13.0690625 32.8196875,10.1684375 32.97375,6.765625 C33.10875,3.7859375 35.5353125,0.8846875 38.45,0.2184375 C41.903125,-0.57125 45.340625,0.8096875 46.809375,3.885 C47.58,5.49875 48.003125,7.326875 48.305,9.1053125 C48.8453125,12.2940625 50.1121875,13.53125 53.2925,13.876875 C55.3496875,14.100625 57.445625,14.355625 59.4071875,14.969375 C62.3859375,15.9015625 64.1753125,18.6775 64.1746877,21.7625 C64.174375,24.7803125 62.3275,27.5734375 59.474375,28.504375 L59.474375,28.504375 Z" id="Path" fill="#62DAFB"></path>
            <path d="M24.3975,28.994375 C20.404375,28.995 17.144375,25.7359375 17.14375,21.7434375 C17.143125,17.750625 20.4021875,14.4903125 24.3946875,14.4896875 C28.3875,14.4890625 31.6475,17.748125 31.648125,21.740625 C31.64875,25.7334375 28.3896875,28.99375 24.3975,28.994375 Z M7.228125,43.500023 C3.2384375,43.49 -0.01,40.2196875 -2.302627e-05,36.2234375 C0.01,32.23375 3.28,28.9853125 7.27625,28.9956005 C11.2659375,29.0053125 14.514375,32.275625 14.504398,36.271875 C14.494375,40.2615625 11.224375,43.51 7.228125,43.500023 Z M72.800625,43.5001199 C68.800625,43.5228125 65.5165625,40.2875 65.4936301,36.3021875 C65.4709375,32.3025 68.70625,29.018125 72.6915625,28.9955018 C76.6915625,28.9725 79.9753125,32.2075 79.9985574,36.193125 C80.02125,40.1928125 76.7859375,43.4771875 72.800625,43.5001199 Z" id="Shape" fill="#424242"></path>
        </g>
    </g>
</svg>