<?xml version="1.0" encoding="UTF-8"?>
<svg width="80px" height="80px" viewBox="0 0 80 80" version="1.1" xmlns="http://www.w3.org/2000/svg" xmlns:xlink="http://www.w3.org/1999/xlink">
    <title>01 Base / Ic / Sketch</title>
    <g id="01-Base-/-Ic-/-Sketch" stroke="none" stroke-width="1" fill="none" fill-rule="evenodd">
        <g id="sketch-2" transform="translate(0.000000, 3.500000)" fill-rule="nonzero">
            <g id="a-link" transform="translate(0.015237, 25.804076)" fill="#EA6C00">
                <polygon id="a" points="16.1945273 0 39.9813768 46.5578905 0 0"></polygon>
            </g>
            <g id="b-link" transform="translate(59.984763, 49.304076) scale(-1, 1) translate(-59.984763, -49.304076) translate(39.984763, 25.804076)" fill="#EA6C00">
                <polygon id="b" points="16.1945273 0 39.9813768 46.5578905 0 0"></polygon>
            </g>
            <g id="c-link" transform="translate(16.208918, 25.804076)" fill="#FDAD00">
                <polygon id="c" points="0 0 47.573699 0 23.7868495 46.5578905"></polygon>
            </g>
            <g id="d-link" transform="translate(16.208918, 0.001693)" fill="#FDD231">
                <polygon id="d" points="23.7868495 0 1.251984 2.38207098 0 25.8023829"></polygon>
            </g>
            <g id="e-link" transform="translate(51.782617, 13.001693) scale(-1, 1) translate(-51.782617, -13.001693) translate(39.782617, 0.001693)" fill="#FDD231">
                <polygon id="e" points="23.7868495 0 1.251984 2.38207098 0 25.8023829"></polygon>
            </g>
            <g id="f-link" transform="translate(70.984763, 14.383764) scale(-1, 1) translate(-70.984763, -14.383764) translate(61.984763, 2.383764)" fill="#FDAD00">
                <polygon id="f" points="0 23.4203119 17.4465113 0 16.1945273 23.4203119"></polygon>
            </g>
            <g id="g-link" transform="translate(0.015237, 2.383764)" fill="#FDAD00">
                <polygon id="g" points="0 23.4203119 17.4465113 0 16.1945273 23.4203119"></polygon>
            </g>
            <g id="h-link" transform="translate(16.208918, 0.001693)" fill="#FEEEB7">
                <polygon id="h" points="23.7868495 0 0 25.8023829 47.573699 25.8023829"></polygon>
            </g>
        </g>
    </g>
</svg>