<?xml version="1.0" encoding="UTF-8"?>
<svg width="80px" height="15px" viewBox="0 0 80 15" version="1.1" xmlns="http://www.w3.org/2000/svg" xmlns:xlink="http://www.w3.org/1999/xlink">
    <title>wacom</title>
    <g id="✨Symbols" stroke="none" stroke-width="1" fill="none" fill-rule="evenodd">
        <g id="01-Base-/-Ic-/-Wacom" transform="translate(0.000000, -33.000000)" fill="#000000" fill-rule="nonzero">
            <g id="wacom" transform="translate(0.000000, 33.000000)">
                <path d="M24.1482031,0.00203125 C22.566875,0.00203125 21.8227344,0.16609375 20.9978906,0.482578125 L20.8510156,0.536015625 L21.7453906,2.12453125 L21.8521875,2.08445313 C22.4604688,1.83539063 23.1321875,1.75085937 24.3885156,1.75085937 L25.7233594,1.75085937 C27.6755469,1.75085937 28.7936719,2.72273437 28.7936719,4.43390625 L28.7936719,9.69335938 C28.7936719,11.4033594 27.6755469,12.3765625 25.7233594,12.3765625 L23.5475,12.3765625 C21.5467188,12.3765625 20.570625,11.5746094 20.570625,9.90703125 C20.570625,8.25257812 21.5466406,7.45085938 23.5475,7.45085938 L26.5776563,7.45085938 L26.5776563,5.68875 L23.4540625,5.68875 C20.484375,5.68875 18.7819531,7.2334375 18.7819531,9.92039062 C18.7819531,12.5183594 20.5724219,14.1385937 23.4540625,14.1385937 L25.8034375,14.1385937 C29.0828125,14.1385937 30.5823438,11.9497656 30.5823438,9.92039062 L30.5823438,4.20710938 C30.5823438,2.17796875 29.0828125,0.00203125 25.8034375,0.00203125 L24.1482031,0.00203125 L24.1482031,0.00203125 Z M37.3636719,0.001953125 C34.0839062,0.001953125 32.5846875,2.17796875 32.5846875,4.20695313 L32.5846875,9.9203125 C32.5846875,11.9497656 34.0838281,14.1385156 37.3635937,14.1385156 L39.3927344,14.1385156 C41.0633594,14.1385156 42.1582031,13.8945312 43.0369531,13.3242188 L43.1436719,13.2441406 L42.1292187,11.7624219 L42.0224219,11.8291406 C41.3667188,12.2264063 40.5369531,12.3764844 39.1657813,12.3764844 L37.4436719,12.3764844 C35.46375,12.3764844 34.3733594,11.4284375 34.3733594,9.69328125 L34.3733594,4.43390625 C34.3733594,2.6978125 35.4642188,1.75070313 37.4436719,1.75070313 L39.1657031,1.75070313 C40.5351562,1.75070313 41.3641406,1.91367188 42.0223437,2.31132813 L42.1291406,2.37804688 L43.1436719,0.88296875 L43.036875,0.81625 C42.158125,0.24640625 41.0648438,0.001953125 39.3926563,0.001953125 L37.3636719,0.001953125 L37.3636719,0.001953125 Z M49.070625,0.00203125 C45.7802344,0.00203125 44.2784375,2.17796875 44.2784375,4.20695313 L44.2784375,9.9203125 C44.2784375,11.9497656 45.7775,14.1385156 49.0573438,14.1385156 L51.4067188,14.1385156 C54.686875,14.1385156 56.1722656,11.9496875 56.1722656,9.9203125 L56.1722656,4.20703125 C56.1722656,2.17828125 54.6725781,0.00203125 51.38,0.00203125 L49.070625,0.00203125 Z M62.9401563,0.02875 C60.1101563,0.02875 58.2814063,1.63515625 58.2814063,4.11351562 L58.2814063,14.071875 L60.0701563,14.071875 L60.0701563,4.340625 C60.0701563,2.61859375 61.0322656,1.77757812 63.0203125,1.77757812 C64.9057813,1.77757812 65.9436719,2.63617187 65.9436719,4.18039062 L65.9436719,14.071875 L67.7324219,14.071875 L67.7324219,4.18046875 C67.7324219,2.63617187 68.7703125,1.77757812 70.6558594,1.77757812 C72.6446875,1.77757812 73.6192969,2.61867187 73.6192969,4.34054687 L73.6192969,14.071875 L75.3947656,14.071875 L75.3947656,4.11351562 C75.3947656,1.63507812 73.5646875,0.02875 70.7360156,0.02875 C68.8478906,0.02875 67.7078125,0.495546875 66.8380469,1.61726562 C65.9695313,0.495546875 64.8260156,0.02875 62.9401563,0.02875 Z M0,0.09546875 L0,10.05375 C0,12.5317187 1.82882812,14.1385156 4.65882812,14.1385156 C6.54476562,14.1385156 7.68828125,13.6730469 8.55671875,12.55 C9.42546875,13.6730469 10.5682812,14.1385156 12.4546875,14.1385156 C15.2833594,14.1385156 17.1134375,12.5317969 17.1134375,10.05375 L17.1134375,0.09546875 L15.3379687,0.09546875 L15.3379687,9.826875 C15.3379687,11.5479687 14.3625781,12.3765625 12.3745312,12.3765625 C10.489375,12.3765625 9.45109375,11.53 9.45109375,9.98703125 L9.45109375,0.09546875 L7.675625,0.09546875 L7.675625,9.98695312 C7.675625,11.5294531 6.63773437,12.3764844 4.7521875,12.3764844 C2.76421875,12.3764844 1.78875,11.5478906 1.78875,9.82679687 L1.78875,0.09546875 L0,0.09546875 L0,0.09546875 Z M78.6384375,0.09546875 C78.2633594,0.09546875 77.9421875,0.230625 77.6772656,0.4959375 C77.4111719,0.7625 77.276875,1.08070312 77.276875,1.45703125 C77.276875,1.83679687 77.4142188,2.165 77.6772656,2.43148437 C77.94125,2.6984375 78.2603906,2.83195312 78.6384375,2.83195312 C79.015625,2.83195312 79.3334375,2.69851562 79.5996094,2.43148437 C79.8665625,2.16320312 80,1.83507812 80,1.45703125 C80,1.07984375 79.8665625,0.7615625 79.5996094,0.4959375 C79.3335156,0.230703125 79.015625,0.09546875 78.6384375,0.09546875 L78.6384375,0.09546875 Z M78.6384375,0.28234375 C78.9630469,0.28234375 79.2371094,0.39828125 79.4660938,0.629453125 C79.6932813,0.858828125 79.813125,1.14492187 79.813125,1.47039063 C79.813125,1.7971875 79.6932813,2.06734375 79.4660938,2.29804687 C79.2389063,2.52875 78.964375,2.64515625 78.6384375,2.64515625 C78.3133594,2.64515625 78.0379688,2.52875 77.8107813,2.29804687 C77.584375,2.06734375 77.46375,1.79726563 77.46375,1.47039063 C77.46375,1.14539062 77.583125,0.85875 77.8107813,0.629453125 C78.0396875,0.398359375 78.3154688,0.28234375 78.6384375,0.28234375 Z M78.0910937,0.70953125 L78.0910937,2.2046875 L78.3447656,2.2046875 L78.3447656,1.6171875 L78.5582813,1.6171875 C78.6992969,1.6171875 78.7960156,1.6390625 78.8520312,1.670625 C78.9459375,1.72617187 78.9854687,1.8309375 78.9854687,2.00429688 L78.9854687,2.12445313 L78.99875,2.17789063 C79.0005469,2.1846875 78.9971875,2.18609375 78.99875,2.19125 C79.0005469,2.19632812 78.9967187,2.1990625 78.99875,2.20460938 L79.2524219,2.20460938 L79.2391406,2.19132813 C79.2322656,2.17804688 79.2282031,2.15125 79.2257031,2.11117188 C79.2227344,2.071875 79.2257031,2.039375 79.2257031,2.004375 L79.2257031,1.88421875 C79.2257031,1.80820313 79.2007031,1.73671875 79.1457031,1.65726562 C79.0914844,1.57742188 79.0089844,1.52882812 78.8920313,1.51046875 C78.9855469,1.495625 79.0552344,1.4765625 79.105625,1.44375 C79.2039063,1.38007812 79.2524219,1.27039062 79.2524219,1.13671875 C79.2524219,0.947109375 79.1663281,0.82703125 79.0121875,0.762890625 C78.9259375,0.7265625 78.7975781,0.70953125 78.6117187,0.70953125 L78.0910937,0.70953125 L78.0910937,0.70953125 Z M78.3447656,0.883046875 L78.5716406,0.883046875 C78.7177344,0.883046875 78.8253906,0.911328125 78.8919531,0.949765625 C78.95875,0.98609375 78.9983594,1.05484375 78.9988281,1.16328125 C78.9988281,1.27867188 78.9432813,1.3621875 78.8385938,1.40359375 C78.7835156,1.42546875 78.6969531,1.4303125 78.585,1.4303125 L78.3447656,1.4303125 L78.3447656,0.883046875 Z M49.1374219,1.75078125 L51.3132031,1.75078125 C53.2653906,1.75078125 54.3835156,2.72265625 54.3835156,4.43390625 L54.3835156,9.69335938 C54.3835156,11.4033594 53.2653906,12.3765625 51.3132031,12.3765625 L49.1374219,12.3765625 C47.1566406,12.3765625 46.0671094,11.4285156 46.0671094,9.69335938 L46.0671094,4.43398438 C46.0671094,2.72265625 47.1857031,1.75078125 49.1374219,1.75078125 Z" id="Shape"></path>
            </g>
        </g>
    </g>
</svg>