<svg width="80" height="80" viewBox="0 0 80 80" fill="none" xmlns="http://www.w3.org/2000/svg">
<rect width="80" height="80" rx="40" fill="#171E2B"/>
<path fill-rule="evenodd" clip-rule="evenodd" d="M59.351 48.1733C58.2935 50.6736 56.7788 52.9198 54.8493 54.8493C52.9197 56.7788 50.6736 58.2934 48.1733 59.351C45.5862 60.4452 42.8363 61 40 61C38.5488 61 37.1205 60.8538 35.7248 60.5654C42.2413 59.2727 46 55.1514 46 49V41.5C46 39.0188 48.0188 37 50.5 37C51.3284 37 52 36.3285 52 35.5C52 34.6716 51.3284 34 50.5 34C46.3645 34 43 37.3645 43 41.5V49C43 51.9995 41.8869 54.2917 39.6916 55.8131C37.6271 57.2438 34.6216 58 31.0001 58H29.1743C27.7173 57.1226 26.3706 56.0691 25.1508 54.8493C25.0998 54.7983 25.0504 54.7462 25 54.6949V47.5C25 43.8788 22.4202 40.8487 19.0019 40.1512C19.0016 40.1008 19 40.0505 19 40C19 37.1638 19.5548 34.4138 20.6491 31.8268C21.7067 29.3265 23.2212 27.0803 25.1508 25.1507C27.0803 23.2212 29.3265 21.7066 31.8268 20.6491C34.4138 19.5548 37.1638 19 40 19C41.4512 19 42.8795 19.1463 44.2752 19.4347C37.7589 20.7273 34 24.8486 34 31V38.5C34 40.9813 31.9813 43 29.5 43C28.6716 43 28.0001 43.6716 28.0001 44.5C28.0001 45.3285 28.6717 46 29.5001 46C33.6356 46 37 42.6355 37 38.5V31C37 28.0006 38.1132 25.7083 40.3085 24.187C42.373 22.7563 45.3785 22 49 22H50.8257C52.2828 22.8776 53.6295 23.931 54.8493 25.1507C54.9003 25.2017 54.9497 25.2538 55 25.3052V32.5C55 36.1213 57.5799 39.1513 60.9982 39.8488C60.9986 39.8993 61 39.9496 61 40C61 42.8363 60.4452 45.5863 59.351 48.1733ZM62.5 37C61.8728 37 61.2753 36.8707 60.7323 36.6378C59.1273 35.9495 58 34.3541 58 32.5V24.1276C57.3338 23.3727 56.621 22.6601 55.8659 21.9942C55.5831 21.7448 55.2944 21.5021 55 21.2661C53.9443 20.4197 52.8156 19.6608 51.6247 19C48.1805 17.0894 44.2178 16 40 16C26.7452 16 16 26.7452 16 40C16 41.0161 16.0638 42.0172 16.1863 43H17.5001C18.1273 43 18.7248 43.1294 19.2678 43.3623C20.8728 44.0506 22 45.646 22 47.5V55.8725C22.6662 56.6274 23.379 57.34 24.1341 58.0059C24.4169 58.2552 24.7057 58.498 25 58.734C26.0558 59.5804 27.1844 60.3394 28.3753 61C31.8195 62.9107 35.7823 64 40 64C53.2549 64 64 53.2548 64 40C64 38.984 63.9363 37.9829 63.8138 37H62.5Z" fill="white"/>
</svg>
