<svg width="512" height="512" viewBox="0 0 512 512" fill="none" xmlns="http://www.w3.org/2000/svg">
<path d="M256 0C188.105 0 122.99 26.9714 74.9807 74.9807C26.9714 122.99 0 188.105 0 256C0 323.895 26.9714 389.01 74.9807 437.019C122.99 485.029 188.105 512 256 512C323.895 512 389.01 485.029 437.019 437.019C485.029 389.01 512 323.895 512 256C512 188.105 485.029 122.99 437.019 74.9807C389.01 26.9714 323.895 0 256 0ZM182 387H119V199H182V387ZM150 174C129 174 116 159 116 141C116 123 130 109 151 109C172 109 185 123 186 141C186 159 172 174 150 174ZM406 387H344V287C344 261 335 244 312 244C295 244 285 256 281 267C279 271 278 277 278 282V387H216V199H278V226C287 213 302 195 335 195C376 195 406 222 406 279V387Z" fill="black"/>
</svg>
