<svg width="512" height="512" viewBox="0 0 512 512" fill="none" xmlns="http://www.w3.org/2000/svg">
<path d="M416 512H96C42.976 512 0 469.024 0 416V96C0 42.976 42.976 0 96 0H416C469.024 0 512 42.976 512 96V416C512 469.024 469.024 512 416 512Z" fill="#FFF9E3"/>
<path d="M383.936 384L384 383.984V290.096C384 244.16 374.112 208.784 320.416 208.784C294.608 208.784 277.28 222.944 270.208 236.384H269.472V213.072H218.56V383.984H271.584V299.36C271.584 277.072 275.808 255.536 303.408 255.536C330.592 255.536 331.008 280.96 331.008 300.8V384H383.936Z" fill="#FA2A62"/>
<path d="M132.224 213.088H185.296V384H132.224V213.088Z" fill="#5B2AFA"/>
<path d="M158.736 128C141.776 128 128 141.776 128 158.736C128 175.712 141.776 189.76 158.736 189.76C175.696 189.76 189.472 175.712 189.472 158.736C189.472 141.776 175.696 128 158.736 128V128Z" fill="#5B2AFA"/>
</svg>
