<?xml version="1.0" encoding="UTF-8"?>
<svg width="42px" height="23px" viewBox="0 0 42 23" version="1.1" xmlns="http://www.w3.org/2000/svg" xmlns:xlink="http://www.w3.org/1999/xlink">
    <g id="Page-1" stroke="none" stroke-width="1" fill="none" fill-rule="evenodd">
        <g id="Group"></g>
        <path d="M41.7981307,10.5378027 L31.4621982,0.20187027 C31.2643297,0.00535836 30.9702724,-0.05452545 30.7112281,0.0524514375 C30.4534758,0.158782313 30.2859691,0.410462273 30.2859691,0.68901567 L30.2859691,2.06711846 C30.2859691,2.25012905 30.3586436,2.42512935 30.4878428,2.55432849 L37.5803596,9.64684534 L0.689083694,9.64684534 C0.308204586,9.64690991 -1.13686838e-13,9.9550499 -1.13686838e-13,10.335929 L-1.13686838e-13,11.7140318 C-1.13686838e-13,12.0949109 0.308204586,12.4031155 0.689083694,12.4031155 L37.5803596,12.4031155 L30.4878428,19.4956323 C30.3586436,19.6248315 30.2859691,19.7997672 30.2859691,19.9828424 L30.2859691,21.3609452 C30.2859691,21.6395631 30.4535404,21.8911785 30.7112281,21.9975094 C30.7966934,22.0331684 30.8861638,22.0500289 30.9749882,22.0500289 C31.1539937,22.0500289 31.3302859,21.9800675 31.4621982,21.8481552 L41.7981307,11.5122227 C42.0673171,11.2430363 42.0673171,10.8069891 41.7981307,10.5378027 Z" id="Path" fill="#FF0000" fill-rule="nonzero"></path>
    </g>
</svg>