<?xml version="1.0" encoding="UTF-8"?>
<svg width="80px" height="80px" viewBox="0 0 80 80" version="1.1" xmlns="http://www.w3.org/2000/svg" xmlns:xlink="http://www.w3.org/1999/xlink">
    <title>01 Base / Ic / SamsungGuidelines</title>
    <g id="01-Base-/-Ic-/-SamsungGuidelines" stroke="none" stroke-width="1" fill="none" fill-rule="evenodd">
        <g id="bootstrap-4" fill-rule="nonzero">
            <path d="M0,69.6846875 C0,75.3821875 4.6184375,80 10.3153125,80 L69.684375,80 C75.3821875,80 80,75.3815625 80,69.6846875 L80,10.315625 C80,4.6178125 75.3815625,0 69.6846875,0 L10.315625,0 C4.6178125,0 0,4.6184375 0,10.3153125 L0,69.684375 L0,69.6846875 Z" id="Path" fill="#563D7C"></path>
            <path d="M33.174375,35.386875 L33.174375,24.0578125 L43.1465625,24.0578125 C44.0965625,24.0578125 45.0121875,24.136875 45.8940625,24.2953125 C46.7759375,24.4534375 47.55625,24.7359375 48.2346875,25.143125 C48.9128125,25.5503125 49.455625,26.115625 49.8628125,26.8390625 C50.2696875,27.5628125 50.4734375,28.49 50.4734375,29.6203125 C50.4734375,31.655625 49.8628125,33.125625 48.6415625,34.03 C47.420625,34.9346875 45.8603125,35.386875 43.960625,35.386875 L33.174375,35.386875 L33.174375,35.386875 Z M22.5234375,15.78125 L22.5234375,64.21875 L45.9959375,64.21875 C48.166875,64.21875 50.28125,63.9475 52.3390625,63.4046875 C54.396875,62.861875 56.2284375,62.0253125 57.8340625,60.8946875 C59.439375,59.7640625 60.7171875,58.3053125 61.666875,56.5190625 C62.616875,54.7325 63.0915625,52.618125 63.0915625,50.1759375 C63.0915625,47.145625 62.3565625,44.5565625 60.886875,42.4084375 C59.416875,40.26 57.189375,38.75625 54.204375,37.896875 C56.3753125,36.856875 58.015,35.5225 59.123125,33.894375 C60.2309375,32.26625 60.785,30.23125 60.785,27.78875 C60.785,25.5275 60.411875,23.628125 59.665625,22.0903125 C58.919375,20.5528125 57.8678125,19.3203125 56.5109375,18.393125 C55.154375,17.4659375 53.52625,16.79875 51.6265625,16.391875 C49.7271875,15.9846875 47.6240625,15.78125 45.3175,15.78125 L22.5234375,15.78125 Z M33.174375,55.9421875 L33.174375,42.645625 L44.7746875,42.645625 C47.08125,42.645625 48.935625,43.176875 50.3378125,44.24 C51.7396875,45.3028125 52.4409375,47.0778125 52.4409375,49.5653125 C52.4409375,50.831875 52.2259375,51.871875 51.79625,52.6859375 C51.3665625,53.5 50.79,54.1446875 50.06625,54.619375 C49.3428125,55.094375 48.5059375,55.4334375 47.55625,55.6371875 C46.60625,55.8403125 45.6115625,55.9421875 44.57125,55.9421875 L33.174375,55.9421875 L33.174375,55.9421875 Z" id="Shape" fill="#FFFFFF"></path>
        </g>
    </g>
</svg>