<?xml version="1.0" encoding="UTF-8"?>
<svg width="57px" height="80px" viewBox="0 0 57 80" version="1.1" xmlns="http://www.w3.org/2000/svg" xmlns:xlink="http://www.w3.org/1999/xlink">
    <title>css-5</title>
    <g id="✨Symbols" stroke="none" stroke-width="1" fill="none" fill-rule="evenodd">
        <g id="01-Base-/-Ic-/-SamsungGuidelines" transform="translate(-11.000000, 0.000000)" fill-rule="nonzero">
            <g id="css-5" transform="translate(11.000000, 0.000000)">
                <path d="M44.4096,2.96 L39.7088,2.96 L44.5984,8.2688 L44.5984,10.7936 L34.5248,10.7936 L34.5248,7.8368 L39.4144,7.8368 L34.5248,2.528 L34.5248,-1.8189894e-15 L44.4128,-1.8189894e-15 L44.4096,2.96 Z M32.5248,2.96 L27.8176,2.96 L32.7136,8.2688 L32.7136,10.7936 L22.6368,10.7936 L22.6368,7.8368 L27.5264,7.8368 L22.6368,2.528 L22.6368,-1.8189894e-15 L32.5248,-1.8189894e-15 L32.5248,2.96 Z M20.7552,3.0816 L15.6832,3.0816 L15.6832,7.7152 L20.7552,7.7152 L20.7552,10.7968 L12.0736,10.7968 L12.0736,1.73372428e-15 L20.7552,1.73372428e-15 L20.7552,3.0816 Z" id="Shape" fill="#131313"></path>
                <polygon id="Path" fill="#1572B6" points="5.1584 73.5712 0 15.7248 56.672 15.7248 51.5072 73.5616 28.3008 79.9936"></polygon>
                <polygon id="Path" fill="#33A9DC" points="28.336 75.0784 47.088 69.8784 51.4976 20.4544 28.336 20.4544"></polygon>
                <polygon id="Path" fill="#FFFFFF" points="28.336 41.4112 37.7248 41.4112 38.3712 34.1472 28.336 34.1472 28.336 27.056 46.128 27.056 45.9584 28.96 44.2144 48.512 28.336 48.512"></polygon>
                <polygon id="Path" fill="#EBEBEB" points="28.3744 59.8368 28.3424 59.8368 20.4416 57.7024 19.936 52.0448 12.8192 52.0448 13.8144 63.184 28.3488 67.2288 28.3904 67.2288 28.3904 59.8368"></polygon>
                <polygon id="Path" fill="#FFFFFF" points="37.1232 48.2016 36.2688 57.696 28.3552 59.8304 28.3552 67.2224 42.8992 63.1904 43.0048 61.9904 44.24 48.1984 37.1232 48.1984"></polygon>
                <path d="M28.3616,27.056 L28.3616,34.1504 L11.2288,34.1504 L11.0816,32.5568 L10.7584,28.96 L10.5888,27.056 L28.3616,27.056 Z M28.336,41.4112 L28.336,48.5056 L20.5248,48.5056 L20.3872,46.912 L20.064,43.3152 L19.8944,41.4112 L28.3328,41.4112 L28.336,41.4112 Z" id="Shape" fill="#EBEBEB"></path>
            </g>
        </g>
    </g>
</svg>