<?xml version="1.0" encoding="UTF-8"?>
<svg width="80px" height="80px" viewBox="0 0 80 80" version="1.1" xmlns="http://www.w3.org/2000/svg" xmlns:xlink="http://www.w3.org/1999/xlink">
    <title>01 Base / Ic / invision</title>
    <g id="01-Base-/-Ic-/-invision" stroke="none" stroke-width="1" fill="none" fill-rule="evenodd">
        <g id="invision" fill-rule="nonzero">
            <path d="M72.7478125,0 L7.2521875,0 C3.246875,0 0,3.246875 0,7.2521875 L0,72.7478125 C0,76.753125 3.246875,80 7.2521875,80 L72.7478125,80 C76.753125,80 80,76.753125 80,72.7478125 L80,7.2521875 C80,3.246875 76.753125,0 72.7478125,0" id="Path" fill="#DC395F"></path>
            <path d="M26.7359375,25.1703125 C29.3953125,25.1703125 31.623125,23.0859375 31.623125,20.3540625 C31.623125,17.6240625 29.3953125,15.54 26.7359375,15.54 C24.0765625,15.54 21.849375,17.6240625 21.849375,20.3540625 C21.849375,23.085625 24.0765625,25.1703125 26.7359375,25.1703125 M16.6028125,50.9578125 C16.315625,52.1796875 16.1715625,53.4990625 16.1715625,54.5753125 C16.1715625,58.81625 18.47125,61.6315625 23.3584375,61.6315625 C27.4115625,61.6315625 30.6975,59.2246875 33.0634375,55.338125 L31.61875,61.1359375 L39.6671875,61.1359375 L44.2671875,42.68625 C45.4171875,38.015 47.645,35.5903125 51.023125,35.5903125 C53.6821875,35.5903125 55.335,37.2440625 55.335,39.9740625 C55.335,40.765 55.263125,41.6265625 54.975625,42.56125 L52.60375,51.0415625 C52.244375,52.2634375 52.10125,53.4859375 52.10125,54.635 C52.10125,58.6609375 54.4721875,61.605625 59.43125,61.605625 C63.6715625,61.605625 67.0490625,58.8759375 68.9178125,52.335625 L65.7559375,51.115 C64.1746875,55.4965625 62.8090625,56.28875 61.7309375,56.28875 C60.6528125,56.28875 60.0778125,55.570625 60.0778125,54.1340625 C60.0778125,53.4871875 60.2221875,52.769375 60.4371875,51.905 L62.7375,43.643125 C63.3121875,41.703125 63.528125,39.9828125 63.528125,38.4021875 C63.528125,32.2215625 59.790625,28.9959375 55.263125,28.9959375 C51.023125,28.9959375 46.710625,32.820625 44.555,36.8459375 L46.135625,29.6209375 L33.846875,29.6209375 L32.121875,35.9846875 L37.8715625,35.9846875 L34.3309375,50.1596875 C31.550625,56.3403125 26.4434375,56.440625 25.8025,56.2971875 C24.75,56.0596875 24.076875,55.66 24.076875,54.2925 C24.076875,53.5034375 24.220625,52.37 24.58,51.0034375 L29.970625,29.6209375 L16.315625,29.6209375 L14.590625,35.9846875 L20.2678125,35.9846875 L16.603125,50.9578125" id="Shape" fill="#FFFFFF"></path>
        </g>
    </g>
</svg>