<?xml version="1.0" encoding="UTF-8"?>
<svg width="80px" height="78px" viewBox="0 0 80 78" version="1.1" xmlns="http://www.w3.org/2000/svg" xmlns:xlink="http://www.w3.org/1999/xlink">
    <title>Adobe_Photoshop_Lightroom_Classic_CC_icon</title>
    <g id="✨Symbols" stroke="none" stroke-width="1" fill="none" fill-rule="evenodd">
        <g id="01-Base-/-Ic-/-LightRoomClassic" transform="translate(-1.000000, -1.000000)" fill-rule="nonzero">
            <g id="Adobe_Photoshop_Lightroom_Classic_CC_icon" transform="translate(1.000000, 1.000000)">
                <path d="M14.1322957,0 L65.6809339,0 C73.4941634,0 79.8132296,6.31906615 79.8132296,14.1322957 L79.8132296,63.688716 C79.8132296,71.5019455 73.4941634,77.8210117 65.6809339,77.8210117 L14.1322957,77.8210117 C6.31906615,77.8210117 0,71.5019455 0,63.688716 L0,14.1322957 C0,6.31906615 6.31906615,0 14.1322957,0 Z" id="Path" fill="#001E36"></path>
                <g id="LrC" transform="translate(8.404669, 19.922179)" fill="#31A8FF">
                    <path d="M19.6108949,35.0817121 L0.622568093,35.0817121 C0.280155642,35.0817121 0.155642023,34.8949416 0.155642023,34.4902724 L0.155642023,0.498054475 C0.155642023,0.155642023 0.280155642,0.0311284047 0.591439689,0.0311284047 L6.47470817,0.0311284047 C6.692607,0.0311284047 6.81712062,0.155642023 6.81712062,0.404669261 L6.81712062,28.3268482 L20.6381323,28.3268482 C20.9494163,28.3268482 21.0428016,28.4824903 20.9805447,28.7937743 L20.1089494,34.5836576 C20.077821,34.770428 20.0155642,34.92607 19.922179,34.9883268 C19.8287938,35.0505837 19.7042802,35.0817121 19.6108949,35.0817121 Z" id="Path"></path>
                    <path d="M24.3424125,8.46692607 L29.6031128,8.46692607 C29.9143969,8.46692607 30.1011673,8.62256809 30.2256809,8.99610895 C30.3190661,9.21400778 30.4124514,9.49416342 30.4435798,9.77431907 C30.5058366,10.1167315 30.536965,10.459144 30.5680934,10.8015564 C30.5992218,11.1750973 30.5992218,11.5797665 30.5992218,11.9844358 C31.4708171,10.8638132 32.5603113,9.86770428 33.8054475,9.12062257 C35.1439689,8.31128405 36.7003891,7.87548638 38.2568093,7.93774319 C38.5680934,7.93774319 38.692607,8.09338521 38.692607,8.40466926 L38.692607,14.8793774 C38.692607,15.1595331 38.536965,15.2529183 38.2256809,15.2529183 C37.1673152,15.1906615 36.1089494,15.2529183 35.0817121,15.4708171 C34.2101167,15.6575875 33.4007782,15.9688716 32.5914397,16.3735409 C32,16.6848249 31.4396887,17.1206226 30.9727626,17.618677 L30.9727626,34.5836576 C30.9727626,34.92607 30.848249,35.0505837 30.5680934,35.0505837 L24.7782101,35.0505837 C24.4357977,35.0505837 24.311284,34.8949416 24.311284,34.5214008 L24.311284,16.0933852 C24.311284,15.2840467 24.311284,14.4747082 24.2801556,13.6031128 C24.2801556,12.7315175 24.2490272,11.8599222 24.2178988,11.0194553 C24.1867704,10.2723735 24.1245136,9.55642023 24.0311284,8.80933852 C24.0311284,8.71595331 24.0311284,8.62256809 24.0933852,8.49805447 C24.1867704,8.46692607 24.2490272,8.43579767 24.3424125,8.46692607 Z" id="Path"></path>
                    <path d="M62.2879377,3.54863813 C61.6031128,3.23735409 60.8249027,3.08171206 60.0466926,2.98832685 C58.92607,2.86381323 57.7743191,2.80155642 56.6536965,2.80155642 C53.385214,2.80155642 50.5214008,3.48638132 48.1867704,4.85603113 C45.8521401,6.22568093 43.922179,8.24902724 42.6770428,10.6770428 C41.3696498,13.1361868 40.7470817,16.0622568 40.7470817,19.3307393 C40.7159533,21.2918288 40.9649805,23.2529183 41.4941634,25.1828794 C41.9610895,26.8015564 42.6459144,28.3268482 43.6108949,29.7276265 C44.5136187,31.0350195 45.6031128,32.1245136 46.8793774,33.0272374 C48.155642,33.9299611 49.5875486,34.614786 51.1128405,35.0194553 C52.6692607,35.4552529 54.3501946,35.6731518 55.9688716,35.6731518 C57.1206226,35.6731518 58.2723735,35.6108949 59.3929961,35.4552529 C60.3268482,35.3618677 61.229572,35.1128405 62.1011673,34.8015564 C62.4435798,34.6459144 62.6303502,34.3035019 62.5992218,33.8988327 L62.5992218,28.9494163 C62.6303502,28.7937743 62.5680934,28.5758755 62.4435798,28.4513619 C62.3501946,28.3891051 62.1634241,28.2957198 61.9143969,28.4824903 C61.1673152,28.7626459 60.3891051,28.9494163 59.5797665,29.0428016 C58.614786,29.1361868 57.6498054,29.1673152 56.6848249,29.1673152 C55.8132296,29.1673152 54.9105058,29.0428016 54.1011673,28.7937743 C53.1984436,28.5758755 52.3579767,28.2023346 51.5797665,27.7354086 C50.7392996,27.2373541 50.0544747,26.5836576 49.4941634,25.8054475 C48.8715953,24.9338521 48.3735409,23.9688716 48.0311284,22.9416342 C47.6575875,21.6653696 47.4708171,20.3891051 47.5019455,19.0505837 C47.4708171,17.2140078 47.844358,15.3774319 48.5914397,13.7276265 C49.2762646,12.2957198 50.3657588,11.0817121 51.7042802,10.2412451 C53.1673152,9.36964981 54.848249,8.93385214 56.5603113,8.96498054 C57.5875486,8.96498054 58.6459144,9.02723735 59.6731518,9.24513619 C60.5136187,9.36964981 61.2918288,9.64980545 62.0700389,10.0544747 C62.1945525,10.1167315 62.381323,10.1167315 62.5058366,10.0544747 C62.6303502,9.92996109 62.7237354,9.74319066 62.692607,9.55642023 L62.692607,4.35797665 C62.692607,4.0155642 62.5680934,3.73540856 62.2879377,3.54863813 Z" id="Path"></path>
                </g>
            </g>
        </g>
    </g>
</svg>