<svg width="414" height="512" viewBox="0 0 414 512" fill="none" xmlns="http://www.w3.org/2000/svg">
<path d="M312.233 444.267V22.656C312.233 10.144 302.09 0 289.577 0H23.3845C10.8715 0 0.728516 10.144 0.728516 22.656V444.267C0.728516 456.78 10.8725 466.923 23.3845 466.923H289.577C302.09 466.924 312.233 456.78 312.233 444.267Z" fill="#F9CA1C"/>
<path d="M345.539 0H280.306C292.819 0 302.962 10.144 302.962 22.656V444.267C302.962 456.78 292.819 466.923 280.306 466.923H345.539C358.052 466.923 368.195 456.779 368.195 444.267V22.656C368.195 10.144 358.052 0 345.539 0V0Z" fill="#E9BD19"/>
<path d="M334.572 512C347.085 512 357.229 501.856 357.229 489.344V67.7332C357.229 55.2272 347.096 45.0881 334.593 45.0771H68.4607C55.9477 45.0771 45.8047 55.2212 45.8047 67.7332V489.344C45.8047 501.857 55.9487 512 68.4607 512H334.572Z" fill="#EDE8FF"/>
<path d="M390.615 45.0762H325.301C337.814 45.0762 347.958 55.2202 347.958 67.7332V489.344C347.958 501.857 337.814 512 325.301 512H390.615C403.128 512 413.271 501.856 413.271 489.344V67.7332C413.271 55.2202 403.128 45.0762 390.615 45.0762V45.0762Z" fill="#DACEFF"/>
<path d="M187.776 226.895H106.513C97.716 226.895 90.585 219.764 90.585 210.967V110.203C90.585 101.406 97.716 94.2749 106.513 94.2749H187.776C196.573 94.2749 203.704 101.406 203.704 110.203V210.968C203.704 219.764 196.573 226.895 187.776 226.895Z" fill="#5B2AFA"/>
<path d="M147.145 176.018C121.384 176.018 99.4571 192.407 91.2041 215.325C93.1011 222.001 99.2291 226.896 106.513 226.896H187.776C195.06 226.896 201.188 222.001 203.085 215.325C194.833 192.407 172.906 176.018 147.145 176.018V176.018Z" fill="white"/>
<path d="M147.145 181.994C161.157 181.994 172.515 170.635 172.515 156.624C172.515 142.612 161.157 131.254 147.145 131.254C133.134 131.254 121.775 142.612 121.775 156.624C121.775 170.635 133.134 181.994 147.145 181.994Z" fill="white"/>
<path d="M359.763 290.65H91.2035C86.9365 290.65 83.4775 287.191 83.4775 282.924C83.4775 278.657 86.9365 275.198 91.2035 275.198H359.763C364.03 275.198 367.489 278.657 367.489 282.924C367.489 287.191 364.03 290.65 359.763 290.65Z" fill="#FA2A62"/>
<path d="M359.763 340.433H91.2035C86.9365 340.433 83.4775 336.974 83.4775 332.707C83.4775 328.44 86.9365 324.981 91.2035 324.981H359.763C364.03 324.981 367.489 328.44 367.489 332.707C367.489 336.974 364.03 340.433 359.763 340.433Z" fill="#FA2A62"/>
<path d="M359.763 390.216H91.2035C86.9365 390.216 83.4775 386.757 83.4775 382.49C83.4775 378.223 86.9365 374.764 91.2035 374.764H359.763C364.03 374.764 367.489 378.223 367.489 382.49C367.489 386.757 364.03 390.216 359.763 390.216Z" fill="#FA2A62"/>
<path d="M359.763 440H91.2035C86.9365 440 83.4775 436.541 83.4775 432.274C83.4775 428.007 86.9365 424.548 91.2035 424.548H359.763C364.03 424.548 367.489 428.007 367.489 432.274C367.489 436.541 364.03 440 359.763 440Z" fill="#FA2A62"/>
<path d="M359.763 188.73H261.079C256.812 188.73 253.354 185.271 253.354 181.004C253.354 176.737 256.812 173.278 261.079 173.278H359.763C364.03 173.278 367.489 176.737 367.489 181.004C367.489 185.271 364.03 188.73 359.763 188.73Z" fill="#FA2A62"/>
<path d="M359.763 147.892H261.079C256.812 147.892 253.354 144.433 253.354 140.166C253.354 135.899 256.812 132.44 261.079 132.44H359.763C364.03 132.44 367.489 135.899 367.489 140.166C367.489 144.433 364.03 147.892 359.763 147.892Z" fill="#FA2A62"/>
</svg>
