<?xml version="1.0" encoding="UTF-8"?>
<svg width="80px" height="80px" viewBox="0 0 80 80" version="1.1" xmlns="http://www.w3.org/2000/svg" xmlns:xlink="http://www.w3.org/1999/xlink">
    <title>01 Base / Ic / SamsungGuidelines</title>
    <g id="01-Base-/-Ic-/-SamsungGuidelines" stroke="none" stroke-width="1" fill="none" fill-rule="evenodd">
        <path d="M18.2415721,13 C25.4345248,13 35.34474,14.6605 35.34474,25.66975 L35.34474,25.66975 L35.34474,29.254 L22.7138743,29.254 L22.7138743,26.105125 C22.7138743,23.398375 20.9588345,21.562375 17.9772997,21.562375 C14.8195833,21.562375 13.6811791,23.398375 13.3288159,24.971125 C13.2441132,25.497625 13.1560224,26.543875 13.4169067,27.590125 C14.9076741,33.44575 34.118245,36.59125 36.2188718,47.165125 C36.4831442,48.3025 36.9202101,51.097 36.3069626,55.467625 C35.0804676,63.8545 27.5385397,67 18.4177537,67 C8.85651364,67 1.0658141e-13,63.59125 1.0658141e-13,52.322125 L1.0658141e-13,52.322125 L1.0658141e-13,48.474625 L13.5964764,48.474625 L13.5964764,53.368375 C13.5964764,56.0785 15.5243097,57.9145 18.678638,57.9145 C22.012536,57.9145 23.1509402,56.16625 23.5913942,54.50575 C23.8556666,53.543875 24.0284601,51.971125 23.5033034,50.746 L23.5033034,50.746 C20.8741318,44.195125 2.89344401,41.22175 0.613247501,31.00225 C0.0847026935,28.467625 0.176181603,26.456125 0.5251567,24.18475 C1.92783331,15.97 9.20887684,13 18.2415721,13 Z M62.0227003,13.1755 C70.9673048,13.1755 78.8615958,16.1455 79.7391157,25.582 C79.9079564,27.0892188 79.8340886,28.7576172 79.8276398,28.8940337 L79.8272065,30.5635 L67.0201592,30.5635 L67.0201592,27.765625 C67.0201592,27.765625 67.0201592,26.543875 66.8473657,25.841875 C66.5830933,24.707875 65.6208707,22.17325 61.761816,22.17325 C58.0755548,22.17325 57.0252414,24.620125 56.760969,25.84525 C56.5847874,26.543875 56.5847874,27.418 56.5847874,28.204375 L56.5847874,51.2725 C56.5847874,51.883375 56.5847874,52.582 56.6728782,53.19625 C57.0157181,54.5557365 58.2694714,56.7427365 61.7323718,56.8599597 L62.024,56.864 L62.3159655,56.8597653 C65.7713458,56.7379415 66.9425075,54.4669831 67.1963408,53.192875 C67.2844316,52.585375 67.3725224,51.883375 67.2844316,51.269125 L67.2844316,43.931875 L62.1107911,43.931875 L62.1107911,36.59125 L80,36.59125 L80,50.135125 C80,51.097 80,51.795625 79.8272065,53.456125 C78.9496866,62.63275 70.9673048,65.862625 62.0227003,65.862625 C53.0780959,65.862625 45.095714,62.63275 44.2215822,53.456125 C44.0674233,52.0031875 44.0481535,51.2866855 44.0457447,50.4858811 L44.0454006,28.903 C44.0454006,28.028875 44.1334914,26.456125 44.2215822,25.582 C45.3599864,16.1455 52.9900051,13.1755 62.0227003,13.1755 Z" id="Combined-Shape" fill="#1327A0" fill-rule="nonzero"></path>
    </g>
</svg>