<?xml version="1.0" encoding="UTF-8"?>
<svg width="161px" height="25px" viewBox="0 0 161 25" version="1.1" xmlns="http://www.w3.org/2000/svg" xmlns:xlink="http://www.w3.org/1999/xlink">
    <title>Shape</title>
    <g id="âš›ï¸-2-Atoms" stroke="none" stroke-width="1" fill="none" fill-rule="evenodd">
        <path d="M88.127,11.542 C88.127,11.542 86.568,10.578 85.604,10.205 C85.604,10.205 82.62,8.822 82.028,8.164 C82.028,8.164 80.865,7.068 81.546,5.795 C81.546,5.795 81.831,4.962 83.06,4.962 C83.06,4.962 84.66,5.05 84.66,6.365 L84.66,8.22 L90.394,8.22 L90.384,5.488 C90.384,5.488 90.825,1.014 83.63,0.817 C83.63,0.817 77.971,0.445 76.348,3.493 C76.348,3.493 75.711,4.173 75.711,6.541 L75.711,8.252 C75.711,8.252 75.646,10.226 76.654,11.498 C76.654,11.498 77.224,12.332 78.628,13.252 C78.628,13.252 81.479,14.787 83.19,15.666 C83.19,15.666 84.917,16.652 84.69,18.221 C84.69,18.221 84.549,19.832 82.881,19.766 C82.881,19.766 81.356,19.698 81.356,18.118 L81.356,16.264 L75.246,16.264 L75.246,18.957 C75.246,18.957 75.075,24.107 82.926,24.107 C82.926,24.107 90.428,24.259 90.778,18.822 L90.778,16.629 C90.777,16.629 91.043,13.297 88.127,11.542 L88.127,11.542 Z M58.771,1.458 L56.851,13.49 L56.402,13.49 L54.568,1.566 L44.99,1.566 L44.51,23.355 L50.181,23.355 L50.249,6.938 L50.695,6.938 L53.701,23.352 L59.667,23.352 L62.636,6.944 L63.031,6.944 L63.168,23.355 L68.869,23.355 L68.255,1.458 L58.771,1.458 L58.771,1.458 Z M25.013,1.549 L21.24,23.33 L27.345,23.33 L29.58,6.442 L30.082,6.442 L32.316,23.33 L38.42,23.33 L34.648,1.549 L25.013,1.549 L25.013,1.549 Z M153.115,11.242 L153.115,14.455 L154.681,14.455 L154.681,17.904 C154.681,19.59 153.24,19.621 153.24,19.621 C151.488,19.621 151.554,18.019 151.554,18.019 L151.554,6.089 C151.554,4.86 153.109,4.794 153.109,4.794 C154.601,4.794 154.611,6.26 154.611,6.26 L154.611,8.074 L160.359,8.074 C160.547,4.533 159.841,3.676 159.841,3.676 C158.415,0.474 153.021,0.649 153.021,0.649 C144.732,0.649 145.652,7.009 145.652,7.009 L145.652,18.544 C145.83,24.509 153.998,23.903 154.136,23.898 C157.769,23.496 158.866,22.341 158.866,22.341 C159.876,21.591 160.136,20.552 160.136,20.552 C160.425,19.947 160.497,18.019 160.497,18.019 L160.497,11.242 L153.115,11.242 L153.115,11.242 Z M134.062,14.787 L133.812,14.787 L127.979,1.464 L121,1.464 L121,23.357 L126.68,23.357 L126.34,10.036 L126.594,10.036 L132.637,23.357 L139.404,23.357 L139.404,1.462 L133.652,1.462 L134.062,14.787 L134.062,14.787 Z M107.135,17.902 C107.135,17.902 107.217,19.699 105.551,19.699 C105.551,19.699 103.799,19.793 103.799,17.947 L103.781,1.477 L97.551,1.477 L97.551,17.816 C97.551,17.816 96.912,24.0000766 105.639,24.0000766 C105.639,24.0000766 113.223,24.09 113.223,18.1 L113.223,1.478 L107.135,1.478 L107.135,17.902 L107.135,17.902 Z M13.136,11.542 C13.136,11.542 11.579,10.578 10.614,10.206 C10.614,10.206 7.632,8.824 7.04,8.165 C7.04,8.165 5.877,7.067 6.559,5.797 C6.559,5.797 6.843,4.964 8.071,4.964 C8.071,4.964 9.672,5.051 9.672,6.366 L9.672,8.221 L15.408,8.221 L15.397,5.488 C15.397,5.488 15.835,1.014 8.643,0.818 C8.643,0.818 8.101,0.783 7.306,0.823 C7.306,0.823 2.949,1.057 1.391,3.447 C1.382,3.465 1.369,3.478 1.36,3.494 C1.36,3.494 0.724,4.173 0.724,6.542 L0.724,8.253 C0.724,8.253 0.658,10.227 1.667,11.499 C1.667,11.499 2.237,12.333 3.641,13.253 C3.641,13.253 6.491,14.788 8.202,15.667 C8.202,15.667 9.931,16.651 9.702,18.222 C9.702,18.222 9.561,19.833 7.894,19.767 C7.894,19.767 6.369,19.699 6.369,18.119 L6.369,16.264 L0.258,16.264 L0.258,18.959 C0.258,18.959 0.087,24.109 7.938,24.109 C7.938,24.109 15.438,24.261 15.791,18.824 L15.791,16.633 C15.791,16.631 16.053,13.297 13.136,11.542 L13.136,11.542 Z" id="Shape" fill="#FFFFFF" fill-rule="nonzero"></path>
    </g>
</svg>