<?xml version="1.0" encoding="UTF-8"?>
<svg width="80px" height="80px" viewBox="0 0 80 80" version="1.1" xmlns="http://www.w3.org/2000/svg" xmlns:xlink="http://www.w3.org/1999/xlink">
    <title>01 Base / Ic / Sass</title>
    <g id="01-Base-/-Ic-/-Sass" stroke="none" stroke-width="1" fill="none" fill-rule="evenodd">
        <g id="sass-1" transform="translate(0.000000, 10.000000)" fill="#CF649A" fill-rule="nonzero">
            <path d="M68.8444622,34.4229808 C66.0487055,34.4387557 63.6277989,35.1102059 61.5973611,36.1099623 C60.8476609,34.6261808 60.0979608,33.3296681 59.973167,32.3614617 C59.8325982,31.2369115 59.6607919,30.5495302 59.8325982,29.2064737 C60.0042483,27.8631048 60.7851859,25.957617 60.7851859,25.8014294 C60.769411,25.6608607 60.6132235,24.9736355 59.0046481,24.9580168 C57.3960728,24.942398 56.0058477,25.2703918 55.8496601,25.6920982 C55.6934726,26.1138045 55.3810976,27.0821671 55.1780538,28.0817673 C54.8969162,29.54993 51.9605908,34.7509746 50.2893842,37.4842563 C49.7427279,36.4221811 49.2741653,35.485056 49.1802966,34.7351997 C49.039884,33.6108057 48.8679216,32.9234244 49.039884,31.5803679 C49.2116903,30.236999 49.9926279,28.3316673 49.9926279,28.1754798 C49.9770092,28.034911 49.8208217,27.3476859 48.2122464,27.3320672 C46.6033587,27.3164484 45.2134459,27.6444422 45.0572583,28.0661485 C44.9010708,28.4878549 44.7292645,29.487455 44.385652,30.4558177 C44.057502,31.4241803 40.1528139,40.1082067 39.137595,42.3729258 C38.6221761,43.5287135 38.1693885,44.4502199 37.8412385,45.07497 C37.5132447,45.6997201 37.8256198,45.1218263 37.7943822,45.1843013 C37.5132447,45.7153389 37.3570572,46.0120952 37.3570572,46.0120952 L37.3570572,46.0278701 C37.1383946,46.4183389 36.9041134,46.7930328 36.7946259,46.7930328 C36.7165321,46.7930328 36.5603446,45.7465764 36.8258634,44.3098073 C37.4037572,41.2952319 38.809445,36.5941436 38.7939824,36.4223373 C38.7939824,36.3442436 39.059345,35.5162935 37.8879386,35.0947434 C36.7477696,34.673037 36.3418383,35.3758809 36.2479696,35.3758809 C36.154257,35.3758809 36.0761633,35.6257809 36.0761633,35.6257809 C36.0761633,35.6257809 37.3412822,30.33118 33.6552566,30.33118 C31.3436813,30.33118 28.1574558,32.8457992 26.5799618,35.1417558 C25.5803616,35.6884121 23.4562113,36.8440436 21.2071109,38.0780813 C20.3480795,38.5466438 19.4578106,39.0464439 18.614398,39.4993877 L18.4427479,39.3116503 C13.9757847,34.5479308 5.71346461,31.1742803 6.05707717,24.7705918 C6.18202719,22.4433976 6.99420232,16.3052279 21.9258859,8.87070172 C34.1553691,2.77938824 43.9483269,4.45059476 45.6506148,8.16785786 C48.0715214,13.4782337 40.4183327,23.3492853 27.7048243,24.7705918 C22.863011,25.3172481 20.3169982,23.4429978 19.6767855,22.7401539 C19.0051792,22.0060726 18.9114667,21.9748351 18.6615666,22.1154038 C18.2554791,22.3340664 18.5053791,22.990054 18.6615666,23.3805228 C19.0364167,24.3645042 20.5982919,26.1138045 23.2534799,26.9884546 C25.5805178,27.7537735 31.2658999,28.1754798 38.138151,25.5202919 C45.838196,22.5371102 51.8514157,14.2591713 50.0864967,7.34006397 C48.2903401,0.296006597 36.6075132,-2.01556877 25.5650552,1.9047381 C18.9894042,4.24755098 11.8672531,7.90233906 6.74430228,12.6972961 C0.652988804,18.382522 -0.31537385,23.3492853 0.0907137145,25.4109606 C1.51217638,32.767393 11.6485906,37.5623501 15.7094662,41.1078069 C15.5064224,41.216982 15.3189974,41.3263132 15.1471911,41.4201819 C13.1167533,42.4196259 5.38547081,46.465039 3.4487455,50.744421 C1.26212015,55.5862343 3.79235806,59.0693723 5.47918333,59.5379348 C10.6958467,60.9904788 16.03746,58.3821471 18.9269292,54.0869902 C21.8006235,49.7918333 21.4571671,44.2159386 20.1295732,41.670082 L20.0825607,41.5763695 L21.6756735,40.6392443 C22.7066673,40.030113 23.7218862,39.4678379 24.611999,38.9835003 C24.1123551,40.3423318 23.7529676,41.9510633 23.5656987,44.2938762 C23.3470362,47.0429328 24.4715864,50.6038522 25.9553679,52.0095399 C26.6113555,52.6185151 27.3922931,52.63429 27.8764744,52.63429 C29.5945372,52.63429 30.3754748,51.2128274 31.2345062,49.5105395 C32.2965814,47.4332455 33.2337065,45.0279576 33.2337065,45.0279576 C33.2337065,45.0279576 32.0623001,51.5409774 35.2641443,51.5409774 C36.4355508,51.5409774 37.6069572,50.0259584 38.1379948,49.2450207 L38.1379948,49.2606395 C38.1379948,49.2606395 38.1692323,49.2137832 38.2317073,49.104452 C38.2972415,49.0075518 38.3597467,48.9086373 38.4191323,48.8078519 L38.4191323,48.7766144 C38.8876949,47.9644392 39.9341513,46.1058077 41.4960266,43.0289134 C43.5106895,39.0617503 45.447571,34.094987 45.447571,34.094987 C45.447571,34.094987 45.634996,35.3132497 46.2128898,37.31245 C46.5563462,38.4996314 47.3060463,39.7958317 47.8839402,41.0609506 C47.4153776,41.7169382 47.1342401,42.0919445 47.1342401,42.0919445 L47.1498588,42.1075632 C46.7751649,42.6073633 46.3533024,43.1385571 45.9161335,43.6694385 C44.3230208,45.5749263 42.417533,47.7460891 42.1676329,48.3708392 C41.8708766,49.1047643 41.9333517,49.6514207 42.5112455,50.0889019 C42.9329518,50.401277 43.6826519,50.4635958 44.4792083,50.401277 C45.9161335,50.3074083 46.9157337,49.9483332 47.4155338,49.7295144 C48.1964714,49.4483769 49.0867403,49.0266706 49.9457717,48.4019205 C51.5076469,47.246289 52.4603908,45.60632 52.3666783,43.4196946 C52.3198221,42.2170507 51.9293533,41.0300255 51.4451719,39.9054753 C51.5857407,39.7024315 51.7264657,39.4992316 51.8668782,39.2807252 C54.3346411,35.6726372 56.2401289,31.7056302 56.2401289,31.7056302 C56.2401289,31.7056302 56.427554,32.9238929 57.0054478,34.9230933 C57.3020479,35.9383122 57.8957167,37.0473998 58.4267543,38.1407125 C56.1151789,40.0305815 54.6626349,42.2172069 54.1628349,43.6541321 C53.2413285,46.30932 53.9597911,47.511964 55.3186226,47.7931015 C55.9275977,47.9180515 56.802404,47.636914 57.4582355,47.3557764 C58.2704106,47.0902576 59.254392,46.6371576 60.1604358,45.9657075 C61.7223111,44.8099198 63.2217113,43.2011883 63.1436176,41.0301817 C63.0967613,40.0305815 62.8312425,39.0466001 62.4720112,38.109475 C64.439974,37.2972998 66.9856745,36.8287373 70.2189124,37.2192061 C77.1692573,38.0313812 78.5437075,42.3733944 78.2783449,44.1851697 C78.0128261,45.9971012 76.5602821,46.9965451 76.0759446,47.3089202 C75.5917633,47.6056765 75.4355758,47.7151639 75.482432,47.9336703 C75.544907,48.2618203 75.7635696,48.2460453 76.1852759,48.1837265 C76.7631697,48.0898578 79.840064,46.699945 79.965014,43.3576882 C80.152439,39.0619065 76.0759446,34.3762807 68.8444622,34.4229808 L68.8444622,34.4229808 Z M15.2409036,52.4938774 C12.944947,55.0084966 9.71186525,55.9612405 8.33741503,55.1490654 C6.85363355,54.290034 7.4313712,50.5883896 10.2585216,47.917583 C11.9765844,46.2932327 14.210066,44.7938325 15.6782287,43.8723261 C16.0062225,43.6692823 16.5060226,43.3726822 17.0995352,43.0132947 C17.1932477,42.9509759 17.2557227,42.9195822 17.2557227,42.9195822 C17.365054,42.8571072 17.490004,42.7790134 17.614954,42.7009196 C18.6614104,46.5118952 17.6618103,49.8543083 15.2409036,52.4938774 L15.2409036,52.4938774 Z M32.0310626,41.0765694 C31.2345062,43.0289134 29.5476809,48.042533 28.532462,47.7613954 C27.6576557,47.5271142 27.1267743,43.7317573 28.3604996,39.9832567 C28.9852497,38.0932315 30.3128436,35.8442873 31.0937812,34.969481 C32.3590564,33.5637932 33.7333504,33.0952307 34.0771192,33.6731245 C34.4832067,34.4229808 32.5308627,39.8583067 32.0310626,41.0765694 Z M45.884896,47.6989204 C45.5412835,47.8708829 45.2289084,47.9956767 45.0883397,47.9021204 C44.9790084,47.8396454 45.2287522,47.6053641 45.2287522,47.6053641 C45.2287522,47.6053641 46.9624338,45.7467326 47.6496589,44.8877012 C48.0401277,44.3880573 48.5086903,43.8101634 49.0084904,43.1540196 L49.0084904,43.3414447 C49.0086465,45.5903888 46.8532587,47.0897891 45.884896,47.6989204 Z M56.5679666,45.262395 C56.3180665,45.07497 56.3494602,44.4970762 57.1927167,42.6853009 C57.5208667,41.9668383 58.2704106,40.7641943 59.566767,39.6240254 C59.7229546,40.092588 59.8168233,40.5453756 59.8010483,40.9672381 C59.7855858,43.7786136 57.7863854,44.82507 56.5679666,45.262395 Z" id="Shape"></path>
        </g>
    </g>
</svg>