<?xml version="1.0" encoding="UTF-8"?>
<svg width="80px" height="80px" viewBox="0 0 80 80" version="1.1" xmlns="http://www.w3.org/2000/svg" xmlns:xlink="http://www.w3.org/1999/xlink">
    <title>01 Base / Ic / zeplin</title>
    <g id="01-Base-/-Ic-/-zeplin" stroke="none" stroke-width="1" fill="none" fill-rule="evenodd">
        <g id="zeplin" transform="translate(-0.500000, 8.509971)" fill-rule="nonzero">
            <path d="M12.3307021,44.1179892 L8.14624013,45.6468633 L7.92355629,58.0938928 L22.4079767,52.8026589 C17.4358122,51.1375156 13.8097216,48.202742 12.3307021,44.1179892" id="Path" fill="#FDBD39"></path>
            <path d="M14.5209805,30.9530536 L0,36.2575821 L8.14624013,45.650187 L12.3307021,44.1213128 C10.8550062,40.0498546 11.7656834,35.4532613 14.5209805,30.9530536" id="Path" fill="#F69833"></path>
            <path d="M38.9530536,12.9887827 C20.4636477,19.7424179 8.54175322,33.6817615 12.3307021,44.1179892 L79.2854175,19.659327 C75.4964686,9.22309929 57.4424595,6.23514749 38.9530536,12.9887827" id="Path" fill="#FECF33"></path>
            <path d="M52.6597424,50.7918571 C71.1491483,44.0382219 83.0909846,30.1620274 79.2820939,19.6626506 L12.3273785,44.1179892 C16.1362692,54.6206897 34.1703365,57.5454923 52.6597424,50.7918571" id="Path" fill="#EE6723"></path>
            <path d="M79.2820939,19.659327 L12.3307021,44.1179892 C13.640216,47.7341088 18.6422933,49.5155796 25.6551724,49.5155796 C32.4952223,49.5155796 41.2496884,47.8238471 50.3764022,44.4902368 C68.8658081,37.7366016 81.871209,26.7985044 79.2820939,19.659327" id="Path" fill="#F69833"></path>
            <path d="M65.9576236,14.2650602 C59.1208974,14.2650602 50.3631076,15.9567927 41.2363939,19.290403 C22.746988,26.0440382 9.74158704,36.9788118 12.3307021,44.1179892 L79.2854175,19.659327 C77.97258,16.0432073 72.9738263,14.2650602 65.9576236,14.2650602" id="Path" fill="#FDBD39"></path>
            <g id="Group" transform="translate(25.891151, 0.000000)" fill="#EE6723">
                <path d="M36.3672622,58.7552971 C34.396344,58.7552971 31.4914832,56.97715 27.7291234,53.4673868 C23.2787703,49.3161612 18.1836311,43.2339011 13.3743249,36.3439967 C8.56834233,29.4540922 4.61985875,22.5675114 2.2534275,16.9472372 C-0.32239302,10.8250935 -0.691316992,7.06273369 1.15995015,5.75986705 C1.58869963,5.46738679 2.09721645,5.31782302 2.6157042,5.33111757 C4.12131284,5.33111757 7.05941005,6.45118405 12.4869132,11.7955962 L12.6065642,11.9119236 L12.589946,12.0781055 C12.553386,12.4636477 12.5201496,12.8491899 12.4902368,13.2314084 L12.4304113,13.9858745 L11.898629,13.4507686 C6.04902368,7.55795596 3.4765268,6.92314084 2.63896967,6.92314084 C2.39966764,6.92314084 2.21022019,6.96967179 2.07395098,7.06605733 C1.26963025,7.63107603 1.21645201,10.396344 3.71582883,16.3290403 C6.03905276,21.8462817 9.93103448,28.6298297 14.6738679,35.4299958 C19.4200249,42.2334857 24.4387204,48.2226838 28.8126298,52.3007894 C33.5255505,56.6979643 35.649356,57.1732447 36.3439967,57.1732447 C36.5832987,57.1732447 36.7760698,57.1233901 36.9223099,57.0203573 C37.769838,56.4254258 37.769838,53.4640631 34.9846282,47.0760283 L34.8550062,46.783548 L35.1341919,46.6306606 C35.4133776,46.4777732 35.6859161,46.3282094 35.9385127,46.1819693 L36.2742002,45.9925218 L36.4304113,46.3448276 C38.4046531,50.8716244 40.2525966,56.6248442 37.8296635,58.3265476 C37.400914,58.6190278 36.8890735,58.7685916 36.3672622,58.7552971 Z M36.400644,58.0573328 L36.400644,58.4063149 L36.400644,58.0573328 Z" id="Shape"></path>
                <path d="M27.2172829,50.599086 L27.1906938,50.9447445 C26.7220607,56.727877 25.4923141,63.6809306 22.2816784,63.96344 C22.2152057,63.9700872 22.1487329,63.9700872 22.0855837,63.9700872 C19.9052763,63.9700872 17.8412962,60.8458662 15.9567927,54.6871624 C14.1686747,48.857499 12.7827171,41.0336518 12.05484,32.654757 C11.3236394,24.2758621 11.3336103,16.3290403 12.0847528,10.276693 C12.9023681,3.68259244 14.4578313,0.239302036 16.7112588,0.0398836726 C16.7777316,0.0332363939 16.847528,0.0299127545 16.9140008,0.0299127545 C18.4960532,0.0299127545 20.8791026,1.82135438 23.3186539,10.1636892 L21.7266307,10.4694641 C20.912339,7.68425426 20.0249273,5.4175322 19.1441629,3.85542169 C18.3298712,2.41628583 17.5355214,1.62193602 16.9140008,1.62193602 C16.894059,1.62193602 16.8741172,1.62193602 16.8508517,1.62525966 C15.8737017,1.71167428 14.451184,4.07810553 13.6601579,10.4727877 C12.9223099,16.4154549 12.912339,24.2459493 13.6335688,32.5151641 C14.3547985,40.7877025 15.7174907,48.4952223 17.4723722,54.2185293 C18.2567511,56.7810553 19.1175737,58.8948899 19.9651018,60.3273785 C20.7428334,61.650187 21.4972995,62.378064 22.0855837,62.378064 C22.1055256,62.378064 22.1254674,62.378064 22.1454092,62.3747403 C23.0793519,62.294973 24.8408808,59.8288326 25.5820523,51.1574574 L27.2172829,50.599086 Z" id="Path"></path>
            </g>
        </g>
    </g>
</svg>